<?xml version="1.0" encoding="UTF-8"?>
<svg width="242px" height="87px" viewBox="0 0 242 87" version="1.1" xmlns="http://www.w3.org/2000/svg" xmlns:xlink="http://www.w3.org/1999/xlink">
    <!-- Generator: Sketch 46.1 (44463) - http://www.bohemiancoding.com/sketch -->
    <title>glasses</title>
    <desc>Created with Sketch.</desc>
    <defs>
        <polygon id="path-1" points="241.759958 0.0105241935 0 0.0105241935 0 86.2983871 241.759958 86.2983871"></polygon>
    </defs>
    <g id="Page-1" stroke="none" stroke-width="1" fill="none" fill-rule="evenodd">
        <g id="About" transform="translate(-599.000000, -704.000000)">
            <g id="glasses" transform="translate(599.000000, 704.000000)">
                <g id="Group-3" transform="translate(0.000000, 0.691089)">
                    <mask id="mask-2" fill="white">
                        <use xlink:href="#path-1"></use>
                    </mask>
                    <g id="Clip-2"></g>
                    <path d="M236.146398,18.3817669 C235.309889,18.3817669 234.634247,17.7033073 234.634247,16.8564605 C234.634247,16.0173315 235.309889,15.3318556 236.146398,15.3318556 C236.9906,15.3318556 237.666941,16.0173315 237.666941,16.8564605 C237.666941,17.7033073 236.9906,18.3817669 236.146398,18.3817669 M231.046912,18.3817669 C230.211103,18.3817669 229.527068,17.7033073 229.527068,16.8564605 C229.527068,16.0173315 230.211103,15.3318556 231.046912,15.3318556 C231.883421,15.3318556 232.567455,16.0173315 232.567455,16.8564605 C232.567455,17.7033073 231.883421,18.3817669 231.046912,18.3817669 M225.963513,43.1578234 C224.026114,65.1842589 206.774172,83.1918556 183.112028,83.1918556 C159.44149,83.1918556 142.012594,64.9583395 140.252149,43.1578234 C139.479288,33.5169605 141.844034,23.2467508 147.956282,16.3239363 C155.814987,7.42537984 169.792935,3.116775 183.112028,3.116775 C196.422727,3.116775 209.652993,6.72306532 218.242594,15.8236863 C224.82975,22.8103476 226.945502,31.9193879 225.963513,43.1578234 M101.500675,43.1578234 C99.7472243,64.9583395 82.3183283,83.1918556 58.6484902,83.1918556 C34.9870451,83.1918556 17.7351029,65.1842589 15.7963052,43.1578234 C14.8066231,31.9193879 16.9216751,22.8103476 23.5172243,15.8236863 C32.1068254,6.72306532 45.3370913,3.116775 58.6484902,3.116775 C71.9591896,3.116775 85.9462301,7.42537984 93.8035364,16.3239363 C99.9164844,23.2467508 102.280531,33.5169605 101.500675,43.1578234 M10.8737734,18.3817669 C10.0379642,18.3817669 9.36232254,17.7033073 9.36232254,16.8564605 C9.36232254,16.0173315 10.0379642,15.3318556 10.8737734,15.3318556 C11.7186751,15.3318556 12.3943168,16.0173315 12.3943168,16.8564605 C12.3943168,17.7033073 11.7186751,18.3817669 10.8737734,18.3817669 M5.77498728,18.3817669 C4.93847861,18.3817669 4.25444393,17.7033073 4.25444393,16.8564605 C4.25444393,16.0173315 4.93847861,15.3318556 5.77498728,15.3318556 C6.61079653,15.3318556 7.29483121,16.0173315 7.29483121,16.8564605 C7.29483121,17.7033073 6.61079653,18.3817669 5.77498728,18.3817669 M223.849161,8.09471855 C218.926629,6.07758145 199.640068,-0.659305645 186.71475,0.0991379032 L186.682577,0.0991379032 C185.492161,0.035291129 184.302444,0.0100330645 183.103635,0.0100330645 C168.763386,0.0100330645 153.031288,3.86750081 144.562687,13.4599524 C144.264733,13.7904121 143.982866,14.1377105 143.710091,14.4843073 C143.685612,14.5165815 143.653438,14.557275 143.629658,14.5895492 C143.533138,14.7347831 143.420531,14.896154 143.27575,15.0652427 C142.825323,15.557775 142.069247,16.0980169 140.32349,16.1387105 L140.114363,16.1387105 C140.058409,16.1387105 140.010149,16.1387105 139.954195,16.1302911 C139.704502,16.1302911 139.455508,16.0980169 139.205814,16.0503073 C139.157554,16.0503073 139.109294,16.0418879 139.061034,16.0257508 C135.594698,15.4525331 131.556935,12.8144685 121.165623,12.6292427 L120.586502,12.6292427 C110.219669,12.8144685 106.174213,15.4441137 102.715571,16.0173315 C102.651224,16.0334685 102.578484,16.0503073 102.506444,16.0573234 C102.273536,16.1064363 102.039929,16.1218718 101.807022,16.1302911 C101.726588,16.1302911 101.645455,16.1387105 101.565022,16.1387105 L101.436328,16.1387105 C99.7472243,16.0980169 98.9841549,15.5900492 98.5246347,15.1143556 C98.516941,15.1059363 98.516941,15.0975169 98.5008543,15.0897992 C98.3476809,14.9122911 98.235074,14.7425008 98.1224671,14.5895492 C98.0986867,14.557275 98.0665133,14.5165815 98.0427329,14.4843073 C97.7685595,14.1377105 97.4873919,13.7904121 97.1901376,13.4599524 C88.720837,3.86750081 72.9971318,0.0100330645 58.6561838,0.0100330645 C57.4587734,0.0100330645 56.2599642,0.035291129 55.0688486,0.0991379032 L55.0373746,0.0991379032 C42.1204497,-0.659305645 22.833889,6.07758145 17.9120566,8.09471855 C12.9888254,10.120275 -0.000139884393,12.7015089 -0.000139884393,12.7015089 L-0.000139884393,20.6732347 C1.76170405,21.5600734 5.30007977,24.1988395 7.2626578,27.6514766 C9.55466358,31.6857508 11.6865017,41.6661944 13.2063457,48.3462508 C13.2147387,48.3623879 13.2147387,48.3701056 13.2147387,48.3869444 C13.5602532,49.8954121 13.8735942,51.2347911 14.1477676,52.2914202 C14.1876347,52.4450734 14.2282012,52.5903073 14.2680682,52.7271218 C14.3002416,52.8239444 14.3247214,52.9214685 14.3485017,53.0091702 C14.4205422,53.2435089 14.4932821,53.4855653 14.5653225,53.7192024 C14.605889,53.8644363 14.6541491,53.9942347 14.6947156,54.1071944 C20.6621838,72.5827669 37.2140046,86.2985976 58.6561838,86.2985976 C77.7420104,86.2985976 93.0642474,75.2853798 100.358519,59.8912911 C100.399086,59.8028879 100.455039,59.6899282 100.519386,59.5446944 C101.96719,56.543896 109.447508,42.2625653 108.659259,28.716525 C108.514479,26.9905573 105.981172,27.4262589 106.076993,25.2716056 C106.174213,23.117654 109.398548,22.278525 109.398548,22.278525 C110.733745,21.7698556 115.599623,21.1489282 120.804022,21.0521056 L120.876062,21.0521056 C126.111935,21.1412105 131.017681,21.7698556 132.361271,22.278525 C132.361271,22.278525 135.587005,23.117654 135.682825,25.2716056 C135.779346,27.4262589 133.237646,26.9905573 133.101259,28.716525 C132.31301,42.2625653 139.784935,56.543896 141.232739,59.5446944 C141.297086,59.6899282 141.353739,59.8028879 141.393606,59.8912911 C148.688577,75.2853798 164.010114,86.2985976 183.103635,86.2985976 C204.545814,86.2985976 221.098334,72.5827669 227.066502,54.1071944 C227.090282,54.0503637 227.114762,53.9858153 227.130149,53.9135492 C227.274929,53.4532911 227.412016,52.9937347 227.54001,52.5257589 C227.580577,52.3959605 227.61275,52.2675653 227.645623,52.1377669 C227.902311,51.1379685 228.191872,49.9038315 228.513606,48.5237589 L228.513606,48.5076218 C230.041843,41.8352831 232.189768,31.718025 234.49786,27.6514766 C236.452045,24.1988395 239.99112,21.5600734 241.759958,20.6732347 L241.759958,12.7015089 C241.759958,12.7015089 228.770993,10.120275 223.849161,8.09471855" id="Fill-1" fill="#983328" mask="url(#mask-2)"></path>
                </g>
                <path d="M101.500815,43.8492629 C99.7473642,65.6490774 82.3184682,83.8832952 58.6479306,83.8832952 C34.9864855,83.8832952 17.7345434,65.8756984 15.7964451,43.8492629 C14.806763,32.6101258 16.921815,23.5017871 23.5173642,16.5151258 C32.1069653,7.41380323 45.3372312,3.80821452 58.6479306,3.80821452 C71.9593295,3.80821452 85.9463699,8.11611774 93.8036763,17.0153758 C99.9159249,23.9374887 102.280671,34.2084 101.500815,43.8492629" id="Fill-4" fill="#0D153C"></path>
                <path d="M218.801502,17.1379476 L159.343641,76.7820605 C152.650173,72.3057702 147.383525,65.991254 144.068265,58.6523831 L197.252312,5.3017379 C205.352317,7.11891532 212.744508,10.690125 218.241965,16.5128105 C218.437803,16.7162782 218.626647,16.9267621 218.801502,17.1379476" id="Fill-6" fill="#7FCDEE"></path>
                <path d="M197.252661,5.30166774 L144.068615,58.6523129 C141.983638,54.0567484 140.669424,49.0535468 140.249771,43.847579 C139.479708,34.2081194 141.843754,23.9365065 147.957401,17.0186032 C155.81191,8.11513548 169.792655,3.80723226 183.10965,3.80723226 C187.908384,3.80723226 192.691731,4.2773129 197.252661,5.30166774" id="Fill-8" fill="#0D153C"></path>
                <path d="M225.963793,43.8478597 C224.025695,65.8785048 206.771654,83.8825935 183.10951,83.8825935 C176.304834,83.8825935 170.01703,82.3734242 164.470614,79.7072952 L222.17992,21.8179161 C225.656047,27.9219484 226.712175,35.2608194 225.963793,43.8478597" id="Fill-10" fill="#0D153C"></path>
                <path d="M7.29469133,17.5476895 C7.29469133,18.3945363 6.61065665,19.072996 5.7748474,19.072996 C4.93833873,19.072996 4.25430405,18.3945363 4.25430405,17.5476895 C4.25430405,16.7085605 4.93833873,16.0230847 5.7748474,16.0230847 C6.61065665,16.0230847 7.29469133,16.7085605 7.29469133,17.5476895" id="Fill-12" fill="#FCDD7C"></path>
                <path d="M12.3941769,17.5476895 C12.3941769,18.3945363 11.7185353,19.072996 10.8736335,19.072996 C10.0378243,19.072996 9.36218266,18.3945363 9.36218266,17.5476895 C9.36218266,16.7085605 10.0378243,16.0230847 10.8736335,16.0230847 C11.7185353,16.0230847 12.3941769,16.7085605 12.3941769,17.5476895" id="Fill-14" fill="#FCDD7C"></path>
                <path d="M232.567316,17.5476895 C232.567316,18.3945363 231.883281,19.072996 231.046772,19.072996 C230.210963,19.072996 229.526928,18.3945363 229.526928,17.5476895 C229.526928,16.7085605 230.210963,16.0230847 231.046772,16.0230847 C231.883281,16.0230847 232.567316,16.7085605 232.567316,17.5476895" id="Fill-16" fill="#FCDD7C"></path>
                <path d="M237.666801,17.5476895 C237.666801,18.3945363 236.99046,19.072996 236.146258,19.072996 C235.309749,19.072996 234.634108,18.3945363 234.634108,17.5476895 C234.634108,16.7085605 235.309749,16.0230847 236.146258,16.0230847 C236.99046,16.0230847 237.666801,16.7085605 237.666801,17.5476895" id="Fill-18" fill="#FCDD7C"></path>
                <path d="M222.17978,21.8176355 L164.470474,79.7077161 C162.679954,78.8517484 160.96637,77.8694903 159.343711,76.7819903 L218.801572,17.1378774 C220.12348,18.6042484 221.235561,20.1681435 222.17978,21.8176355" id="Fill-20" fill="#5775B5"></path>
                <path d="M93.8638965,17.1379476 L34.4053358,76.7820605 C27.7125671,72.3057702 22.4459197,65.991254 19.1299601,58.6523831 L72.3140064,5.3017379 C80.4140121,7.11891532 87.8069023,10.690125 93.3036595,16.5128105 C93.4994977,16.7162782 93.689041,16.9267621 93.8638965,17.1379476" id="Fill-22" fill="#7FCDEE"></path>
                <path d="M97.2421046,21.8176355 L39.5320988,79.7077161 C37.742278,78.8517484 36.0279948,77.8694903 34.4053358,76.7819903 L93.8638965,17.1378774 C95.185804,18.6042484 96.2971855,20.1681435 97.2421046,21.8176355" id="Fill-24" fill="#5775B5"></path>
            </g>
        </g>
    </g>
</svg>