<?xml version="1.0" encoding="UTF-8"?>
<svg width="17px" height="15px" viewBox="0 0 17 15" version="1.1" xmlns="http://www.w3.org/2000/svg" xmlns:xlink="http://www.w3.org/1999/xlink">
    <!-- Generator: Sketch 46.1 (44463) - http://www.bohemiancoding.com/sketch -->
    <title>ismail-medium</title>
    <desc>Created with Sketch.</desc>
    <defs></defs>
    <g id="Page-1" stroke="none" stroke-width="1" fill="none" fill-rule="evenodd">
        <g id="About" transform="translate(-1347.000000, -519.000000)" fill-rule="nonzero">
            <g id="Group-2" transform="translate(1346.000000, 465.000000)">
                <g id="ismail-medium" transform="translate(1.000000, 54.000000)">
                    <path d="M11.4793814,0.0179282869 C11.3917526,-0.0239043825 11.3216495,0.0179282869 11.3216495,0.119521912 L11.3216495,12.2450199 L16.5151203,14.8984064 C16.7721649,15.0298805 16.9824742,14.8984064 16.9824742,14.5996016 L16.9824742,2.92828685 C16.9824742,2.8685259 16.9532646,2.81474104 16.9006873,2.79083665 L11.4793814,0.0179282869 Z" id="XMLID_103_" fill="#D0D2D3"></path>
                    <path d="M5.66082474,9.35258964 L11.2281787,0.0956175299 C11.280756,0.0119521912 11.3917526,-0.0239043825 11.4793814,0.0239043825 L16.8597938,2.77290837 C16.924055,2.80876494 16.9532646,2.89243028 16.9123711,2.95816733 L11.3216495,12.2450199 L5.66082474,9.35258964 Z" id="XMLID_102_" fill="#A6A8AB"></path>
                    <path d="M0.625085911,0.262948207 C0.280412371,0.0836653386 0.163573883,0.215139442 0.368041237,0.555776892 L5.66082474,9.35258964 L11.3216495,12.250996 L5.69587629,2.89840637 C5.67250859,2.85657371 5.63745704,2.82669323 5.59656357,2.80278884 L0.625085911,0.262948207 Z" id="XMLID_101_" fill="#808184"></path>
                    <path d="M5.66082474,14.6055777 C5.66082474,14.8984064 5.45051546,15.0358566 5.19347079,14.9043825 L0.315463918,12.4063745 C0.140206186,12.3167331 0,12.0836653 0,11.8864542 L0,0.298804781 C0,0.101593625 0.140206186,0.0119521912 0.315463918,0.101593625 L5.59072165,2.80278884 C5.63161512,2.82669323 5.66082474,2.8685259 5.66082474,2.91633466 L5.66082474,14.6055777 Z" id="XMLID_100_" fill="#58595B"></path>
                </g>
            </g>
        </g>
    </g>
</svg>