<?xml version="1.0" encoding="UTF-8"?>
<svg width="20px" height="20px" viewBox="0 0 20 20" version="1.1" xmlns="http://www.w3.org/2000/svg" xmlns:xlink="http://www.w3.org/1999/xlink">
    <!-- Generator: Sketch 46.1 (44463) - http://www.bohemiancoding.com/sketch -->
    <title>ismail-dribbble</title>
    <desc>Created with Sketch.</desc>
    <defs></defs>
    <g id="Page-1" stroke="none" stroke-width="1" fill="none" fill-rule="evenodd">
        <g id="About" transform="translate(-1346.000000, -465.000000)" fill="#A6A8AB">
            <g id="Group-2" transform="translate(1346.000000, 465.000000)">
                <g id="dribbble-ball-mark">
                    <path d="M9.98944083,19.9930299 C4.48283485,19.9930299 0.00291287386,15.5131079 0.00291287386,10.006502 C0.00291287386,4.49989597 4.48283485,0.0199739922 9.98944083,0.0199739922 C15.4960208,0.0199739922 19.9759688,4.49989597 19.9759688,10.006502 C19.9759688,15.5131079 15.4960208,19.9930299 9.98944083,19.9930299 Z M18.4115995,11.3735241 C18.1197659,11.2814044 15.7713394,10.5809883 13.0983355,11.0088687 C14.2140182,14.0747464 14.6680364,16.5718075 14.7554486,17.0906892 C16.6691027,15.796723 18.0313914,13.7469701 18.4115995,11.3735241 Z M13.3214304,17.8716255 C13.1945644,17.123251 12.6992978,14.5150325 11.5017425,11.4029909 C11.4829649,11.4093888 11.4642393,11.4154746 11.4454616,11.4220026 C6.63422627,13.0985176 4.90712614,16.4350585 4.75362809,16.7488687 C6.19992198,17.876697 8.01750325,18.5495449 9.98944083,18.5495449 C11.1710533,18.5495449 12.2972692,18.3078804 13.3214304,17.8716255 Z M3.65227568,15.7229649 C3.84548765,15.3921977 6.18652796,11.5160208 10.5857997,10.0940182 C10.6969831,10.0580754 10.8091027,10.0242913 10.9219246,9.99250975 C10.7078023,9.50795839 10.4745644,9.02283485 10.2303771,8.54494148 C5.97055917,9.81979194 1.83695709,9.76652796 1.46374512,9.75885566 C1.46111834,9.84546164 1.45940182,9.93227568 1.45940182,10.0195059 C1.45940182,12.2103771 2.28990897,14.2107152 3.65227568,15.7229649 Z M1.63958388,8.27245774 C2.02109233,8.27747724 5.53544863,8.29274382 9.52548765,7.23315995 C8.11211964,4.72070221 6.58780234,2.6083485 6.36291287,2.29994798 C3.97651495,3.42556567 2.19269181,5.62551365 1.63958388,8.27245774 Z M7.99050715,1.72660598 C8.22629389,2.04228869 9.77552666,4.15204161 11.173316,6.72018205 C14.2064759,5.58330299 15.4905332,3.85742523 15.6439532,3.63890767 C14.1375813,2.30244473 12.156827,1.48946684 9.98944083,1.48946684 C9.30119636,1.48946684 8.63196359,1.57196359 7.99050715,1.72660598 Z M16.5922237,4.62530559 C16.4124057,4.86855657 14.9829909,6.70096229 11.8291287,7.98860858 C12.0276203,8.39492848 12.2178934,8.80816645 12.3950585,9.22413524 C12.4578414,9.37157347 12.5189857,9.51830949 12.5788036,9.6643433 C15.4170871,9.30746424 18.2372172,9.87942783 18.5184395,9.93890767 C18.4996879,7.92559168 17.7802341,6.07682705 16.5922237,4.62530559 Z" id="ismail-dribbble"></path>
                </g>
            </g>
        </g>
    </g>
</svg>