<?xml version="1.0" encoding="UTF-8"?>
<svg width="18px" height="18px" viewBox="0 0 18 18" version="1.1" xmlns="http://www.w3.org/2000/svg" xmlns:xlink="http://www.w3.org/1999/xlink">
    <!-- Generator: Sketch 46.1 (44463) - http://www.bohemiancoding.com/sketch -->
    <title>ismail-instagram</title>
    <desc>Created with Sketch.</desc>
    <defs></defs>
    <g id="Page-1" stroke="none" stroke-width="1" fill="none" fill-rule="evenodd">
        <g id="About" transform="translate(-1347.000000, -493.000000)" fill-rule="nonzero" fill="#A6A8AB">
            <g id="Group-2" transform="translate(1346.000000, 465.000000)">
                <g id="ismail-instagram" transform="translate(1.000000, 28.000000)">
                    <path d="M6.00048,9 C6.00048,7.343208 7.343208,5.99976 9,5.99976 C10.656792,5.99976 12.00024,7.343208 12.00024,9 C12.00024,10.656792 10.656792,12.00024 9,12.00024 C7.343208,12.00024 6.00048,10.656792 6.00048,9 M4.378608,9 C4.378608,11.5524 6.4476,13.621392 9,13.621392 C11.5524,13.621392 13.621392,11.5524 13.621392,9 C13.621392,6.4476 11.5524,4.378608 9,4.378608 C6.4476,4.378608 4.378608,6.4476 4.378608,9 M12.724344,4.195368 C12.7241055,4.79183546 13.2074445,5.27556126 13.8039119,5.27579983 C14.4003794,5.2760384 14.8841052,4.7926994 14.8843438,4.19623194 C14.8845824,3.59976448 14.4012435,3.11603863 13.804776,3.1158 L13.804344,3.1158 C13.2081603,3.11607787 12.7248604,3.59918442 12.724344,4.195368 M5.364,16.325784 C4.486536,16.285824 4.009608,16.139664 3.692664,16.016184 C3.272472,15.8526 2.972664,15.657768 2.657448,15.342984 C2.342232,15.0282 2.147112,14.72868 1.984248,14.308488 C1.860696,13.991688 1.714536,13.514616 1.674648,12.637152 C1.631016,11.68848 1.622304,11.403504 1.622304,9.000072 C1.622304,6.59664 1.631736,6.312456 1.674648,5.362992 C1.714608,4.485528 1.861848,4.009392 1.984248,3.691656 C2.147832,3.271464 2.342664,2.971656 2.657448,2.65644 C2.972232,2.341224 3.271752,2.146104 3.692664,1.98324 C4.009464,1.859688 4.486536,1.713528 5.364,1.67364 C6.312672,1.630008 6.597648,1.621296 9,1.621296 C11.402352,1.621296 11.687616,1.630728 12.63708,1.67364 C13.514544,1.7136 13.99068,1.86084 14.308416,1.98324 C14.728608,2.146104 15.028416,2.341656 15.343632,2.65644 C15.658848,2.971224 15.853248,3.271464 16.016832,3.691656 C16.140384,4.008456 16.286544,4.485528 16.326432,5.362992 C16.370064,6.312456 16.378776,6.59664 16.378776,9.000072 C16.378776,11.403504 16.370064,11.687688 16.326432,12.637152 C16.286472,13.514616 16.139592,13.991544 16.016832,14.308488 C15.853248,14.72868 15.658416,15.028488 15.343632,15.342984 C15.028848,15.65748 14.728608,15.8526 14.308416,16.016184 C13.991616,16.139736 13.514544,16.285896 12.63708,16.325784 C11.688408,16.369416 11.403432,16.378128 9,16.378128 C6.596568,16.378128 6.312384,16.369416 5.364,16.325784 M5.28948,0.054504 C4.331376,0.098136 3.67668,0.250056 3.104928,0.472536 C2.5128,0.702288 2.011536,1.01052 1.510632,1.510632 C1.009728,2.010744 0.702288,2.5128 0.472536,3.104928 C0.250056,3.67704 0.098136,4.331376 0.054504,5.28948 C0.010152,6.249096 0,6.555888 0,9 C0,11.444112 0.010152,11.750904 0.054504,12.71052 C0.098136,13.668696 0.250056,14.32296 0.472536,14.895072 C0.702288,15.48684 1.0098,15.989472 1.510632,16.489368 C2.011464,16.989264 2.5128,17.297064 3.104928,17.527464 C3.67776,17.749944 4.331376,17.901864 5.28948,17.945496 C6.2496,17.989128 6.555888,18 9,18 C11.444112,18 11.750904,17.989848 12.71052,17.945496 C13.668696,17.901864 14.32296,17.749944 14.895072,17.527464 C15.48684,17.297064 15.988464,16.98948 16.489368,16.489368 C16.990272,15.989256 17.297064,15.48684 17.527464,14.895072 C17.749944,14.32296 17.902584,13.668624 17.945496,12.71052 C17.989128,11.750184 17.99928,11.444112 17.99928,9 C17.99928,6.555888 17.989128,6.249096 17.945496,5.28948 C17.901864,4.331304 17.749944,3.67668 17.527464,3.104928 C17.297064,2.51316 16.98948,2.011536 16.489368,1.510632 C15.989256,1.009728 15.48684,0.702288 14.895792,0.472536 C14.32296,0.250056 13.668624,0.097416 12.71124,0.054504 C11.751624,0.010872 11.444832,0 9.00072,0 C6.556608,0 6.2496,0.010152 5.28948,0.054504" id="Shape"></path>
                    <path d="M6.00048,9 C6.00048,7.343208 7.343208,5.99976 9,5.99976 C10.656792,5.99976 12.00024,7.343208 12.00024,9 C12.00024,10.656792 10.656792,12.00024 9,12.00024 C7.343208,12.00024 6.00048,10.656792 6.00048,9 M4.378608,9 C4.378608,11.5524 6.4476,13.621392 9,13.621392 C11.5524,13.621392 13.621392,11.5524 13.621392,9 C13.621392,6.4476 11.5524,4.378608 9,4.378608 C6.4476,4.378608 4.378608,6.4476 4.378608,9 M12.724344,4.195368 C12.7241055,4.79183546 13.2074445,5.27556126 13.8039119,5.27579983 C14.4003794,5.2760384 14.8841052,4.7926994 14.8843438,4.19623194 C14.8845824,3.59976448 14.4012435,3.11603863 13.804776,3.1158 L13.804344,3.1158 C13.2081603,3.11607787 12.7248604,3.59918442 12.724344,4.195368 M5.364,16.325784 C4.486536,16.285824 4.009608,16.139664 3.692664,16.016184 C3.272472,15.8526 2.972664,15.657768 2.657448,15.342984 C2.342232,15.0282 2.147112,14.72868 1.984248,14.308488 C1.860696,13.991688 1.714536,13.514616 1.674648,12.637152 C1.631016,11.68848 1.622304,11.403504 1.622304,9.000072 C1.622304,6.59664 1.631736,6.312456 1.674648,5.362992 C1.714608,4.485528 1.861848,4.009392 1.984248,3.691656 C2.147832,3.271464 2.342664,2.971656 2.657448,2.65644 C2.972232,2.341224 3.271752,2.146104 3.692664,1.98324 C4.009464,1.859688 4.486536,1.713528 5.364,1.67364 C6.312672,1.630008 6.597648,1.621296 9,1.621296 C11.402352,1.621296 11.687616,1.630728 12.63708,1.67364 C13.514544,1.7136 13.99068,1.86084 14.308416,1.98324 C14.728608,2.146104 15.028416,2.341656 15.343632,2.65644 C15.658848,2.971224 15.853248,3.271464 16.016832,3.691656 C16.140384,4.008456 16.286544,4.485528 16.326432,5.362992 C16.370064,6.312456 16.378776,6.59664 16.378776,9.000072 C16.378776,11.403504 16.370064,11.687688 16.326432,12.637152 C16.286472,13.514616 16.139592,13.991544 16.016832,14.308488 C15.853248,14.72868 15.658416,15.028488 15.343632,15.342984 C15.028848,15.65748 14.728608,15.8526 14.308416,16.016184 C13.991616,16.139736 13.514544,16.285896 12.63708,16.325784 C11.688408,16.369416 11.403432,16.378128 9,16.378128 C6.596568,16.378128 6.312384,16.369416 5.364,16.325784 M5.28948,0.054504 C4.331376,0.098136 3.67668,0.250056 3.104928,0.472536 C2.5128,0.702288 2.011536,1.01052 1.510632,1.510632 C1.009728,2.010744 0.702288,2.5128 0.472536,3.104928 C0.250056,3.67704 0.098136,4.331376 0.054504,5.28948 C0.010152,6.249096 0,6.555888 0,9 C0,11.444112 0.010152,11.750904 0.054504,12.71052 C0.098136,13.668696 0.250056,14.32296 0.472536,14.895072 C0.702288,15.48684 1.0098,15.989472 1.510632,16.489368 C2.011464,16.989264 2.5128,17.297064 3.104928,17.527464 C3.67776,17.749944 4.331376,17.901864 5.28948,17.945496 C6.2496,17.989128 6.555888,18 9,18 C11.444112,18 11.750904,17.989848 12.71052,17.945496 C13.668696,17.901864 14.32296,17.749944 14.895072,17.527464 C15.48684,17.297064 15.988464,16.98948 16.489368,16.489368 C16.990272,15.989256 17.297064,15.48684 17.527464,14.895072 C17.749944,14.32296 17.902584,13.668624 17.945496,12.71052 C17.989128,11.750184 17.99928,11.444112 17.99928,9 C17.99928,6.555888 17.989128,6.249096 17.945496,5.28948 C17.901864,4.331304 17.749944,3.67668 17.527464,3.104928 C17.297064,2.51316 16.98948,2.011536 16.489368,1.510632 C15.989256,1.009728 15.48684,0.702288 14.895792,0.472536 C14.32296,0.250056 13.668624,0.097416 12.71124,0.054504 C11.751624,0.010872 11.444832,0 9.00072,0 C6.556608,0 6.2496,0.010152 5.28948,0.054504" id="Shape"></path>
                </g>
            </g>
        </g>
    </g>
</svg>