<?xml version="1.0" encoding="UTF-8"?>
<svg width="19px" height="18px" viewBox="0 0 19 18" version="1.1" xmlns="http://www.w3.org/2000/svg" xmlns:xlink="http://www.w3.org/1999/xlink">
    <!-- Generator: Sketch 46.1 (44463) - http://www.bohemiancoding.com/sketch -->
    <title>ismail-linkedin</title>
    <desc>Created with Sketch.</desc>
    <defs></defs>
    <g id="Page-1" stroke="none" stroke-width="1" fill="none" fill-rule="evenodd">
        <g id="About" transform="translate(-1347.000000, -542.000000)" fill-rule="nonzero" fill="#A6A8AB">
            <g id="Group-2" transform="translate(1346.000000, 465.000000)">
                <g id="ismail-linkedin" transform="translate(1.000000, 77.000000)">
                    <path d="M0,2.09090909 C0,1.48483636 0.213970077,0.984836364 0.641891892,0.590909091 C1.06981371,0.196963636 1.62613224,0 2.31081081,0 C2.9832751,0 3.52734266,0.193927273 3.94305019,0.581818182 C4.37097201,0.981818182 4.58494208,1.50301818 4.58494208,2.14545455 C4.58494208,2.72727273 4.37709749,3.21210909 3.96138996,3.6 C3.53346815,4 2.97104247,4.2 2.27413127,4.2 L2.25579151,4.2 C1.58332722,4.2 1.03925965,4 0.623552124,3.6 C0.207844595,3.2 0,2.69696364 0,2.09090909 Z M0.238416988,18 L0.238416988,5.85454545 L4.30984556,5.85454545 L4.30984556,18 L0.238416988,18 Z M6.56563707,18 L10.6370656,18 L10.6370656,11.2181818 C10.6370656,10.7939273 10.6859778,10.4666545 10.7837838,10.2363636 C10.9549488,9.82423636 11.2147683,9.47574545 11.5632239,9.19090909 C11.9116795,8.90605455 12.3487712,8.76363636 12.8745174,8.76363636 C14.2438929,8.76363636 14.9285714,9.67878182 14.9285714,11.5090909 L14.9285714,18 L19,18 L19,11.0363636 C19,9.24241818 18.5720782,7.88181818 17.7162162,6.95454545 C16.8603542,6.02727273 15.7294141,5.56363636 14.3233591,5.56363636 C12.746139,5.56363636 11.5173745,6.23636364 10.6370656,7.58181818 L10.6370656,7.61818182 L10.6187259,7.61818182 L10.6370656,7.58181818 L10.6370656,5.85454545 L6.56563707,5.85454545 C6.59008398,6.24241818 6.6023166,7.44847273 6.6023166,9.47272727 C6.6023166,11.4969636 6.59008398,14.3393818 6.56563707,18 Z" id="Shape"></path>
                </g>
            </g>
        </g>
    </g>
</svg>