<?xml version="1.0" encoding="UTF-8"?>
<svg width="1440px" height="1024px" viewBox="0 0 1440 1024" version="1.1" xmlns="http://www.w3.org/2000/svg" xmlns:xlink="http://www.w3.org/1999/xlink">
    <!-- Generator: Sketch 46.1 (44463) - http://www.bohemiancoding.com/sketch -->
    <title>Group 3</title>
    <desc>Created with Sketch.</desc>
    <defs></defs>
    <g id="Page-1" stroke="none" stroke-width="1" fill="none" fill-rule="evenodd">
        <g id="Desktop-HD-Copy-11">
            <g id="Group-3" transform="translate(-319.000000, -345.000000)">
                <g id="self-Portrair-06">
                    <path d="M647.202254,733.327769 C644.195996,736.518998 640.913802,756 630.384639,756 C624.473785,756 619.724769,752.997344 621.307774,744.177947 C621.307774,743.800802 621.48205,743.394646 621.569188,742.988489 C628.00287,716.356233 627.378381,689.216282 629.585875,670.779682 C633.303758,673.680799 644.588117,678.685226 644.588117,684.647022 C644.611636,684.707685 644.611636,684.774932 644.588117,684.835595 C644.603748,685.019 644.603748,685.203401 644.588117,685.386807 C643.135818,693.88708 638.125389,694.220709 632.96973,701.023829 C627.814071,707.826949 630.268455,724.073205 632.96973,725.43673 C635.671005,726.800255 639.403411,724.667934 645.28522,718.793172 C696.711104,671.200344 697.56796,606.244329 675.289703,598.483841 C657.586187,592.289956 641.305922,626.668195 635.336976,643.842808 C635.200466,643.210451 635.000993,642.593311 634.741534,642.000599 C636.193832,638.272663 637.747791,622.563114 641.494721,613.598661 C645.241651,604.634209 651.965792,594.161176 656.438871,583.702649 C657.252158,581.787911 658.123537,579.960207 659.053008,578.248548 C666.70662,573.360166 674.215003,570.183442 679.152817,571.184328 C698.860505,575.028308 722.852474,667.602958 647.202254,733.327769 Z" id="Shape" fill="#88583B" fill-rule="nonzero"></path>
                    <path d="M645.254925,718.963211 C639.391628,724.834775 635.699922,726.965936 632.978194,725.603153 C630.256466,724.24037 627.925625,707.988459 632.978194,701.20354 C638.030764,694.418621 643.112288,694.070676 644.560016,685.575029 C644.575598,685.391723 644.575598,685.207423 644.560016,685.024117 C644.583461,684.963487 644.583461,684.896277 644.560016,684.835647 C644.96538,679.036571 638.508514,676.455982 634.816809,673.614435 C633.580004,672.895968 632.675145,671.719035 632.297762,670.337957 C631.602853,665.597212 632.978194,652.940728 632.978194,652.940728 C633.431845,649.902767 634.228368,646.926186 635.352468,644.068141 C641.288151,626.902876 657.517179,592.557847 675.179456,598.733863 C697.358644,606.461132 696.518962,671.38179 645.254925,718.963211 Z" id="Shape" fill="#66422C" fill-rule="nonzero"></path>
                    <path d="M351.271628,1355.66522 C354.275535,1355.66522 421.856186,1356.24605 423.394419,1355.66522 L351.271628,1355.66522 Z M351.271628,1355.66522 C354.275535,1355.66522 421.856186,1356.24605 423.394419,1355.66522 L351.271628,1355.66522 Z M351.271628,1355.66522 C354.275535,1355.66522 421.856186,1356.24605 423.394419,1355.66522 L351.271628,1355.66522 Z M351.271628,1355.66522 C354.275535,1355.66522 421.856186,1356.24605 423.394419,1355.66522 L351.271628,1355.66522 Z M574.663628,1129.72181 L574.663628,1129.72181 C574.286326,1123.34719 540.749953,1020.81593 540.749953,951 L227.806698,951 C240.867163,1000.96602 197.898233,1113.38593 194.705674,1127.86315 L194.705674,1127.86315 C193.123907,1134.99286 191.484093,1141.07707 190.12,1145.72372 C189.559231,1147.55858 189.227777,1149.45589 189.133209,1151.3723 C189.0012,1152.81312 189.164146,1154.26574 189.612093,1155.64141 L187,1164.84759 L193.77693,1439 C193.77693,1439 311.146977,1305.98962 326.674419,1292.18035 C347.324465,1273.79704 371.660465,1269.10682 379.482233,1268.04681 L379.482233,1268.04681 C381.804093,1267.87256 383.835721,1267.77091 385.446512,1267.77091 C387.057302,1267.77091 389.379163,1267.91612 391.976744,1268.14845 C400.466047,1269.39724 424.03293,1274.31978 444.073488,1292.16583 C444.494326,1292.52885 444.958698,1292.97899 445.524651,1293.51626 C465.724837,1312.90151 577,1438.9274 577,1438.9274 C576.056744,1426.23623 574.997395,1136.05288 574.663628,1129.72181 Z M351.271628,1355.66522 C354.275535,1355.66522 421.856186,1356.24605 423.394419,1355.66522 L351.271628,1355.66522 Z" id="Shape" fill="#66422C" fill-rule="nonzero"></path>
                    <path d="M572.530164,1471 L451.950876,1335.48536 C447.040292,1330.24701 441.705345,1325.41979 436,1321.05253 C440.213714,1308.73962 444.252464,1296.90587 445.914621,1293 C466.181273,1312.38413 577.983205,1438.40272 577.983205,1438.40272 C578.216491,1441.66971 576.000281,1454.06974 572.530164,1471 Z" id="Shape" fill="#57784C" fill-rule="nonzero"></path>
                    <path d="M337,1321.49289 C335.005822,1323.2395 333.026164,1325.1171 331.061028,1327.1257 L200.882819,1467 C196.744415,1449.81045 194,1438.16639 194,1438.16639 C194,1438.16639 311.443542,1304.84188 326.980707,1291 C326.661251,1292.32451 331.496649,1306.71948 337,1321.49289 Z" id="Shape" fill="#57784C" fill-rule="nonzero"></path>
                    <path d="M382,1266.36038 C382,1266.36038 381.10047,1266.36038 379.504528,1266.6499 L379.504528,1266.6499 C371.742451,1267.70662 347.339059,1272.44018 326.707892,1290.70852 C311.169229,1304.47492 193.809518,1437 193.809518,1437 C187.570839,1381.65938 170.450743,1276.63813 187.034022,1163.69868 C187.701416,1159.23051 188.407499,1154.75269 189.152272,1150.26522 C189.47146,1148.38338 189.805157,1146.51602 190.138853,1144.63417 C191.251176,1138.47717 192.474731,1132.30087 193.809518,1126.10527 C193.809518,1125.83023 194.157723,1126.10527 194.723557,1126.80011 L194.723557,1126.80011 C198.873004,1131.98241 217.50199,1161.09305 268.818753,1197.5284 C320.991521,1234.70201 380.563653,1263.29153 382,1266.36038 Z" id="Shape" fill="#FFFFFF" fill-rule="nonzero"></path>
                    <path d="M577.190386,1437 C577.190386,1437 465.94741,1311.32462 445.782082,1291.99329 C445.2308,1291.45751 444.752055,1291.00862 444.331339,1290.64661 C424.311085,1272.8502 400.809048,1267.92687 392.249664,1266.69603 C390.160594,1266.39194 389,1266.30506 389,1266.30506 C390.450743,1263.2497 449.931207,1234.63643 502.157956,1197.55213 C549.016956,1164.24721 568.601987,1137.08198 574.79666,1128.66887 L574.79666,1128.66887 C576.348955,1126.58369 577.045311,1125.67143 577.132356,1126.10584 C604.49337,1252.88173 584.11043,1375.61759 577.190386,1437 Z" id="Shape" fill="#FFFFFF" fill-rule="nonzero"></path>
                    <path d="M351,1355 L423,1355 C421.464386,1355.78 353.998793,1355 351,1355 Z" id="Shape" stroke="#000000" stroke-width="0.5"></path>
                    <path d="M351,1355 L423,1355 C421.464386,1355.78 353.998793,1355 351,1355 Z" id="Shape" stroke="#000000" stroke-width="0.5"></path>
                    <path d="M423,1355 C421.449899,1355.8 353.998793,1355 351,1355 L423,1355 Z" id="Shape" stroke="#000000" stroke-width="0.5"></path>
                    <path d="M446,1292.85919 C444.343817,1296.78255 440.305054,1308.66932 436.121012,1321.03739 C404.333913,1296.60753 367.985047,1294.78441 337.040568,1322 C331.534485,1307.19623 326.682158,1292.83002 327.0163,1291.51737 C347.689537,1273.05277 372.052866,1268.34182 379.883417,1267.27711 L379.883417,1267.27711 C382.207885,1267.10209 384.241794,1267 385.854394,1267 C387.466993,1267 389.791461,1267.14585 392.391959,1267.37921 C400.890795,1268.63352 424.484144,1273.57783 444.547208,1291.50278 C444.968517,1291.86741 445.433411,1292.31954 446,1292.85919 Z" id="Shape" stroke="#000000" stroke-width="0.5" fill="#000000" fill-rule="nonzero"></path>
                    <path d="M352,1355.31637 L352,1470.9978 C304.707912,1473.17029 235.588706,1478.49216 204.114002,1481 C203.008095,1476.30509 201.974945,1471.85805 201,1467.76094 L201,1467.76094 L331.453407,1327.64264 C333.393595,1325.64026 335.377437,1323.75938 337.404934,1322 C343.501976,1338.44677 350.428448,1355.31637 352,1355.31637 Z" id="Shape" fill="#FFFFFF" fill-rule="nonzero"></path>
                    <path d="M571,1471.21091 C570.371919,1474.33333 569.695524,1477.59636 568.970816,1481 C541.881207,1478.81818 472.628048,1473.39273 423,1470.90545 L423,1355.15273 C423.811674,1354.84727 429.681814,1337.49455 435.26207,1321 C440.933704,1325.37493 446.237127,1330.21063 451.118696,1335.45818 L571,1471.21091 Z" id="Shape" fill="#FFFFFF" fill-rule="nonzero"></path>
                    <path d="M423,1355 L423,1470 C407.296177,1469.2052 393.577062,1468.72832 383.75493,1468.72832 C375.323541,1468.72832 363.965795,1469.0896 351,1469.69653 L351,1355 C353.998793,1355 421.464386,1355.56358 423,1355 Z" id="Shape" fill="#B52D3A" fill-rule="nonzero"></path>
                    <path d="M436,1320.84114 C430.408011,1337.33864 424.511004,1354.69449 423.712148,1355 L351.524648,1355 C349.955986,1355 343.042254,1338.16788 337,1321.78676 C367.879401,1294.65461 404.22007,1296.47312 436,1320.84114 Z" id="Shape" fill="#B52D3A" fill-rule="nonzero"></path>
                    <path d="M381.008834,1039.71105 C452.358076,1039.71105 437.992457,1027.37244 497.805672,988.193744 C568.908232,941.597366 630.622352,821.666127 630.622352,681.223772 C630.622352,615.059818 658.120178,510.602641 645.844104,436.817784 C627.125267,324.24616 547.853168,252 388.539901,252 C250.122081,252 169.42793,349.257238 143.772966,458.519213 C120.555803,557.445792 145.920553,668.710975 146.471961,681.238288 C149.707853,755.168305 158.283692,907.687977 269.813137,988.20826 C351.421463,1047.0126 328.857283,1039.71105 381.008834,1039.71105 Z" id="Shape" fill="#88583B" fill-rule="nonzero"></path>
                    <path d="M475,858.40692 C474.96035,858.733974 474.835594,859.044756 474.638302,859.307958 C467.954114,868.027682 439.799503,900 387.005993,900 C334.212482,900 311.555689,867.678893 306.231487,858.770242 C306.090798,858.537255 306.011159,858.272266 306,858 C312.119938,858 322.78281,861.618685 344.065149,861.618685 C348.796165,861.618685 359.516908,859.438754 369.485318,859.438754 C375.084041,859.614814 380.612293,860.745084 385.83409,862.781315 C386.606311,863.025585 387.43461,863.025585 388.206832,862.781315 C391.201695,861.880277 398.001627,859.598616 404.685815,859.598616 C412.455098,859.598616 424.79625,863.15917 432.276175,863.15917 C446.638616,862.994143 460.949578,861.402308 475,858.40692 Z" id="Shape" fill="#60372D" fill-rule="nonzero"></path>
                    <path d="M474.999994,858.231619 C460.948114,861.22537 446.634095,862.822615 432.267233,863 C424.788277,863 412.448722,859.459839 404.680444,859.459839 C397.997122,859.459839 391.19807,861.728432 388.203594,862.624309 C387.431473,862.86718 386.603281,862.86718 385.83116,862.624309 C380.610039,860.59974 375.082503,859.475944 369.484504,859.300892 C359.517385,859.300892 348.798029,861.468338 344.067626,861.468338 C322.788042,861.468338 312.126551,857.870378 306.007404,857.870378 C305.929906,857.034461 306.46803,856.264839 307.280418,856.049724 C318.723077,853.058649 329.312238,829 366.215173,829 C375.892972,829 383.675716,833.580535 387.798545,833.580535 C391.386129,833.580535 397.924791,829 411.436097,829 C447.789322,829 464.107046,852.784105 473.813776,856.541011 C474.527135,856.797517 475.002007,857.474311 474.999994,858.231619 L474.999994,858.231619 Z" id="Shape" fill="#4F3328" fill-rule="nonzero"></path>
                    <path d="M408.263369,787.858082 C406.793696,787.286085 411.658313,778.544803 418.286537,777.591475 C429.647108,775.963485 438.861956,777.723474 439.949514,782.534113 C441.242826,788.562078 417.28716,783.238109 414.083273,785.262097 C410.879387,787.286085 409.747739,788.415412 408.263369,787.858082 Z" id="Shape" fill="#000000" fill-rule="nonzero"></path>
                    <path d="M374.736631,787.858082 C376.206304,787.286085 371.341687,778.544803 364.713463,777.591475 C353.352892,775.963485 344.138044,777.723474 343.050486,782.534113 C341.757174,788.562078 365.71284,783.238109 368.916727,785.262097 C372.120613,787.286085 373.266958,788.415412 374.736631,787.858082 Z" id="Shape" fill="#000000" fill-rule="nonzero"></path>
                    <path d="M599,585.511392 L595.392316,587.768912 C594.456594,588.354681 593.258565,588.314604 592.36418,587.667613 C586.568704,583.45647 564.241634,568.319507 544.290709,568.319507 C517.617031,568.319507 468.022247,590.880238 468.022247,590.880238 C468.022247,590.880238 447.738082,592.920689 444,580.157017 C444,580.157017 476.512619,559 536.727613,559 C566.661245,559 599,585.511392 599,585.511392 Z" id="Shape" fill="#000000" fill-rule="nonzero"></path>
                    <path d="M173,585.511392 L176.607684,587.768912 C177.543406,588.354681 178.741435,588.314604 179.63582,587.667613 C185.431296,583.45647 207.758366,568.319507 227.709291,568.319507 C254.382969,568.319507 303.977753,590.880238 303.977753,590.880238 C303.977753,590.880238 324.261918,592.920689 328,580.157017 C328,580.157017 295.487381,559 235.272387,559 C205.39671,559 173,585.511392 173,585.511392 Z" id="Shape" fill="#000000" fill-rule="nonzero"></path>
                    <path d="M145.955135,681 C145.955135,651.132284 123.533953,627.301969 110.409005,603.428114 C97.2840565,579.55426 64.7544886,555.433685 52.5722162,525.565969 C40.3899438,495.698254 -6.7873564,360.117981 0.826563863,331.251661 C8.44048412,302.385341 14.5316203,238.876535 16.0399017,218.805082 C17.548183,198.733628 3.85762926,175.469319 17.4901722,160.448383 C31.1227151,145.427448 48.598475,114.006843 72.905009,77.1728961 C97.211543,40.3389494 121.257028,28.0464541 143.199621,24.3021049 C165.142214,20.5577557 342.959884,-1.96639139 365.946671,1.64734098 C388.933459,5.26107334 412.485853,7.06068304 422.782773,2.37299005 C433.079694,-2.31470294 513.743741,0.762049111 539.616567,4.54993725 C565.489393,8.3378254 617.699132,17.3794128 635.725995,24.2875919 C653.752857,31.1957711 719.073042,65.3448163 735.51911,87.5496778 C756.59154,115.995121 773.632219,214.204466 778.200571,237.599392 C782.768923,260.994318 783.523064,323.327574 778.780679,353.790322 C774.038295,384.253069 743.756646,421.667535 743.756646,456.310022 C743.756646,480.662805 698.276162,524.941911 698.276162,546.464662 C698.276162,574.561794 652.360598,584.198414 644.268088,611.773079 C636.175579,639.347743 629.765383,680.941948 629.765383,680.941948 C629.765383,680.941948 639.699736,400.31894 623.964301,391.466021 C608.228866,382.613103 454.427676,394.833033 431.382878,384.557842 C408.338079,374.282651 398.766293,409.462118 398.766293,409.462118 C383.552956,387.692646 244.210964,385.689855 221.224176,378.738137 C190.768495,369.551419 176.048249,374.021418 164.881166,402.307218 C153.714083,430.593019 157.760337,454.176614 145.157487,488.296633 C132.554636,522.416652 160.660879,560.86154 153.85911,574.619846 C147.057341,588.378153 145.955135,681 145.955135,681 Z" id="Shape" fill="#100803" fill-rule="nonzero"></path>
                    <path d="M339,611 C338.592593,610.647887 338.296296,610.309859 338,610 C338.37037,610.338028 338.740741,610.661972 339,611 Z" id="Shape"></path>
                    <path d="M598.8266,596.680006 C588.677856,592.528088 548.64831,578.625672 521.855626,580.188066 L521.855626,580.188066 C519.390931,580.057866 516.926236,580 514.432544,580 C484.711222,580 452.090259,587.956638 434.54743,607.732499 C433.924007,608.41243 433.344079,609.179161 432.778649,609.844625 L432.619169,610.061624 C432.393224,610.404406 432.146285,610.732941 431.87976,611.045354 C430.951875,612.058017 429.386069,613.171946 425.761518,613.258746 L424.993113,613.258746 C424.472105,613.255226 423.952632,613.201939 423.441805,613.099613 C423.340988,613.11608 423.238159,613.11608 423.137342,613.099613 C415.888239,611.913351 407.580767,606.473904 386.036434,606.097772 L384.833083,606.097772 C363.346742,606.473904 354.95228,611.884418 347.790167,613.085146 L347.355221,613.171946 C346.87694,613.261156 346.391913,613.309553 345.9054,613.316612 L345.136995,613.316612 C341.642927,613.229813 340.048125,612.188216 339.105741,611.204487 C339.105741,611.204487 339.105741,611.204487 339.105741,611.204487 C338.786781,610.842821 338.55481,610.495623 338.322838,610.177357 L338.163358,609.960358 C337.597928,609.251494 337.018,608.513696 336.394577,607.848232 C318.83725,588.072371 286.245283,580.115733 256.523961,580.115733 C254.044768,580.115733 251.551077,580.115733 249.086382,580.303799 L249.086382,580.303799 C222.308195,578.741405 182.394635,592.629354 172.129905,596.795739 C161.865175,600.962124 135,606.300304 135,606.300304 L135,622.734378 C141.101588,626.138425 146.223862,631.050274 149.875159,636.99846 C154.630571,645.316763 159.038025,665.931688 162.198634,679.674971 C162.207538,679.703222 162.207538,679.73352 162.198634,679.761771 C162.909046,682.872093 163.561465,685.635216 164.126895,687.819675 C164.213885,688.137941 164.296041,688.436917 164.373365,688.716605 C164.373365,688.919138 164.489351,689.12167 164.547343,689.29527 L164.996788,690.741931 C165.083777,691.04573 165.185264,691.306129 165.257756,691.537595 C177.624725,729.62819 211.941978,757.91042 256.393477,757.91042 C293.382078,758.202945 327.151723,736.967024 342.846279,703.544885 L343.179737,702.83602 C346.180866,696.64431 361.679448,667.20475 360.055649,639.269718 C359.751186,635.710931 354.502836,636.607861 354.705811,632.16661 C354.908786,627.72536 361.592459,625.989366 361.592459,625.989366 C364.361616,624.94777 374.452367,623.660241 385.239032,623.457709 L385.384014,623.457709 C396.243171,623.645775 406.406413,624.90437 409.190068,625.989366 C409.190068,625.989366 415.873741,627.72536 416.076716,632.16661 C416.279691,636.607861 411.002344,635.710931 410.726878,639.269718 C409.088581,667.20475 424.587163,696.64431 427.588291,702.83602 L427.92175,703.544885 C443.59307,737.005671 477.375138,758.279754 514.38905,757.99722 C558.840549,757.99722 593.143304,729.714989 605.524771,691.624395 C605.581035,691.493805 605.624726,691.358173 605.655255,691.219329 C605.959718,690.264533 606.235183,689.324203 606.510649,688.326006 C606.597639,688.065607 606.655631,687.790742 606.728122,687.530343 C607.264556,685.461617 607.858983,682.915493 608.5259,680.080036 L608.5259,680.080036 C611.686509,666.322286 616.151956,645.461429 620.936364,637.070793 C624.605635,631.018973 629.799088,626.031354 636,622.604179 L636,606.170105 C636,606.170105 609.033337,600.831924 598.8266,596.680006 Z M146.787041,617.888062 C145.049492,617.888062 143.640931,616.48257 143.640931,614.748807 C143.640931,613.015044 145.049492,611.609552 146.787041,611.609552 C148.52459,611.609552 149.933152,613.015044 149.933152,614.748807 C149.933152,615.581389 149.601688,616.379871 149.011678,616.968596 C148.421667,617.55732 147.621442,617.888062 146.787041,617.888062 Z M157.356233,617.888062 C155.618684,617.888062 154.210123,616.48257 154.210123,614.748807 C154.210123,613.015044 155.618684,611.609552 157.356233,611.609552 C159.093782,611.609552 160.502344,613.015044 160.502344,614.748807 C160.506221,615.582569 160.176003,616.383301 159.58515,616.972867 C158.994297,617.562432 158.191816,617.891931 157.356233,617.888062 Z M345.209486,668.969677 C341.570436,713.917447 305.440908,751.516177 256.378979,751.516177 C207.317051,751.516177 171.564475,714.380379 167.548472,668.969677 C165.504225,645.823094 169.882683,627.016496 183.496498,612.549882 C201.300295,593.743283 228.730901,586.350844 256.320986,586.350844 C283.911072,586.350844 312.863989,595.233345 329.188969,613.577011 C341.932892,627.913426 346.833285,649.092549 345.209486,668.969677 Z M603.277549,668.969677 C599.261546,714.380379 563.494473,751.516177 514.447042,751.516177 C465.399612,751.516177 429.255585,713.90298 425.602037,668.969677 C424.007235,649.092549 428.907628,627.913426 441.550064,613.634878 C457.802552,595.291211 486.769968,586.36531 514.38905,586.36531 C542.008132,586.36531 569.409741,593.80115 587.213537,612.564348 C600.856349,627.016496 605.249305,645.794161 603.205058,668.969677 L603.277549,668.969677 Z M613.817745,617.888062 C612.080196,617.888062 610.671634,616.48257 610.671634,614.748807 C610.671634,613.015044 612.080196,611.609552 613.817745,611.609552 C615.555294,611.609552 616.963856,613.015044 616.963856,614.748807 C616.964081,615.594075 616.622684,616.403717 616.016901,616.994566 C615.411118,617.585415 614.592143,617.907539 613.745254,617.888062 L613.817745,617.888062 Z M624.386937,617.888062 C622.649388,617.888062 621.240826,616.48257 621.240826,614.748807 C621.240826,613.015044 622.649388,611.609552 624.386937,611.609552 C626.124486,611.609552 627.533048,613.015044 627.533048,614.748807 C627.537303,615.59532 627.197179,616.407334 626.590496,616.999061 C625.983814,617.590787 625.162491,617.911588 624.314446,617.888062 L624.386937,617.888062 Z" id="Shape" fill="#983328" fill-rule="nonzero"></path>
                    <path d="M344.700126,669.036349 C341.070026,714.211264 305.02935,752 256.08808,752 C207.146809,752 171.48216,714.676535 167.476033,669.036349 C165.436814,645.772795 169.804504,626.871157 183.384839,612.331436 C201.144851,593.429798 228.507996,586 256.030229,586 C283.552463,586 312.434176,594.927389 328.719008,613.363756 C341.43159,627.77262 346.319932,649.058772 344.700126,669.036349 Z" id="Shape" fill="#0D153C" fill-rule="nonzero"></path>
                    <path d="M386,624.018649 C396.846847,623.855236 408.257552,624.731727 414,628" id="Shape"></path>
                    <path d="M347,613 C353.096673,611.770661 359.569863,606 382.812524,606 L384,606" id="Shape"></path>
                    <path d="M424,613.22 C423.663551,613.22 423.336449,613.1 423,613" id="Shape"></path>
                    <path d="M433,610 C432.694425,610.348451 432.360457,610.68242 432,611 C432.294118,610.661765 432.627451,610.338235 433,610 Z" id="Shape"></path>
                    <path d="M589,614.472899 L465.684762,738 C451.828151,728.693799 440.851699,715.684695 434,700.447761 L544.25833,590 C561.058218,593.763943 576.39283,601.161037 587.781355,613.25216 C588.245601,613.64454 588.637308,614.080518 589,614.472899 Z" id="Shape" fill="#7FCDEE" fill-rule="nonzero"></path>
                    <path d="M543,589.123507 L433.180139,699 C428.805829,689.364968 426.136308,679.043368 425.290449,668.494816 C423.700951,648.630303 428.585045,627.46462 441.185429,613.209591 C457.383859,594.920938 486.269372,586.000702 513.782137,586.000702 C523.606288,585.96893 533.404245,587.016136 543,589.123507 L543,589.123507 Z" id="Shape" fill="#0D153C" fill-rule="nonzero"></path>
                    <path d="M603.527712,669.434862 C599.509835,714.869724 563.726069,751.998978 514.65575,751.998978 C501.285713,752.062975 488.073123,749.120245 476,743.389506 L595.724037,624 C602.889493,636.58864 605.079744,651.723948 603.527712,669.434862 Z" id="Shape" fill="#0D153C" fill-rule="nonzero"></path>
                    <path d="M608,680 C607.435484,682.718447 606.774194,685.374757 606,688 C606.645161,685.778641 607.306452,683.04466 608,680 Z" id="Shape"></path>
                    <path d="M607,689 C606.644068,690.185 606.322034,691.19 606,692" id="Shape"></path>
                    <path d="M358,628 C363.494939,624.761072 374.542355,623.854766 385,624.018199" id="Shape"></path>
                    <path d="M347,613 C346.666667,613.093333 346.333333,613.16 346,613.2" id="Shape"></path>
                    <path d="M386,606 L387.185619,606 C410.449785,606 416.912857,611.773196 423,613" id="Shape"></path>
                    <path d="M617,615 C617,616.656854 615.656854,618 614,618 C612.343146,618 611,616.656854 611,615 C611,613.343146 612.343146,612 614,612 C615.656854,612 617,613.343146 617,615 L617,615 Z" id="Shape" fill="#FCDD7C" fill-rule="nonzero"></path>
                    <path d="M626.999968,615.000016 C626.999968,616.656861 625.656829,618 623.999984,618 C622.343139,618 621,616.656861 621,615.000016 C621,613.343171 622.343139,612.000032 623.999984,612.000032 C624.796757,611.996335 625.561965,612.311216 626.125374,612.874626 C626.688784,613.438035 627.003665,614.203243 626.999968,615.000016 Z" id="Shape" fill="#FCDD7C" fill-rule="nonzero"></path>
                    <path d="M595,623.709544 L475.606634,744 C471.9306,742.233122 468.385857,740.201384 465,737.920601 L587.996438,614 C590.669313,616.974507 593.017304,620.229696 595,623.709544 Z" id="Shape" fill="#5775B5" fill-rule="nonzero"></path>
                    <path d="M329,614.472899 L205.684762,738 C191.828151,728.693799 180.851699,715.684695 174,700.447761 L284.25833,590 C301.058218,593.763943 316.39283,601.161037 327.781355,613.25216 C328.260109,613.64454 328.637308,614.080518 329,614.472899 Z" id="Shape" fill="#7FCDEE" fill-rule="nonzero"></path>
                    <path d="M336,623.763479 L216.606634,744 C212.928884,742.215129 209.384098,740.164795 206,737.865038 L328.996438,614 C331.672706,616.991473 334.020804,620.264894 336,623.763479 L336,623.763479 Z" id="Shape" fill="#5775B5" fill-rule="nonzero"></path>
                </g>
                <g id="self-Portrair-06-Copy" transform="translate(1039.000000, 809.500000) scale(1, -1) translate(-1039.000000, -809.500000) translate(648.000000, 0.000000)">
                    <path d="M647.202254,733.327769 C644.195996,736.518998 640.913802,756 630.384639,756 C624.473785,756 619.724769,752.997344 621.307774,744.177947 C621.307774,743.800802 621.48205,743.394646 621.569188,742.988489 C628.00287,716.356233 627.378381,689.216282 629.585875,670.779682 C633.303758,673.680799 644.588117,678.685226 644.588117,684.647022 C644.611636,684.707685 644.611636,684.774932 644.588117,684.835595 C644.603748,685.019 644.603748,685.203401 644.588117,685.386807 C643.135818,693.88708 638.125389,694.220709 632.96973,701.023829 C627.814071,707.826949 630.268455,724.073205 632.96973,725.43673 C635.671005,726.800255 639.403411,724.667934 645.28522,718.793172 C696.711104,671.200344 697.56796,606.244329 675.289703,598.483841 C657.586187,592.289956 641.305922,626.668195 635.336976,643.842808 C635.200466,643.210451 635.000993,642.593311 634.741534,642.000599 C636.193832,638.272663 637.747791,622.563114 641.494721,613.598661 C645.241651,604.634209 651.965792,594.161176 656.438871,583.702649 C657.252158,581.787911 658.123537,579.960207 659.053008,578.248548 C666.70662,573.360166 674.215003,570.183442 679.152817,571.184328 C698.860505,575.028308 722.852474,667.602958 647.202254,733.327769 Z" id="Shape" fill="#88583B" fill-rule="nonzero"></path>
                    <path d="M645.254925,718.963211 C639.391628,724.834775 635.699922,726.965936 632.978194,725.603153 C630.256466,724.24037 627.925625,707.988459 632.978194,701.20354 C638.030764,694.418621 643.112288,694.070676 644.560016,685.575029 C644.575598,685.391723 644.575598,685.207423 644.560016,685.024117 C644.583461,684.963487 644.583461,684.896277 644.560016,684.835647 C644.96538,679.036571 638.508514,676.455982 634.816809,673.614435 C633.580004,672.895968 632.675145,671.719035 632.297762,670.337957 C631.602853,665.597212 632.978194,652.940728 632.978194,652.940728 C633.431845,649.902767 634.228368,646.926186 635.352468,644.068141 C641.288151,626.902876 657.517179,592.557847 675.179456,598.733863 C697.358644,606.461132 696.518962,671.38179 645.254925,718.963211 Z" id="Shape" fill="#66422C" fill-rule="nonzero"></path>
                    <path d="M130.799651,733.327769 C133.80569,736.518998 137.087645,756 147.616043,756 C153.526468,756 158.275138,752.997344 156.692248,744.177947 C156.692248,743.800802 156.517985,743.394646 156.430853,742.988489 C149.997639,716.356233 150.622082,689.216282 148.414749,670.779682 C144.697136,673.680799 133.413598,678.685226 133.413598,684.647022 C133.39008,684.707685 133.39008,684.774932 133.413598,684.835595 C133.397967,685.019 133.397967,685.203401 133.413598,685.386807 C134.86579,693.88708 139.875856,694.220709 145.03114,701.023829 C150.186424,707.826949 147.732219,724.073205 145.03114,725.43673 C142.330061,726.800255 138.597926,724.667934 132.716545,718.793172 C81.2943981,671.200344 80.4376043,606.244329 102.714242,598.483841 C120.416472,592.289956 136.695553,626.668195 142.664066,643.842808 C142.800566,643.210451 143.000024,642.593311 143.259465,642.000599 C141.807272,638.272663 140.253426,622.563114 136.506768,613.598661 C132.760111,604.634209 126.036458,594.161176 121.563704,583.702649 C120.750476,581.787911 119.879161,579.960207 118.949757,578.248548 C111.296701,573.360166 103.788865,570.183442 98.851409,571.184328 C79.1306308,575.028308 55.1549277,667.602958 130.799651,733.327769 Z" id="Shape" fill="#88583B" fill-rule="nonzero"></path>
                    <path d="M131.743446,718.963211 C137.607369,724.834775 141.299469,726.965936 144.021488,725.603153 C146.743506,724.24037 149.074597,707.988459 144.021488,701.20354 C138.968379,694.418621 133.886312,694.070676 132.43843,685.575029 C132.422845,685.391723 132.422845,685.207423 132.43843,685.024117 C132.414982,684.963487 132.414982,684.896277 132.43843,684.835647 C132.033023,679.036571 138.490577,676.455982 142.182677,673.614435 C143.419614,672.895968 144.324569,671.719035 144.701992,670.337957 C145.396976,665.597212 144.021488,652.940728 144.021488,652.940728 C143.567788,649.902767 142.771181,646.926186 141.646961,644.068141 C135.710643,626.902876 119.479883,592.557847 101.81572,598.733863 C79.6486423,606.461132 80.4739352,671.38179 131.743446,718.963211 Z" id="Shape" fill="#66422C" fill-rule="nonzero"></path>
                    <path d="M351.271628,1355.66522 C354.275535,1355.66522 421.856186,1356.24605 423.394419,1355.66522 L351.271628,1355.66522 Z M351.271628,1355.66522 C354.275535,1355.66522 421.856186,1356.24605 423.394419,1355.66522 L351.271628,1355.66522 Z M351.271628,1355.66522 C354.275535,1355.66522 421.856186,1356.24605 423.394419,1355.66522 L351.271628,1355.66522 Z M351.271628,1355.66522 C354.275535,1355.66522 421.856186,1356.24605 423.394419,1355.66522 L351.271628,1355.66522 Z M574.663628,1129.72181 L574.663628,1129.72181 C574.286326,1123.34719 540.749953,1020.81593 540.749953,951 L227.806698,951 C240.867163,1000.96602 197.898233,1113.38593 194.705674,1127.86315 L194.705674,1127.86315 C193.123907,1134.99286 191.484093,1141.07707 190.12,1145.72372 C189.559231,1147.55858 189.227777,1149.45589 189.133209,1151.3723 C189.0012,1152.81312 189.164146,1154.26574 189.612093,1155.64141 L187,1164.84759 L193.77693,1439 C193.77693,1439 311.146977,1305.98962 326.674419,1292.18035 C347.324465,1273.79704 371.660465,1269.10682 379.482233,1268.04681 L379.482233,1268.04681 C381.804093,1267.87256 383.835721,1267.77091 385.446512,1267.77091 C387.057302,1267.77091 389.379163,1267.91612 391.976744,1268.14845 C400.466047,1269.39724 424.03293,1274.31978 444.073488,1292.16583 C444.494326,1292.52885 444.958698,1292.97899 445.524651,1293.51626 C465.724837,1312.90151 577,1438.9274 577,1438.9274 C576.056744,1426.23623 574.997395,1136.05288 574.663628,1129.72181 Z M351.271628,1355.66522 C354.275535,1355.66522 421.856186,1356.24605 423.394419,1355.66522 L351.271628,1355.66522 Z" id="Shape" fill="#66422C" fill-rule="nonzero"></path>
                    <path d="M382,1266.36038 C382,1266.36038 381.10047,1266.36038 379.504528,1266.6499 L379.504528,1266.6499 C371.742451,1267.70662 347.339059,1272.44018 326.707892,1290.70852 C311.169229,1304.47492 193.809518,1437 193.809518,1437 C187.570839,1381.65938 170.450743,1276.63813 187.034022,1163.69868 C187.701416,1159.23051 188.407499,1154.75269 189.152272,1150.26522 C189.47146,1148.38338 189.805157,1146.51602 190.138853,1144.63417 C191.251176,1138.47717 192.474731,1132.30087 193.809518,1126.10527 C193.809518,1125.83023 194.157723,1126.10527 194.723557,1126.80011 L194.723557,1126.80011 C198.873004,1131.98241 217.50199,1161.09305 268.818753,1197.5284 C320.991521,1234.70201 380.563653,1263.29153 382,1266.36038 Z" id="Shape" fill="#FFFFFF" fill-rule="nonzero"></path>
                    <path d="M577.190386,1437 C577.190386,1437 465.94741,1311.32462 445.782082,1291.99329 C445.2308,1291.45751 444.752055,1291.00862 444.331339,1290.64661 C424.311085,1272.8502 400.809048,1267.92687 392.249664,1266.69603 C390.160594,1266.39194 389,1266.30506 389,1266.30506 C390.450743,1263.2497 449.931207,1234.63643 502.157956,1197.55213 C549.016956,1164.24721 568.601987,1137.08198 574.79666,1128.66887 L574.79666,1128.66887 C576.348955,1126.58369 577.045311,1125.67143 577.132356,1126.10584 C604.49337,1252.88173 584.11043,1375.61759 577.190386,1437 Z" id="Shape" fill="#FFFFFF" fill-rule="nonzero"></path>
                    <path d="M446,1292.85919 C444.343817,1296.78255 440.305054,1308.66932 436.121012,1321.03739 C404.333913,1296.60753 367.985047,1294.78441 337.040568,1322 C331.534485,1307.19623 326.682158,1292.83002 327.0163,1291.51737 C347.689537,1273.05277 372.052866,1268.34182 379.883417,1267.27711 L379.883417,1267.27711 C382.207885,1267.10209 384.241794,1267 385.854394,1267 C387.466993,1267 389.791461,1267.14585 392.391959,1267.37921 C400.890795,1268.63352 424.484144,1273.57783 444.547208,1291.50278 C444.968517,1291.86741 445.433411,1292.31954 446,1292.85919 Z" id="Shape" stroke="#000000" stroke-width="0.5" fill="#000000" fill-rule="nonzero"></path>
                    <path d="M381.008834,1039.71105 C452.358076,1039.71105 437.992457,1027.37244 497.805672,988.193744 C568.908232,941.597366 630.622352,821.666127 630.622352,681.223772 C630.622352,615.059818 658.120178,510.602641 645.844104,436.817784 C627.125267,324.24616 547.853168,252 388.539901,252 C250.122081,252 169.42793,349.257238 143.772966,458.519213 C120.555803,557.445792 145.920553,668.710975 146.471961,681.238288 C149.707853,755.168305 158.283692,907.687977 269.813137,988.20826 C351.421463,1047.0126 328.857283,1039.71105 381.008834,1039.71105 Z" id="Shape" fill="#88583B" fill-rule="nonzero"></path>
                    <path d="M475,858.40692 C474.96035,858.733974 474.835594,859.044756 474.638302,859.307958 C467.954114,868.027682 439.799503,900 387.005993,900 C334.212482,900 311.555689,867.678893 306.231487,858.770242 C306.090798,858.537255 306.011159,858.272266 306,858 C312.119938,858 322.78281,861.618685 344.065149,861.618685 C348.796165,861.618685 359.516908,859.438754 369.485318,859.438754 C375.084041,859.614814 380.612293,860.745084 385.83409,862.781315 C386.606311,863.025585 387.43461,863.025585 388.206832,862.781315 C391.201695,861.880277 398.001627,859.598616 404.685815,859.598616 C412.455098,859.598616 424.79625,863.15917 432.276175,863.15917 C446.638616,862.994143 460.949578,861.402308 475,858.40692 Z" id="Shape" fill="#60372D" fill-rule="nonzero"></path>
                    <path d="M474.999994,858.231619 C460.948114,861.22537 446.634095,862.822615 432.267233,863 C424.788277,863 412.448722,859.459839 404.680444,859.459839 C397.997122,859.459839 391.19807,861.728432 388.203594,862.624309 C387.431473,862.86718 386.603281,862.86718 385.83116,862.624309 C380.610039,860.59974 375.082503,859.475944 369.484504,859.300892 C359.517385,859.300892 348.798029,861.468338 344.067626,861.468338 C322.788042,861.468338 312.126551,857.870378 306.007404,857.870378 C305.929906,857.034461 306.46803,856.264839 307.280418,856.049724 C318.723077,853.058649 329.312238,829 366.215173,829 C375.892972,829 383.675716,833.580535 387.798545,833.580535 C391.386129,833.580535 397.924791,829 411.436097,829 C447.789322,829 464.107046,852.784105 473.813776,856.541011 C474.527135,856.797517 475.002007,857.474311 474.999994,858.231619 L474.999994,858.231619 Z" id="Shape" fill="#4F3328" fill-rule="nonzero"></path>
                    <path d="M408.263369,787.858082 C406.793696,787.286085 411.658313,778.544803 418.286537,777.591475 C429.647108,775.963485 438.861956,777.723474 439.949514,782.534113 C441.242826,788.562078 417.28716,783.238109 414.083273,785.262097 C410.879387,787.286085 409.747739,788.415412 408.263369,787.858082 Z" id="Shape" fill="#000000" fill-rule="nonzero"></path>
                    <path d="M374.736631,787.858082 C376.206304,787.286085 371.341687,778.544803 364.713463,777.591475 C353.352892,775.963485 344.138044,777.723474 343.050486,782.534113 C341.757174,788.562078 365.71284,783.238109 368.916727,785.262097 C372.120613,787.286085 373.266958,788.415412 374.736631,787.858082 Z" id="Shape" fill="#000000" fill-rule="nonzero"></path>
                    <path d="M599,585.511392 L595.392316,587.768912 C594.456594,588.354681 593.258565,588.314604 592.36418,587.667613 C586.568704,583.45647 564.241634,568.319507 544.290709,568.319507 C517.617031,568.319507 468.022247,590.880238 468.022247,590.880238 C468.022247,590.880238 447.738082,592.920689 444,580.157017 C444,580.157017 476.512619,559 536.727613,559 C566.661245,559 599,585.511392 599,585.511392 Z" id="Shape" fill="#000000" fill-rule="nonzero"></path>
                    <path d="M173,585.511392 L176.607684,587.768912 C177.543406,588.354681 178.741435,588.314604 179.63582,587.667613 C185.431296,583.45647 207.758366,568.319507 227.709291,568.319507 C254.382969,568.319507 303.977753,590.880238 303.977753,590.880238 C303.977753,590.880238 324.261918,592.920689 328,580.157017 C328,580.157017 295.487381,559 235.272387,559 C205.39671,559 173,585.511392 173,585.511392 Z" id="Shape" fill="#000000" fill-rule="nonzero"></path>
                    <path d="M145.955135,681 C145.955135,651.132284 123.533953,627.301969 110.409005,603.428114 C97.2840565,579.55426 64.7544886,555.433685 52.5722162,525.565969 C40.3899438,495.698254 -6.7873564,360.117981 0.826563863,331.251661 C8.44048412,302.385341 14.5316203,238.876535 16.0399017,218.805082 C17.548183,198.733628 3.85762926,175.469319 17.4901722,160.448383 C31.1227151,145.427448 48.598475,114.006843 72.905009,77.1728961 C97.211543,40.3389494 121.257028,28.0464541 143.199621,24.3021049 C165.142214,20.5577557 342.959884,-1.96639139 365.946671,1.64734098 C388.933459,5.26107334 412.485853,7.06068304 422.782773,2.37299005 C433.079694,-2.31470294 513.743741,0.762049111 539.616567,4.54993725 C565.489393,8.3378254 617.699132,17.3794128 635.725995,24.2875919 C653.752857,31.1957711 719.073042,65.3448163 735.51911,87.5496778 C756.59154,115.995121 773.632219,214.204466 778.200571,237.599392 C782.768923,260.994318 783.523064,323.327574 778.780679,353.790322 C774.038295,384.253069 743.756646,421.667535 743.756646,456.310022 C743.756646,480.662805 698.276162,524.941911 698.276162,546.464662 C698.276162,574.561794 652.360598,584.198414 644.268088,611.773079 C636.175579,639.347743 629.765383,680.941948 629.765383,680.941948 C629.765383,680.941948 639.699736,400.31894 623.964301,391.466021 C608.228866,382.613103 454.427676,394.833033 431.382878,384.557842 C408.338079,374.282651 398.766293,409.462118 398.766293,409.462118 C383.552956,387.692646 244.210964,385.689855 221.224176,378.738137 C190.768495,369.551419 176.048249,374.021418 164.881166,402.307218 C153.714083,430.593019 157.760337,454.176614 145.157487,488.296633 C132.554636,522.416652 160.660879,560.86154 153.85911,574.619846 C147.057341,588.378153 145.955135,681 145.955135,681 Z" id="Shape" fill="#100803" fill-rule="nonzero"></path>
                    <path d="M164,688 C163.203008,685.371634 162.496241,682.714542 162,680 C162.736842,683.087971 163.413534,685.831239 164,688 Z" id="Shape"></path>
                    <path d="M339,611 C338.592593,610.647887 338.296296,610.309859 338,610 C338.37037,610.338028 338.740741,610.661972 339,611 Z" id="Shape"></path>
                    <path d="M598.8266,596.680006 C588.677856,592.528088 548.64831,578.625672 521.855626,580.188066 L521.855626,580.188066 C519.390931,580.057866 516.926236,580 514.432544,580 C484.711222,580 452.090259,587.956638 434.54743,607.732499 C433.924007,608.41243 433.344079,609.179161 432.778649,609.844625 L432.619169,610.061624 C432.393224,610.404406 432.146285,610.732941 431.87976,611.045354 C430.951875,612.058017 429.386069,613.171946 425.761518,613.258746 L424.993113,613.258746 C424.472105,613.255226 423.952632,613.201939 423.441805,613.099613 C423.340988,613.11608 423.238159,613.11608 423.137342,613.099613 C415.888239,611.913351 407.580767,606.473904 386.036434,606.097772 L384.833083,606.097772 C363.346742,606.473904 354.95228,611.884418 347.790167,613.085146 L347.355221,613.171946 C346.87694,613.261156 346.391913,613.309553 345.9054,613.316612 L345.136995,613.316612 C341.642927,613.229813 340.048125,612.188216 339.105741,611.204487 C339.105741,611.204487 339.105741,611.204487 339.105741,611.204487 C338.786781,610.842821 338.55481,610.495623 338.322838,610.177357 L338.163358,609.960358 C337.597928,609.251494 337.018,608.513696 336.394577,607.848232 C318.83725,588.072371 286.245283,580.115733 256.523961,580.115733 C254.044768,580.115733 251.551077,580.115733 249.086382,580.303799 L249.086382,580.303799 C222.308195,578.741405 182.394635,592.629354 172.129905,596.795739 C161.865175,600.962124 135,606.300304 135,606.300304 L135,622.734378 C141.101588,626.138425 146.223862,631.050274 149.875159,636.99846 C154.630571,645.316763 159.038025,665.931688 162.198634,679.674971 C162.207538,679.703222 162.207538,679.73352 162.198634,679.761771 C162.909046,682.872093 163.561465,685.635216 164.126895,687.819675 C164.213885,688.137941 164.296041,688.436917 164.373365,688.716605 C164.373365,688.919138 164.489351,689.12167 164.547343,689.29527 L164.996788,690.741931 C165.083777,691.04573 165.185264,691.306129 165.257756,691.537595 C177.624725,729.62819 211.941978,757.91042 256.393477,757.91042 C293.382078,758.202945 327.151723,736.967024 342.846279,703.544885 L343.179737,702.83602 C346.180866,696.64431 361.679448,667.20475 360.055649,639.269718 C359.751186,635.710931 354.502836,636.607861 354.705811,632.16661 C354.908786,627.72536 361.592459,625.989366 361.592459,625.989366 C364.361616,624.94777 374.452367,623.660241 385.239032,623.457709 L385.384014,623.457709 C396.243171,623.645775 406.406413,624.90437 409.190068,625.989366 C409.190068,625.989366 415.873741,627.72536 416.076716,632.16661 C416.279691,636.607861 411.002344,635.710931 410.726878,639.269718 C409.088581,667.20475 424.587163,696.64431 427.588291,702.83602 L427.92175,703.544885 C443.59307,737.005671 477.375138,758.279754 514.38905,757.99722 C558.840549,757.99722 593.143304,729.714989 605.524771,691.624395 C605.581035,691.493805 605.624726,691.358173 605.655255,691.219329 C605.959718,690.264533 606.235183,689.324203 606.510649,688.326006 C606.597639,688.065607 606.655631,687.790742 606.728122,687.530343 C607.264556,685.461617 607.858983,682.915493 608.5259,680.080036 L608.5259,680.080036 C611.686509,666.322286 616.151956,645.461429 620.936364,637.070793 C624.605635,631.018973 629.799088,626.031354 636,622.604179 L636,606.170105 C636,606.170105 609.033337,600.831924 598.8266,596.680006 Z M146.787041,617.888062 C145.049492,617.888062 143.640931,616.48257 143.640931,614.748807 C143.640931,613.015044 145.049492,611.609552 146.787041,611.609552 C148.52459,611.609552 149.933152,613.015044 149.933152,614.748807 C149.933152,615.581389 149.601688,616.379871 149.011678,616.968596 C148.421667,617.55732 147.621442,617.888062 146.787041,617.888062 Z M157.356233,617.888062 C155.618684,617.888062 154.210123,616.48257 154.210123,614.748807 C154.210123,613.015044 155.618684,611.609552 157.356233,611.609552 C159.093782,611.609552 160.502344,613.015044 160.502344,614.748807 C160.506221,615.582569 160.176003,616.383301 159.58515,616.972867 C158.994297,617.562432 158.191816,617.891931 157.356233,617.888062 Z M345.209486,668.969677 C341.570436,713.917447 305.440908,751.516177 256.378979,751.516177 C207.317051,751.516177 171.564475,714.380379 167.548472,668.969677 C165.504225,645.823094 169.882683,627.016496 183.496498,612.549882 C201.300295,593.743283 228.730901,586.350844 256.320986,586.350844 C283.911072,586.350844 312.863989,595.233345 329.188969,613.577011 C341.932892,627.913426 346.833285,649.092549 345.209486,668.969677 Z M603.277549,668.969677 C599.261546,714.380379 563.494473,751.516177 514.447042,751.516177 C465.399612,751.516177 429.255585,713.90298 425.602037,668.969677 C424.007235,649.092549 428.907628,627.913426 441.550064,613.634878 C457.802552,595.291211 486.769968,586.36531 514.38905,586.36531 C542.008132,586.36531 569.409741,593.80115 587.213537,612.564348 C600.856349,627.016496 605.249305,645.794161 603.205058,668.969677 L603.277549,668.969677 Z M613.817745,617.888062 C612.080196,617.888062 610.671634,616.48257 610.671634,614.748807 C610.671634,613.015044 612.080196,611.609552 613.817745,611.609552 C615.555294,611.609552 616.963856,613.015044 616.963856,614.748807 C616.964081,615.594075 616.622684,616.403717 616.016901,616.994566 C615.411118,617.585415 614.592143,617.907539 613.745254,617.888062 L613.817745,617.888062 Z M624.386937,617.888062 C622.649388,617.888062 621.240826,616.48257 621.240826,614.748807 C621.240826,613.015044 622.649388,611.609552 624.386937,611.609552 C626.124486,611.609552 627.533048,613.015044 627.533048,614.748807 C627.537303,615.59532 627.197179,616.407334 626.590496,616.999061 C625.983814,617.590787 625.162491,617.911588 624.314446,617.888062 L624.386937,617.888062 Z" id="Shape" fill="#983328" fill-rule="nonzero"></path>
                    <path d="M344.700126,669.036349 C341.070026,714.211264 305.02935,752 256.08808,752 C207.146809,752 171.48216,714.676535 167.476033,669.036349 C165.436814,645.772795 169.804504,626.871157 183.384839,612.331436 C201.144851,593.429798 228.507996,586 256.030229,586 C283.552463,586 312.434176,594.927389 328.719008,613.363756 C341.43159,627.77262 346.319932,649.058772 344.700126,669.036349 Z" id="Shape" fill="#0D153C" fill-rule="nonzero"></path>
                    <path d="M164.62,691 C164.42,690.7 164.2,690.37 164,690" id="Shape"></path>
                    <path d="M386,624.018649 C396.846847,623.855236 408.257552,624.731727 414,628" id="Shape"></path>
                    <path d="M347,613 C353.096673,611.770661 359.569863,606 382.812524,606 L384,606" id="Shape"></path>
                    <path d="M424,613.22 C423.663551,613.22 423.336449,613.1 423,613" id="Shape"></path>
                    <path d="M433,610 C432.694425,610.348451 432.360457,610.68242 432,611 C432.294118,610.661765 432.627451,610.338235 433,610 Z" id="Shape"></path>
                    <path d="M589,614.472899 L465.684762,738 C451.828151,728.693799 440.851699,715.684695 434,700.447761 L544.25833,590 C561.058218,593.763943 576.39283,601.161037 587.781355,613.25216 C588.245601,613.64454 588.637308,614.080518 589,614.472899 Z" id="Shape" fill="#7FCDEE" fill-rule="nonzero"></path>
                    <path d="M543,589.123507 L433.180139,699 C428.805829,689.364968 426.136308,679.043368 425.290449,668.494816 C423.700951,648.630303 428.585045,627.46462 441.185429,613.209591 C457.383859,594.920938 486.269372,586.000702 513.782137,586.000702 C523.606288,585.96893 533.404245,587.016136 543,589.123507 L543,589.123507 Z" id="Shape" fill="#0D153C" fill-rule="nonzero"></path>
                    <path d="M603.527712,669.434862 C599.509835,714.869724 563.726069,751.998978 514.65575,751.998978 C501.285713,752.062975 488.073123,749.120245 476,743.389506 L595.724037,624 C602.889493,636.58864 605.079744,651.723948 603.527712,669.434862 Z" id="Shape" fill="#0D153C" fill-rule="nonzero"></path>
                    <path d="M608,680 C607.435484,682.718447 606.774194,685.374757 606,688 C606.645161,685.778641 607.306452,683.04466 608,680 Z" id="Shape"></path>
                    <path d="M607,689 C606.644068,690.185 606.322034,691.19 606,692" id="Shape"></path>
                    <path d="M358,628 C363.494939,624.761072 374.542355,623.854766 385,624.018199" id="Shape"></path>
                    <path d="M347,613 C346.666667,613.093333 346.333333,613.16 346,613.2" id="Shape"></path>
                    <path d="M386,606 L387.185619,606 C410.449785,606 416.912857,611.773196 423,613" id="Shape"></path>
                    <path d="M150,615 C150,616.656854 148.656854,618 147,618 C145.343146,618 144,616.656854 144,615 C144,613.343146 145.343146,612 147,612 C148.656854,612 150,613.343146 150,615 L150,615 Z" id="Shape" fill="#FCDD7C" fill-rule="nonzero"></path>
                    <path d="M159.999968,615.000016 C159.999968,616.656861 158.656829,618 156.999984,618 C155.343139,618 154,616.656861 154,615.000016 C154,613.343171 155.343139,612.000032 156.999984,612.000032 C157.796757,611.996335 158.561965,612.311216 159.125374,612.874626 C159.688784,613.438035 160.003665,614.203243 159.999968,615.000016 Z" id="Shape" fill="#FCDD7C" fill-rule="nonzero"></path>
                    <path d="M617,615 C617,616.656854 615.656854,618 614,618 C612.343146,618 611,616.656854 611,615 C611,613.343146 612.343146,612 614,612 C615.656854,612 617,613.343146 617,615 L617,615 Z" id="Shape" fill="#FCDD7C" fill-rule="nonzero"></path>
                    <path d="M626.999968,615.000016 C626.999968,616.656861 625.656829,618 623.999984,618 C622.343139,618 621,616.656861 621,615.000016 C621,613.343171 622.343139,612.000032 623.999984,612.000032 C624.796757,611.996335 625.561965,612.311216 626.125374,612.874626 C626.688784,613.438035 627.003665,614.203243 626.999968,615.000016 Z" id="Shape" fill="#FCDD7C" fill-rule="nonzero"></path>
                    <path d="M595,623.709544 L475.606634,744 C471.9306,742.233122 468.385857,740.201384 465,737.920601 L587.996438,614 C590.669313,616.974507 593.017304,620.229696 595,623.709544 Z" id="Shape" fill="#5775B5" fill-rule="nonzero"></path>
                    <path d="M329,614.472899 L205.684762,738 C191.828151,728.693799 180.851699,715.684695 174,700.447761 L284.25833,590 C301.058218,593.763943 316.39283,601.161037 327.781355,613.25216 C328.260109,613.64454 328.637308,614.080518 329,614.472899 Z" id="Shape" fill="#7FCDEE" fill-rule="nonzero"></path>
                    <path d="M336,623.763479 L216.606634,744 C212.928884,742.215129 209.384098,740.164795 206,737.865038 L328.996438,614 C331.672706,616.991473 334.020804,620.264894 336,623.763479 L336,623.763479 Z" id="Shape" fill="#5775B5" fill-rule="nonzero"></path>
                </g>
                <g id="self-Portrair-06-Copy-2" transform="translate(1296.000000, 0.000000)">
                    <path d="M130.799651,733.327769 C133.80569,736.518998 137.087645,756 147.616043,756 C153.526468,756 158.275138,752.997344 156.692248,744.177947 C156.692248,743.800802 156.517985,743.394646 156.430853,742.988489 C149.997639,716.356233 150.622082,689.216282 148.414749,670.779682 C144.697136,673.680799 133.413598,678.685226 133.413598,684.647022 C133.39008,684.707685 133.39008,684.774932 133.413598,684.835595 C133.397967,685.019 133.397967,685.203401 133.413598,685.386807 C134.86579,693.88708 139.875856,694.220709 145.03114,701.023829 C150.186424,707.826949 147.732219,724.073205 145.03114,725.43673 C142.330061,726.800255 138.597926,724.667934 132.716545,718.793172 C81.2943981,671.200344 80.4376043,606.244329 102.714242,598.483841 C120.416472,592.289956 136.695553,626.668195 142.664066,643.842808 C142.800566,643.210451 143.000024,642.593311 143.259465,642.000599 C141.807272,638.272663 140.253426,622.563114 136.506768,613.598661 C132.760111,604.634209 126.036458,594.161176 121.563704,583.702649 C120.750476,581.787911 119.879161,579.960207 118.949757,578.248548 C111.296701,573.360166 103.788865,570.183442 98.851409,571.184328 C79.1306308,575.028308 55.1549277,667.602958 130.799651,733.327769 Z" id="Shape" fill="#88583B" fill-rule="nonzero"></path>
                    <path d="M131.743446,718.963211 C137.607369,724.834775 141.299469,726.965936 144.021488,725.603153 C146.743506,724.24037 149.074597,707.988459 144.021488,701.20354 C138.968379,694.418621 133.886312,694.070676 132.43843,685.575029 C132.422845,685.391723 132.422845,685.207423 132.43843,685.024117 C132.414982,684.963487 132.414982,684.896277 132.43843,684.835647 C132.033023,679.036571 138.490577,676.455982 142.182677,673.614435 C143.419614,672.895968 144.324569,671.719035 144.701992,670.337957 C145.396976,665.597212 144.021488,652.940728 144.021488,652.940728 C143.567788,649.902767 142.771181,646.926186 141.646961,644.068141 C135.710643,626.902876 119.479883,592.557847 101.81572,598.733863 C79.6486423,606.461132 80.4739352,671.38179 131.743446,718.963211 Z" id="Shape" fill="#66422C" fill-rule="nonzero"></path>
                    <path d="M351.271628,1355.66522 C354.275535,1355.66522 421.856186,1356.24605 423.394419,1355.66522 L351.271628,1355.66522 Z M351.271628,1355.66522 C354.275535,1355.66522 421.856186,1356.24605 423.394419,1355.66522 L351.271628,1355.66522 Z M351.271628,1355.66522 C354.275535,1355.66522 421.856186,1356.24605 423.394419,1355.66522 L351.271628,1355.66522 Z M351.271628,1355.66522 C354.275535,1355.66522 421.856186,1356.24605 423.394419,1355.66522 L351.271628,1355.66522 Z M574.663628,1129.72181 L574.663628,1129.72181 C574.286326,1123.34719 540.749953,1020.81593 540.749953,951 L227.806698,951 C240.867163,1000.96602 197.898233,1113.38593 194.705674,1127.86315 L194.705674,1127.86315 C193.123907,1134.99286 191.484093,1141.07707 190.12,1145.72372 C189.559231,1147.55858 189.227777,1149.45589 189.133209,1151.3723 C189.0012,1152.81312 189.164146,1154.26574 189.612093,1155.64141 L187,1164.84759 L193.77693,1439 C193.77693,1439 311.146977,1305.98962 326.674419,1292.18035 C347.324465,1273.79704 371.660465,1269.10682 379.482233,1268.04681 L379.482233,1268.04681 C381.804093,1267.87256 383.835721,1267.77091 385.446512,1267.77091 C387.057302,1267.77091 389.379163,1267.91612 391.976744,1268.14845 C400.466047,1269.39724 424.03293,1274.31978 444.073488,1292.16583 C444.494326,1292.52885 444.958698,1292.97899 445.524651,1293.51626 C465.724837,1312.90151 577,1438.9274 577,1438.9274 C576.056744,1426.23623 574.997395,1136.05288 574.663628,1129.72181 Z M351.271628,1355.66522 C354.275535,1355.66522 421.856186,1356.24605 423.394419,1355.66522 L351.271628,1355.66522 Z" id="Shape" fill="#66422C" fill-rule="nonzero"></path>
                    <path d="M572.530164,1471 L451.950876,1335.48536 C447.040292,1330.24701 441.705345,1325.41979 436,1321.05253 C440.213714,1308.73962 444.252464,1296.90587 445.914621,1293 C466.181273,1312.38413 577.983205,1438.40272 577.983205,1438.40272 C578.216491,1441.66971 576.000281,1454.06974 572.530164,1471 Z" id="Shape" fill="#57784C" fill-rule="nonzero"></path>
                    <path d="M337,1321.49289 C335.005822,1323.2395 333.026164,1325.1171 331.061028,1327.1257 L200.882819,1467 C196.744415,1449.81045 194,1438.16639 194,1438.16639 C194,1438.16639 311.443542,1304.84188 326.980707,1291 C326.661251,1292.32451 331.496649,1306.71948 337,1321.49289 Z" id="Shape" fill="#57784C" fill-rule="nonzero"></path>
                    <path d="M382,1266.36038 C382,1266.36038 381.10047,1266.36038 379.504528,1266.6499 L379.504528,1266.6499 C371.742451,1267.70662 347.339059,1272.44018 326.707892,1290.70852 C311.169229,1304.47492 193.809518,1437 193.809518,1437 C187.570839,1381.65938 170.450743,1276.63813 187.034022,1163.69868 C187.701416,1159.23051 188.407499,1154.75269 189.152272,1150.26522 C189.47146,1148.38338 189.805157,1146.51602 190.138853,1144.63417 C191.251176,1138.47717 192.474731,1132.30087 193.809518,1126.10527 C193.809518,1125.83023 194.157723,1126.10527 194.723557,1126.80011 L194.723557,1126.80011 C198.873004,1131.98241 217.50199,1161.09305 268.818753,1197.5284 C320.991521,1234.70201 380.563653,1263.29153 382,1266.36038 Z" id="Shape" fill="#FFFFFF" fill-rule="nonzero"></path>
                    <path d="M577.190386,1437 C577.190386,1437 465.94741,1311.32462 445.782082,1291.99329 C445.2308,1291.45751 444.752055,1291.00862 444.331339,1290.64661 C424.311085,1272.8502 400.809048,1267.92687 392.249664,1266.69603 C390.160594,1266.39194 389,1266.30506 389,1266.30506 C390.450743,1263.2497 449.931207,1234.63643 502.157956,1197.55213 C549.016956,1164.24721 568.601987,1137.08198 574.79666,1128.66887 L574.79666,1128.66887 C576.348955,1126.58369 577.045311,1125.67143 577.132356,1126.10584 C604.49337,1252.88173 584.11043,1375.61759 577.190386,1437 Z" id="Shape" fill="#FFFFFF" fill-rule="nonzero"></path>
                    <path d="M351,1355 L423,1355 C421.464386,1355.78 353.998793,1355 351,1355 Z" id="Shape" stroke="#000000" stroke-width="0.5"></path>
                    <path d="M351,1355 L423,1355 C421.464386,1355.78 353.998793,1355 351,1355 Z" id="Shape" stroke="#000000" stroke-width="0.5"></path>
                    <path d="M423,1355 C421.449899,1355.8 353.998793,1355 351,1355 L423,1355 Z" id="Shape" stroke="#000000" stroke-width="0.5"></path>
                    <path d="M446,1292.85919 C444.343817,1296.78255 440.305054,1308.66932 436.121012,1321.03739 C404.333913,1296.60753 367.985047,1294.78441 337.040568,1322 C331.534485,1307.19623 326.682158,1292.83002 327.0163,1291.51737 C347.689537,1273.05277 372.052866,1268.34182 379.883417,1267.27711 L379.883417,1267.27711 C382.207885,1267.10209 384.241794,1267 385.854394,1267 C387.466993,1267 389.791461,1267.14585 392.391959,1267.37921 C400.890795,1268.63352 424.484144,1273.57783 444.547208,1291.50278 C444.968517,1291.86741 445.433411,1292.31954 446,1292.85919 Z" id="Shape" stroke="#000000" stroke-width="0.5" fill="#000000" fill-rule="nonzero"></path>
                    <path d="M352,1355.31637 L352,1470.9978 C304.707912,1473.17029 235.588706,1478.49216 204.114002,1481 C203.008095,1476.30509 201.974945,1471.85805 201,1467.76094 L201,1467.76094 L331.453407,1327.64264 C333.393595,1325.64026 335.377437,1323.75938 337.404934,1322 C343.501976,1338.44677 350.428448,1355.31637 352,1355.31637 Z" id="Shape" fill="#FFFFFF" fill-rule="nonzero"></path>
                    <path d="M571,1471.21091 C570.371919,1474.33333 569.695524,1477.59636 568.970816,1481 C541.881207,1478.81818 472.628048,1473.39273 423,1470.90545 L423,1355.15273 C423.811674,1354.84727 429.681814,1337.49455 435.26207,1321 C440.933704,1325.37493 446.237127,1330.21063 451.118696,1335.45818 L571,1471.21091 Z" id="Shape" fill="#FFFFFF" fill-rule="nonzero"></path>
                    <path d="M423,1355 L423,1470 C407.296177,1469.2052 393.577062,1468.72832 383.75493,1468.72832 C375.323541,1468.72832 363.965795,1469.0896 351,1469.69653 L351,1355 C353.998793,1355 421.464386,1355.56358 423,1355 Z" id="Shape" fill="#B52D3A" fill-rule="nonzero"></path>
                    <path d="M436,1320.84114 C430.408011,1337.33864 424.511004,1354.69449 423.712148,1355 L351.524648,1355 C349.955986,1355 343.042254,1338.16788 337,1321.78676 C367.879401,1294.65461 404.22007,1296.47312 436,1320.84114 Z" id="Shape" fill="#B52D3A" fill-rule="nonzero"></path>
                    <path d="M381.008834,1039.71105 C452.358076,1039.71105 437.992457,1027.37244 497.805672,988.193744 C568.908232,941.597366 630.622352,821.666127 630.622352,681.223772 C630.622352,615.059818 658.120178,510.602641 645.844104,436.817784 C627.125267,324.24616 547.853168,252 388.539901,252 C250.122081,252 169.42793,349.257238 143.772966,458.519213 C120.555803,557.445792 145.920553,668.710975 146.471961,681.238288 C149.707853,755.168305 158.283692,907.687977 269.813137,988.20826 C351.421463,1047.0126 328.857283,1039.71105 381.008834,1039.71105 Z" id="Shape" fill="#88583B" fill-rule="nonzero"></path>
                    <path d="M475,858.40692 C474.96035,858.733974 474.835594,859.044756 474.638302,859.307958 C467.954114,868.027682 439.799503,900 387.005993,900 C334.212482,900 311.555689,867.678893 306.231487,858.770242 C306.090798,858.537255 306.011159,858.272266 306,858 C312.119938,858 322.78281,861.618685 344.065149,861.618685 C348.796165,861.618685 359.516908,859.438754 369.485318,859.438754 C375.084041,859.614814 380.612293,860.745084 385.83409,862.781315 C386.606311,863.025585 387.43461,863.025585 388.206832,862.781315 C391.201695,861.880277 398.001627,859.598616 404.685815,859.598616 C412.455098,859.598616 424.79625,863.15917 432.276175,863.15917 C446.638616,862.994143 460.949578,861.402308 475,858.40692 Z" id="Shape" fill="#60372D" fill-rule="nonzero"></path>
                    <path d="M474.999994,858.231619 C460.948114,861.22537 446.634095,862.822615 432.267233,863 C424.788277,863 412.448722,859.459839 404.680444,859.459839 C397.997122,859.459839 391.19807,861.728432 388.203594,862.624309 C387.431473,862.86718 386.603281,862.86718 385.83116,862.624309 C380.610039,860.59974 375.082503,859.475944 369.484504,859.300892 C359.517385,859.300892 348.798029,861.468338 344.067626,861.468338 C322.788042,861.468338 312.126551,857.870378 306.007404,857.870378 C305.929906,857.034461 306.46803,856.264839 307.280418,856.049724 C318.723077,853.058649 329.312238,829 366.215173,829 C375.892972,829 383.675716,833.580535 387.798545,833.580535 C391.386129,833.580535 397.924791,829 411.436097,829 C447.789322,829 464.107046,852.784105 473.813776,856.541011 C474.527135,856.797517 475.002007,857.474311 474.999994,858.231619 L474.999994,858.231619 Z" id="Shape" fill="#4F3328" fill-rule="nonzero"></path>
                    <path d="M408.263369,787.858082 C406.793696,787.286085 411.658313,778.544803 418.286537,777.591475 C429.647108,775.963485 438.861956,777.723474 439.949514,782.534113 C441.242826,788.562078 417.28716,783.238109 414.083273,785.262097 C410.879387,787.286085 409.747739,788.415412 408.263369,787.858082 Z" id="Shape" fill="#000000" fill-rule="nonzero"></path>
                    <path d="M374.736631,787.858082 C376.206304,787.286085 371.341687,778.544803 364.713463,777.591475 C353.352892,775.963485 344.138044,777.723474 343.050486,782.534113 C341.757174,788.562078 365.71284,783.238109 368.916727,785.262097 C372.120613,787.286085 373.266958,788.415412 374.736631,787.858082 Z" id="Shape" fill="#000000" fill-rule="nonzero"></path>
                    <path d="M599,585.511392 L595.392316,587.768912 C594.456594,588.354681 593.258565,588.314604 592.36418,587.667613 C586.568704,583.45647 564.241634,568.319507 544.290709,568.319507 C517.617031,568.319507 468.022247,590.880238 468.022247,590.880238 C468.022247,590.880238 447.738082,592.920689 444,580.157017 C444,580.157017 476.512619,559 536.727613,559 C566.661245,559 599,585.511392 599,585.511392 Z" id="Shape" fill="#000000" fill-rule="nonzero"></path>
                    <path d="M173,585.511392 L176.607684,587.768912 C177.543406,588.354681 178.741435,588.314604 179.63582,587.667613 C185.431296,583.45647 207.758366,568.319507 227.709291,568.319507 C254.382969,568.319507 303.977753,590.880238 303.977753,590.880238 C303.977753,590.880238 324.261918,592.920689 328,580.157017 C328,580.157017 295.487381,559 235.272387,559 C205.39671,559 173,585.511392 173,585.511392 Z" id="Shape" fill="#000000" fill-rule="nonzero"></path>
                    <path d="M145.955135,681 C145.955135,651.132284 123.533953,627.301969 110.409005,603.428114 C97.2840565,579.55426 64.7544886,555.433685 52.5722162,525.565969 C40.3899438,495.698254 -6.7873564,360.117981 0.826563863,331.251661 C8.44048412,302.385341 14.5316203,238.876535 16.0399017,218.805082 C17.548183,198.733628 3.85762926,175.469319 17.4901722,160.448383 C31.1227151,145.427448 48.598475,114.006843 72.905009,77.1728961 C97.211543,40.3389494 121.257028,28.0464541 143.199621,24.3021049 C165.142214,20.5577557 342.959884,-1.96639139 365.946671,1.64734098 C388.933459,5.26107334 412.485853,7.06068304 422.782773,2.37299005 C433.079694,-2.31470294 513.743741,0.762049111 539.616567,4.54993725 C565.489393,8.3378254 617.699132,17.3794128 635.725995,24.2875919 C653.752857,31.1957711 719.073042,65.3448163 735.51911,87.5496778 C756.59154,115.995121 773.632219,214.204466 778.200571,237.599392 C782.768923,260.994318 783.523064,323.327574 778.780679,353.790322 C774.038295,384.253069 743.756646,421.667535 743.756646,456.310022 C743.756646,480.662805 698.276162,524.941911 698.276162,546.464662 C698.276162,574.561794 652.360598,584.198414 644.268088,611.773079 C636.175579,639.347743 629.765383,680.941948 629.765383,680.941948 C629.765383,680.941948 639.699736,400.31894 623.964301,391.466021 C608.228866,382.613103 454.427676,394.833033 431.382878,384.557842 C408.338079,374.282651 398.766293,409.462118 398.766293,409.462118 C383.552956,387.692646 244.210964,385.689855 221.224176,378.738137 C190.768495,369.551419 176.048249,374.021418 164.881166,402.307218 C153.714083,430.593019 157.760337,454.176614 145.157487,488.296633 C132.554636,522.416652 160.660879,560.86154 153.85911,574.619846 C147.057341,588.378153 145.955135,681 145.955135,681 Z" id="Shape" fill="#100803" fill-rule="nonzero"></path>
                    <path d="M164,688 C163.203008,685.371634 162.496241,682.714542 162,680 C162.736842,683.087971 163.413534,685.831239 164,688 Z" id="Shape"></path>
                    <path d="M339,611 C338.592593,610.647887 338.296296,610.309859 338,610 C338.37037,610.338028 338.740741,610.661972 339,611 Z" id="Shape"></path>
                    <path d="M598.8266,596.680006 C588.677856,592.528088 548.64831,578.625672 521.855626,580.188066 L521.855626,580.188066 C519.390931,580.057866 516.926236,580 514.432544,580 C484.711222,580 452.090259,587.956638 434.54743,607.732499 C433.924007,608.41243 433.344079,609.179161 432.778649,609.844625 L432.619169,610.061624 C432.393224,610.404406 432.146285,610.732941 431.87976,611.045354 C430.951875,612.058017 429.386069,613.171946 425.761518,613.258746 L424.993113,613.258746 C424.472105,613.255226 423.952632,613.201939 423.441805,613.099613 C423.340988,613.11608 423.238159,613.11608 423.137342,613.099613 C415.888239,611.913351 407.580767,606.473904 386.036434,606.097772 L384.833083,606.097772 C363.346742,606.473904 354.95228,611.884418 347.790167,613.085146 L347.355221,613.171946 C346.87694,613.261156 346.391913,613.309553 345.9054,613.316612 L345.136995,613.316612 C341.642927,613.229813 340.048125,612.188216 339.105741,611.204487 C339.105741,611.204487 339.105741,611.204487 339.105741,611.204487 C338.786781,610.842821 338.55481,610.495623 338.322838,610.177357 L338.163358,609.960358 C337.597928,609.251494 337.018,608.513696 336.394577,607.848232 C318.83725,588.072371 286.245283,580.115733 256.523961,580.115733 C254.044768,580.115733 251.551077,580.115733 249.086382,580.303799 L249.086382,580.303799 C222.308195,578.741405 182.394635,592.629354 172.129905,596.795739 C161.865175,600.962124 135,606.300304 135,606.300304 L135,622.734378 C141.101588,626.138425 146.223862,631.050274 149.875159,636.99846 C154.630571,645.316763 159.038025,665.931688 162.198634,679.674971 C162.207538,679.703222 162.207538,679.73352 162.198634,679.761771 C162.909046,682.872093 163.561465,685.635216 164.126895,687.819675 C164.213885,688.137941 164.296041,688.436917 164.373365,688.716605 C164.373365,688.919138 164.489351,689.12167 164.547343,689.29527 L164.996788,690.741931 C165.083777,691.04573 165.185264,691.306129 165.257756,691.537595 C177.624725,729.62819 211.941978,757.91042 256.393477,757.91042 C293.382078,758.202945 327.151723,736.967024 342.846279,703.544885 L343.179737,702.83602 C346.180866,696.64431 361.679448,667.20475 360.055649,639.269718 C359.751186,635.710931 354.502836,636.607861 354.705811,632.16661 C354.908786,627.72536 361.592459,625.989366 361.592459,625.989366 C364.361616,624.94777 374.452367,623.660241 385.239032,623.457709 L385.384014,623.457709 C396.243171,623.645775 406.406413,624.90437 409.190068,625.989366 C409.190068,625.989366 415.873741,627.72536 416.076716,632.16661 C416.279691,636.607861 411.002344,635.710931 410.726878,639.269718 C409.088581,667.20475 424.587163,696.64431 427.588291,702.83602 L427.92175,703.544885 C443.59307,737.005671 477.375138,758.279754 514.38905,757.99722 C558.840549,757.99722 593.143304,729.714989 605.524771,691.624395 C605.581035,691.493805 605.624726,691.358173 605.655255,691.219329 C605.959718,690.264533 606.235183,689.324203 606.510649,688.326006 C606.597639,688.065607 606.655631,687.790742 606.728122,687.530343 C607.264556,685.461617 607.858983,682.915493 608.5259,680.080036 L608.5259,680.080036 C611.686509,666.322286 616.151956,645.461429 620.936364,637.070793 C624.605635,631.018973 629.799088,626.031354 636,622.604179 L636,606.170105 C636,606.170105 609.033337,600.831924 598.8266,596.680006 Z M146.787041,617.888062 C145.049492,617.888062 143.640931,616.48257 143.640931,614.748807 C143.640931,613.015044 145.049492,611.609552 146.787041,611.609552 C148.52459,611.609552 149.933152,613.015044 149.933152,614.748807 C149.933152,615.581389 149.601688,616.379871 149.011678,616.968596 C148.421667,617.55732 147.621442,617.888062 146.787041,617.888062 Z M157.356233,617.888062 C155.618684,617.888062 154.210123,616.48257 154.210123,614.748807 C154.210123,613.015044 155.618684,611.609552 157.356233,611.609552 C159.093782,611.609552 160.502344,613.015044 160.502344,614.748807 C160.506221,615.582569 160.176003,616.383301 159.58515,616.972867 C158.994297,617.562432 158.191816,617.891931 157.356233,617.888062 Z M345.209486,668.969677 C341.570436,713.917447 305.440908,751.516177 256.378979,751.516177 C207.317051,751.516177 171.564475,714.380379 167.548472,668.969677 C165.504225,645.823094 169.882683,627.016496 183.496498,612.549882 C201.300295,593.743283 228.730901,586.350844 256.320986,586.350844 C283.911072,586.350844 312.863989,595.233345 329.188969,613.577011 C341.932892,627.913426 346.833285,649.092549 345.209486,668.969677 Z M603.277549,668.969677 C599.261546,714.380379 563.494473,751.516177 514.447042,751.516177 C465.399612,751.516177 429.255585,713.90298 425.602037,668.969677 C424.007235,649.092549 428.907628,627.913426 441.550064,613.634878 C457.802552,595.291211 486.769968,586.36531 514.38905,586.36531 C542.008132,586.36531 569.409741,593.80115 587.213537,612.564348 C600.856349,627.016496 605.249305,645.794161 603.205058,668.969677 L603.277549,668.969677 Z M613.817745,617.888062 C612.080196,617.888062 610.671634,616.48257 610.671634,614.748807 C610.671634,613.015044 612.080196,611.609552 613.817745,611.609552 C615.555294,611.609552 616.963856,613.015044 616.963856,614.748807 C616.964081,615.594075 616.622684,616.403717 616.016901,616.994566 C615.411118,617.585415 614.592143,617.907539 613.745254,617.888062 L613.817745,617.888062 Z M624.386937,617.888062 C622.649388,617.888062 621.240826,616.48257 621.240826,614.748807 C621.240826,613.015044 622.649388,611.609552 624.386937,611.609552 C626.124486,611.609552 627.533048,613.015044 627.533048,614.748807 C627.537303,615.59532 627.197179,616.407334 626.590496,616.999061 C625.983814,617.590787 625.162491,617.911588 624.314446,617.888062 L624.386937,617.888062 Z" id="Shape" fill="#983328" fill-rule="nonzero"></path>
                    <path d="M344.700126,669.036349 C341.070026,714.211264 305.02935,752 256.08808,752 C207.146809,752 171.48216,714.676535 167.476033,669.036349 C165.436814,645.772795 169.804504,626.871157 183.384839,612.331436 C201.144851,593.429798 228.507996,586 256.030229,586 C283.552463,586 312.434176,594.927389 328.719008,613.363756 C341.43159,627.77262 346.319932,649.058772 344.700126,669.036349 Z" id="Shape" fill="#0D153C" fill-rule="nonzero"></path>
                    <path d="M164.62,691 C164.42,690.7 164.2,690.37 164,690" id="Shape"></path>
                    <path d="M386,624.018649 C396.846847,623.855236 408.257552,624.731727 414,628" id="Shape"></path>
                    <path d="M347,613 C353.096673,611.770661 359.569863,606 382.812524,606 L384,606" id="Shape"></path>
                    <path d="M424,613.22 C423.663551,613.22 423.336449,613.1 423,613" id="Shape"></path>
                    <path d="M433,610 C432.694425,610.348451 432.360457,610.68242 432,611 C432.294118,610.661765 432.627451,610.338235 433,610 Z" id="Shape"></path>
                    <path d="M589,614.472899 L465.684762,738 C451.828151,728.693799 440.851699,715.684695 434,700.447761 L544.25833,590 C561.058218,593.763943 576.39283,601.161037 587.781355,613.25216 C588.245601,613.64454 588.637308,614.080518 589,614.472899 Z" id="Shape" fill="#7FCDEE" fill-rule="nonzero"></path>
                    <path d="M543,589.123507 L433.180139,699 C428.805829,689.364968 426.136308,679.043368 425.290449,668.494816 C423.700951,648.630303 428.585045,627.46462 441.185429,613.209591 C457.383859,594.920938 486.269372,586.000702 513.782137,586.000702 C523.606288,585.96893 533.404245,587.016136 543,589.123507 L543,589.123507 Z" id="Shape" fill="#0D153C" fill-rule="nonzero"></path>
                    <path d="M358,628 C363.494939,624.761072 374.542355,623.854766 385,624.018199" id="Shape"></path>
                    <path d="M347,613 C346.666667,613.093333 346.333333,613.16 346,613.2" id="Shape"></path>
                    <path d="M386,606 L387.185619,606 C410.449785,606 416.912857,611.773196 423,613" id="Shape"></path>
                    <path d="M150,615 C150,616.656854 148.656854,618 147,618 C145.343146,618 144,616.656854 144,615 C144,613.343146 145.343146,612 147,612 C148.656854,612 150,613.343146 150,615 L150,615 Z" id="Shape" fill="#FCDD7C" fill-rule="nonzero"></path>
                    <path d="M159.999968,615.000016 C159.999968,616.656861 158.656829,618 156.999984,618 C155.343139,618 154,616.656861 154,615.000016 C154,613.343171 155.343139,612.000032 156.999984,612.000032 C157.796757,611.996335 158.561965,612.311216 159.125374,612.874626 C159.688784,613.438035 160.003665,614.203243 159.999968,615.000016 Z" id="Shape" fill="#FCDD7C" fill-rule="nonzero"></path>
                    <path d="M329,614.472899 L205.684762,738 C191.828151,728.693799 180.851699,715.684695 174,700.447761 L284.25833,590 C301.058218,593.763943 316.39283,601.161037 327.781355,613.25216 C328.260109,613.64454 328.637308,614.080518 329,614.472899 Z" id="Shape" fill="#7FCDEE" fill-rule="nonzero"></path>
                    <path d="M336,623.763479 L216.606634,744 C212.928884,742.215129 209.384098,740.164795 206,737.865038 L328.996438,614 C331.672706,616.991473 334.020804,620.264894 336,623.763479 L336,623.763479 Z" id="Shape" fill="#5775B5" fill-rule="nonzero"></path>
                </g>
            </g>
        </g>
    </g>
</svg>