<?xml version="1.0" encoding="UTF-8"?>
<svg width="745px" height="639px" viewBox="0 0 745 639" version="1.1" xmlns="http://www.w3.org/2000/svg" xmlns:xlink="http://www.w3.org/1999/xlink">
    <!-- Generator: Sketch 46.1 (44463) - http://www.bohemiancoding.com/sketch -->
    <title>Group 2</title>
    <desc>Created with Sketch.</desc>
    <defs>
        <polygon id="path-1" points="0.225318657 0.105094416 15.8138104 0.105094416 15.8138104 337.769237 0.225318657 337.769237 0.225318657 0.105094416"></polygon>
        <polygon id="path-3" points="0.647766783 0.105094416 16.2362585 0.105094416 16.2362585 345.229773 0.647766783 345.229773 0.647766783 0.105094416"></polygon>
    </defs>
    <g id="Page-1" stroke="none" stroke-width="1" fill="none" fill-rule="evenodd">
        <g id="Desktop-HD" transform="translate(-348.000000, -303.000000)">
            <g id="Group-2" transform="translate(348.000000, 303.000000)">
                <g id="Page-1">
                    <g id="Group-77">
                        <path d="M212.096499,320.960683 L202.695339,333.380637 L507.346429,563.424529 C510.780444,566.017507 515.668735,565.338934 518.264219,561.909743 L518.264219,561.909094 C520.860352,558.479902 520.180954,553.598201 516.747588,551.004575 L212.096499,320.960683 Z" id="Fill-1" fill="#594131"></path>
                        <path d="M417.866993,421.455726 L329.532206,421.455726 C326.124172,421.455726 323.361762,418.696673 323.361762,415.292782 C323.361762,411.888891 326.124172,409.129838 329.532206,409.129838 L417.866993,409.129838 C421.275027,409.129838 424.037437,411.888891 424.037437,415.292782 C424.037437,418.696673 421.275027,421.455726 417.866993,421.455726" id="Fill-3" fill="#999999"></path>
                        <path d="M532.479494,320.960683 L541.880654,333.380637 L237.229564,563.424529 C233.795549,566.017507 228.907258,565.338934 226.311125,561.909743 L226.311125,561.909094 C223.715641,558.479902 224.39439,553.598201 227.828405,551.004575 L532.479494,320.960683 Z" id="Fill-5" fill="#594131"></path>
                        <path d="M450.762932,589.674714 L459.186563,589.0941 L454.066393,514.996049 C453.930643,513.027799 452.222405,511.541557 450.251759,511.67779 L448.965059,511.766018 C446.994414,511.901603 445.507012,513.607765 445.642762,515.576015 L450.762932,589.674714 Z" id="Fill-7" fill="#3F2C0F"></path>
                        <path d="M292.976998,589.674714 L284.552718,589.0941 L289.672888,514.996049 C289.809287,513.027799 291.517526,511.541557 293.488171,511.67779 L294.774871,511.766018 C296.745516,511.901603 298.232918,513.607765 298.097168,515.576015 L292.976998,589.674714 Z" id="Fill-9" fill="#3F2C0F"></path>
                        <g id="Group-13" transform="translate(563.134263, 0.000000)">
                            <mask id="mask-2" fill="white">
                                <use xlink:href="#path-1"></use>
                            </mask>
                            <g id="Clip-12"></g>
                            <path d="M15.8138104,7.7215203 L15.8138104,337.769237 L0.225318657,337.769237 L0.225318657,7.7215203 C0.225318657,3.51320254 3.71324368,0.104770051 8.01956452,0.104770051 C10.1759725,0.104770051 12.124534,0.955256345 13.5339935,2.33251218 C14.9434529,3.70976802 15.8138104,5.6137934 15.8138104,7.7215203" id="Fill-11" fill="#775741" mask="url(#mask-2)"></path>
                        </g>
                        <g id="Group-16" transform="translate(164.978204, 0.000000)">
                            <mask id="mask-4" fill="white">
                                <use xlink:href="#path-3"></use>
                            </mask>
                            <g id="Clip-15"></g>
                            <path d="M16.2362585,7.88967137 L16.2362585,345.229773 L0.647766783,345.229773 L0.647766783,7.88967137 C0.647766783,5.73588457 1.52461944,3.78969168 2.9340789,2.38194548 C4.34288884,0.974199289 6.29145031,0.104899797 8.44201264,0.104899797 C12.7483335,0.104899797 16.2362585,3.58858508 16.2362585,7.88967137" id="Fill-14" fill="#775741" mask="url(#mask-4)"></path>
                        </g>
                        <path d="M562.633158,56 C562.633158,80.6517766 181.039872,90.0583756 181.039872,60.8654822 C181.039872,60.8654822 181.835534,158.861484 181.039872,167.25736 C176.493228,215.263452 562.308398,215.263452 562.633158,162.391878 C562.904658,118.207461 562.633158,56 562.633158,56" id="Fill-17" fill="#3E3D4D"></path>
                        <path d="M515.944586,304.902061 C515.944586,324.470382 407.474665,332.255154 381.493845,332.255154 C355.513026,332.255154 224.721034,321.662674 224.721034,304.902061 C224.721034,288.141448 177.219652,350.605158 177.219652,369.557184 C177.219652,388.50921 332.779809,396.479519 371.101517,396.479519 C409.423226,396.479519 557.513898,387.397286 563.359582,371.827742 C569.205266,356.258199 515.944586,304.902061 515.944586,304.902061" id="Fill-19" fill="#3E3D4D"></path>
                        <path d="M567.367058,371.689044 L576.768218,384.108349 L241.297381,637.424816 C237.863366,640.017145 232.975724,639.339221 230.379591,635.909381 C227.783458,632.480189 228.462856,627.59784 231.896221,625.004862 L567.367058,371.689044 Z" id="Fill-21" fill="#775741"></path>
                        <polygon id="Fill-23" fill="#3F2C0F" points="515.944586 292.682565 515.944586 310.198301 563.359582 371.827742 563.359582 343.932311"></polygon>
                        <polygon id="Fill-25" fill="#594131" points="532.182599 292.682565 591.938483 345.229773 563.359582 343.932311 515.944586 292.682565"></polygon>
                        <path d="M563.359582,221.568612 L563.359582,230.404327 C563.359582,230.404327 519.8547,234.406997 519.8547,242.13987 C518.257529,241.088926 517.243627,239.616307 517.243627,237.540368 C517.243627,229.755596 563.359582,221.568612 563.359582,221.568612" id="Fill-27" fill="#775741"></path>
                        <path d="M563.359582,230.404392 L563.359582,240.998169 C563.359582,240.998169 543.224447,244.676473 537.378762,244.676473 L532.792498,244.676473 C528.395894,244.6116 522.998379,244.2029 519.8547,242.139935 C519.8547,234.407062 563.359582,230.404392 563.359582,230.404392" id="Fill-29" fill="#594131"></path>
                        <path d="M537.378762,242.405915 L537.378762,298.844211 C537.378762,299.943162 536.794194,300.894201 535.930332,301.400211 C535.527629,301.629862 535.059974,301.764798 534.566339,301.764798 L531.097899,301.764798 C529.544896,301.764798 528.285476,300.455659 528.285476,298.844211 L528.285476,242.405915 L537.378762,242.405915 Z" id="Fill-31" fill="#775741"></path>
                        <path d="M740.029155,230.404392 L578.948074,230.404392 L578.948074,221.322159 L740.029155,221.322159 C742.540201,221.322159 744.575798,223.355282 744.575798,225.863275 C744.575798,228.371269 742.540201,230.404392 740.029155,230.404392" id="Fill-33" fill="#775741"></path>
                        <polygon id="Fill-35" fill="#3F2C0F" points="578.136173 386.869608 563.359582 371.827483 580.409495 354.839814 595.186086 371.827483"></polygon>
                        <path d="M588.562146,343.932376 L563.452983,343.932376 C563.401671,343.932376 563.359452,343.973895 563.359452,344.025793 L563.359452,371.827807 L595.185956,371.827807 L595.185956,350.548134 C595.185956,346.893833 592.220895,343.932376 588.562146,343.932376" id="Fill-37" fill="#775741"></path>
                        <polygon id="Fill-39" fill="#3F2C0F" points="228.631342 292.682565 228.631342 310.198301 181.216346 371.827742 181.216346 343.932311"></polygon>
                        <polygon id="Fill-41" fill="#594131" points="212.39333 292.682565 152.637445 345.229773 181.216346 343.932311 228.631342 292.682565"></polygon>
                        <path d="M181.216346,221.568612 L181.216346,230.404327 C181.216346,230.404327 224.720579,234.406997 224.720579,242.13987 C226.318399,241.088926 227.332301,239.616307 227.332301,237.540368 C227.332301,229.755596 181.216346,221.568612 181.216346,221.568612" id="Fill-43" fill="#775741"></path>
                        <path d="M181.216346,230.404392 L181.216346,240.998169 C181.216346,240.998169 201.351481,244.676473 207.197166,244.676473 L211.78278,244.676473 C216.180034,244.6116 221.577549,244.2029 224.720579,242.139935 C224.720579,234.407062 181.216346,230.404392 181.216346,230.404392" id="Fill-45" fill="#594131"></path>
                        <path d="M207.197166,242.405915 L207.197166,298.844211 C207.197166,299.943162 207.781085,300.894201 208.644947,301.400211 C209.048299,301.629862 209.515954,301.764798 210.009589,301.764798 L213.478029,301.764798 C215.030383,301.764798 216.290452,300.455659 216.290452,298.844211 L216.290452,242.405915 L207.197166,242.405915 Z" id="Fill-47" fill="#775741"></path>
                        <path d="M4.54677332,230.404392 L165.627854,230.404392 L165.627854,221.322159 L4.54677332,221.322159 C2.03572711,221.322159 0.000129904098,223.355282 0.000129904098,225.863275 C0.000129904098,228.371269 2.03572711,230.404392 4.54677332,230.404392" id="Fill-49" fill="#775741"></path>
                        <polygon id="Fill-51" fill="#3F2C0F" points="166.439755 386.869608 181.216346 371.827483 164.166433 354.839814 149.389842 371.827483"></polygon>
                        <path d="M156.013197,343.932376 L181.122361,343.932376 C181.174322,343.932376 181.216541,343.973895 181.216541,344.025793 L181.216541,371.827807 L149.390037,371.827807 L149.390037,350.548134 C149.390037,346.893833 152.355098,343.932376 156.013197,343.932376" id="Fill-53" fill="#775741"></path>
                        <path d="M185.338658,55.941109 C185.312677,63.7842664 185.111326,180.127678 185.111326,180.127678 C185.111326,180.127678 185.111326,183.189688 181.214203,184.779079 C180.200951,185.194266 178.927891,185.505657 177.31708,185.641891 C170.926448,186.17385 166.87279,184.305505 165.625711,182.365799 C165.346417,181.937637 165.203523,181.509475 165.203523,181.100774 C165.203523,178.862652 165.300951,56.9271801 165.300951,53.7094745 C165.300951,54.3582055 165.411369,54.955038 165.625711,55.4934847 C167.385912,60.0540634 175.966077,60.8065913 181.214203,59.2885608 C183.604438,58.5944187 185.306182,57.4331903 185.338658,55.941109" id="Fill-55" fill="#3F2C0F"></path>
                        <path d="M185.338658,55.8894701 L185.338658,55.8959574 L185.338658,55.9413685 C185.306182,57.4334497 183.604438,58.5946782 181.214203,59.2888203 L181.214203,53.6448609 C184.578719,53.6448609 185.293191,55.7532365 185.338658,55.8894701" id="Fill-57" fill="#3F2C0F"></path>
                        <path d="M559.462459,55.941109 C559.48844,63.7842664 559.689791,180.127678 559.689791,180.127678 C559.689791,180.127678 559.689791,183.189688 563.586914,184.779079 C564.600166,185.194266 565.873226,185.505657 567.484037,185.641891 C573.874669,186.17385 577.928327,184.305505 579.175406,182.365799 C579.4547,181.937637 579.597594,181.509475 579.597594,181.100774 C579.597594,178.862652 579.500166,56.9271801 579.500166,53.7094745 C579.500166,54.3582055 579.389748,54.955038 579.175406,55.4934847 C577.415205,60.0540634 568.83504,60.8065913 563.586914,59.2885608 C561.196679,58.5944187 559.494935,57.4331903 559.462459,55.941109" id="Fill-59" fill="#3F2C0F"></path>
                        <path d="M559.462459,55.8891457 L559.462459,55.895633 L559.462459,55.9410442 C559.494935,57.4331254 561.196679,58.5943538 563.586914,59.2884959 L563.586914,53.6445365 C560.222398,53.6445365 559.507925,55.7529122 559.462459,55.8891457" id="Fill-61" fill="#3F2C0F"></path>
                        <path d="M470.478152,460.379584 L276.921047,460.379584 C273.513013,460.379584 270.750602,457.620531 270.750602,454.21664 C270.750602,450.812748 273.513013,448.053696 276.921047,448.053696 L470.478152,448.053696 C473.886186,448.053696 476.648597,450.812748 476.648597,454.21664 C476.648597,457.620531 473.886186,460.379584 470.478152,460.379584" id="Fill-63" fill="#999999"></path>
                        <path d="M177.20887,371.689044 L167.807061,384.108349 L503.278547,637.424816 C506.712562,640.017145 511.600204,639.339221 514.196337,635.909381 C516.791821,632.480189 516.113072,627.59784 512.679057,625.004862 L177.20887,371.689044 Z" id="Fill-65" fill="#775741"></path>
                        <path d="M374.67388,528.496335 C374.67388,529.929382 373.510589,531.091259 372.075798,531.091259 C370.641007,531.091259 369.477716,529.929382 369.477716,528.496335 C369.477716,527.063289 370.641007,525.901411 372.075798,525.901411 C373.510589,525.901411 374.67388,527.063289 374.67388,528.496335" id="Fill-67" fill="#CCCCCC"></path>
                        <path d="M470.802912,453.892274 C470.802912,455.325321 469.639621,456.487198 468.20483,456.487198 C466.77004,456.487198 465.606748,455.325321 465.606748,453.892274 C465.606748,452.459228 466.77004,451.29735 468.20483,451.29735 C469.639621,451.29735 470.802912,452.459228 470.802912,453.892274" id="Fill-69" fill="#CCCCCC"></path>
                        <path d="M281.79245,453.892274 C281.79245,455.325321 280.629159,456.487198 279.194368,456.487198 C277.759578,456.487198 276.596286,455.325321 276.596286,453.892274 C276.596286,452.459228 277.759578,451.29735 279.194368,451.29735 C280.629159,451.29735 281.79245,452.459228 281.79245,453.892274" id="Fill-71" fill="#CCCCCC"></path>
                        <path d="M331.805528,414.968416 C331.805528,416.401463 330.642237,417.56334 329.207446,417.56334 C327.772655,417.56334 326.609364,416.401463 326.609364,414.968416 C326.609364,413.53537 327.772655,412.373493 329.207446,412.373493 C330.642237,412.373493 331.805528,413.53537 331.805528,414.968416" id="Fill-73" fill="#CCCCCC"></path>
                        <path d="M418.841273,414.968416 C418.841273,416.401463 417.677982,417.56334 416.243191,417.56334 C414.808401,417.56334 413.645109,416.401463 413.645109,414.968416 C413.645109,413.53537 414.808401,412.373493 416.243191,412.373493 C417.677982,412.373493 418.841273,413.53537 418.841273,414.968416" id="Fill-75" fill="#CCCCCC"></path>
                    </g>
                </g>
                <g id="Page-1" transform="translate(228.000000, 117.000000)" fill="#F2F2F2">
                    <path d="M28.9423386,4.39326693 C21.6922644,-0.48820762 9.58553976,-0.544930605 4.09731008,7.142353 C2.01598437,10.0589697 1.65556132,14.22679 4.25637947,16.9811526 C7.46461451,20.3805743 12.5031543,18.3761423 16.5114346,18.1321015 C22.9238776,17.7416363 31.5787292,19.0838605 35.7454077,24.4718845 C39.7268408,29.6204847 37.997884,36.963473 33.2815101,40.9888262 C28.3033763,45.2371139 21.3613732,45.8491945 15.2254559,43.9654638 C9.12846695,42.0942648 2.26163584,37.6415105 2.08041755,30.7279021 C2.04618742,29.4114011 -0.0344670997,29.5314428 0.000434202011,30.8499224 C0.206486118,38.7040771 7.81832578,43.868507 14.7925455,45.9679171 C22.4480118,48.2731128 31.5203367,46.8372298 36.7300271,40.4400643 C41.063158,35.119976 41.2692099,26.9525257 36.2675849,21.9787114 C29.6370088,15.3856538 19.4015309,15.8381185 10.8500408,16.7944944 C6.82028278,17.2449804 3.5690923,14.6647442 4.69600163,10.4916474 C5.49067743,7.54864786 8.50896884,5.41428066 11.2198603,4.2963102 C16.7819197,2.00166759 23.0748929,2.90659707 27.9825528,6.21104073 C29.0879844,6.95503523 30.0343466,5.12868703 28.9423386,4.39326693" id="Fill-1"></path>
                    <path d="M51.0060301,3.19990104 C51.5673716,11.3122002 52.129396,19.423837 52.6900546,27.5354739 C52.9632135,31.4816935 53.2370552,35.4279132 53.5095312,39.3741328 C53.6850358,41.9111302 53.112768,45.4461059 54.9832234,47.4546449 C55.6654377,48.1864074 56.8775802,48.1029666 57.6779357,47.666558 C57.782419,47.6102686 57.8862194,47.553317 57.9907027,47.4963653 C58.812228,47.0493611 59.2124057,45.8692699 58.8866638,45.0236041 C58.8532018,44.9381766 58.8204228,44.8527492 58.7883266,44.7679839 C57.7953941,42.1879417 53.5873815,43.5183587 54.5864601,46.1156189 C54.6192392,46.2010464 54.6527011,46.2864739 54.6854802,46.3712391 C54.9832234,45.5467646 55.2823324,44.7222901 55.5807584,43.8984779 C55.4769581,43.9547673 55.3724748,44.011719 55.2679915,44.0686706 C56.1666842,44.1395291 57.0640112,44.2103875 57.9627039,44.281246 C58.7514501,45.1282362 58.2481549,44.9090386 58.2461062,43.7229873 C58.2447404,42.8508324 58.1245505,41.9621218 58.0637727,41.0919535 C57.942217,39.3377102 57.8206613,37.5841292 57.6997884,35.8298859 C57.4423362,32.1035261 57.1842011,28.3765041 56.9260659,24.6494821 C56.4255023,17.4139735 55.9242557,10.1797894 55.4236921,2.94428084 C55.2331638,0.194045887 50.8148189,0.435759289 51.0060301,3.19990104" id="Fill-3"></path>
                    <path d="M66.0064332,1.77773814 C65.8844272,17.6105192 67.4989084,33.3449971 70.7562744,48.817112 C71.2146038,50.9937292 74.4119351,49.8924685 73.9555423,47.7278071 C70.7607932,32.5559153 69.250243,17.0930994 69.3703123,1.57116874 C69.3877418,-0.657921047 66.0238626,-0.448694801 66.0064332,1.77773814" id="Fill-5"></path>
                    <path d="M54.4938039,24.7586268 C53.4367749,23.9394854 52.9541442,23.7461968 51.6476427,23.7217662 C51.7196974,24.9993394 51.7917521,26.2769127 51.8644866,27.5552044 C57.6934411,27.3144918 63.5223957,27.0744977 69.3513502,26.8345037 C71.685651,26.7382186 71.4756047,22.905499 69.1358658,23.001784 C63.3062315,23.2417781 57.477277,23.4817722 51.6476427,23.7217662 C49.29023,23.8187698 49.5512584,27.5120917 51.8644866,27.5552044 C51.9256651,27.5695753 51.9868437,27.5839462 52.048702,27.5983171 C53.918046,29.0476226 56.377423,26.2187105 54.4938039,24.7586268" id="Fill-7"></path>
                    <path d="M92.6004246,2.25423084 C85.9117553,5.82785421 83.1558861,16.1540416 83.0051331,23.241549 C82.8517354,30.4794116 86.1372235,38.1757237 92.7538223,41.5493208 C98.2490309,44.351702 105.661711,43.0642847 109.427228,37.9441497 C113.860554,31.916513 111.846548,22.1011309 108.764047,15.9365634 C104.650079,7.70796672 96.6145518,2.27101157 87.6837634,1.0117859 C86.3699649,0.826526691 85.9289464,2.88384367 87.2526629,3.07044534 C95.4997736,4.23368526 102.846995,9.06586306 106.786407,16.6037651 C110.471919,23.6556973 112.397325,36.4056927 103.312478,40.0538225 C95.366873,43.2448454 87.9773349,37.0386617 85.8112534,29.4470614 C84.4782801,24.7732936 85.0627783,19.7323636 86.4704668,15.1518967 C87.7677354,10.9298661 89.6911576,6.17756453 93.7297491,4.0195632 C94.9113082,3.38793668 93.7733881,1.62730293 92.6004246,2.25423084" id="Fill-9"></path>
                    <path d="M127.598275,3.13377651 C126.556934,3.87684906 127.413445,9.96643555 127.423491,11.3777388 L127.494476,21.2702263 C127.540014,27.6451473 127.585551,34.0200683 127.631759,40.3943211 C127.641134,41.7635258 129.695022,41.6064916 129.73922,40.269362 C129.969588,33.399282 130.199955,26.529202 130.430323,19.6584538 C130.548855,16.1027982 130.568275,12.522418 130.879673,8.97678587 C130.934586,8.35065369 130.990169,4.67605299 131.530595,4.38336794 C132.97575,3.59953331 133.392956,6.64131952 133.698997,7.51068768 C137.585779,18.5558731 139.824496,30.2579294 146.529933,40.0896079 C147.099155,40.9248963 148.580472,40.5353178 148.469306,39.4534523 C147.124602,26.3788501 145.033214,13.7867105 151.133265,1.52267226 C150.486361,1.47121849 149.840127,1.42043296 149.193223,1.36831096 C154.672488,15.4866895 154.142776,30.9956561 158.934957,45.3044804 C159.365556,46.5894881 161.371897,45.9326173 160.939288,44.642932 C156.147777,30.3347759 156.679498,14.8311551 151.197554,0.706762554 C150.881468,-0.109815378 149.678736,-0.292910594 149.258181,0.552401259 C142.968611,13.1986675 144.971604,26.062777 146.361175,39.5784114 C147.00741,39.3665823 147.653644,39.1540849 148.300548,38.9422558 C143.878027,32.4570767 141.396219,25.0945107 139.12134,17.6504205 C138.017718,14.0393018 136.955617,10.4128137 135.703998,6.84847104 C135.14616,5.26275956 134.464433,1.51999933 132.561892,0.83439462 C128.138032,-0.759335632 128.594749,11.7840231 128.514388,14.0499934 C128.20232,22.8312133 127.925745,31.6131013 127.631759,40.3943211 C128.334246,40.3528908 129.036733,40.3107923 129.73922,40.269362 C129.67694,31.476114 129.613321,22.682866 129.550372,13.8902863 C129.538988,12.3807531 130.962043,-1.85389754 126.448447,1.3669745 C125.344825,2.15415028 126.490636,3.92429344 127.598275,3.13377651" id="Fill-11"></path>
                    <path d="M179.076063,6.54099305 C179.133039,6.49861537 179.190694,6.4562377 179.248349,6.41386002 C179.745538,6.04658685 179.957165,5.36450809 179.589531,4.82099761 C179.535945,4.74162355 179.48236,4.6622495 179.429453,4.58287544 C179.071993,4.05483617 178.36589,3.91761322 177.822577,4.24452671 C176.343897,5.13513053 176.227231,7.71411469 175.811437,9.19329731 C174.943222,12.2801409 174.117739,15.3784197 173.333632,18.4874612 C171.713868,24.9133964 170.284704,31.3830546 169.014939,37.8856733 C169.771914,38.0450941 170.528211,38.2045148 171.285865,38.3646083 C172.988381,26.9347442 174.745839,15.5068981 177.895832,4.36493312 C177.14971,4.40529281 176.403587,4.44632516 175.657465,4.48668485 C180.711428,17.1629907 187.126725,29.21843 194.84638,40.4969452 C195.686107,41.7238798 197.634844,40.4720567 196.79376,39.2431042 C189.18331,28.1240097 182.845338,16.2622969 177.862596,3.76357374 C177.431201,2.68193406 175.938956,2.77341602 175.624228,3.88599813 C172.474913,15.0279631 170.718133,26.4558092 169.014939,37.8856733 C168.798563,39.3379495 170.999625,39.8323557 171.285865,38.3646083 C172.350785,32.9106689 173.522876,27.4789273 174.834695,22.0781282 C175.439732,19.5859174 176.070545,17.0997605 176.729168,14.6210029 C177.058818,13.3812878 177.394574,12.1435906 177.737112,10.9079115 C177.952131,10.1336781 178.434397,6.56924483 179.087594,6.17573786 C178.55242,6.06273072 178.016569,5.95039626 177.481395,5.83738912 C177.535659,5.91676318 177.589244,5.99546458 177.642151,6.07483863 L177.98401,4.48264888 L177.811046,4.6097819 C176.616571,5.49164112 177.874805,7.42756089 179.076063,6.54099305" id="Fill-13"></path>
                    <path d="M172.750611,26.0119364 C172.668284,25.8867471 172.58661,25.7622651 172.504936,25.6370758 L171.429452,27.9442367 C176.205096,27.2956571 180.982046,26.6477848 185.758342,25.9992053 C187.511393,25.7615578 187.36438,22.7732823 185.593687,23.0137589 C180.817391,23.6623385 176.041094,24.3102108 171.264798,24.9587903 C170.163832,25.1080273 169.712338,26.2389746 170.188007,27.2659512 C170.791742,28.5659394 171.62155,28.9217033 172.914613,28.9973827 C174.684652,29.1006462 174.51085,26.1144926 172.750611,26.0119364" id="Fill-15"></path>
                    <path d="M210.12828,2.13952269 C209.806039,1.69420532 209.482478,1.24888795 209.160238,0.802903945 C208.307094,-0.375720463 205.885669,-0.333721969 205.731812,1.44488093 C204.72217,13.072464 203.915908,24.8187095 204.007034,36.4982908 C204.043352,41.1154586 206.763245,41.3047851 210.657203,40.8154693 C216.53875,40.0768291 222.420957,39.338189 228.302504,38.5988821 C230.698837,38.2982262 230.498097,34.4903628 228.078653,34.7943519 C223.457013,35.3749977 218.835373,35.9556436 214.213733,36.5356228 C213.40483,36.6376191 208.379069,37.8189101 207.911557,37.3275944 C207.107937,36.482958 207.831657,32.2024448 207.856749,31.0504861 C208.062112,21.4301644 208.592355,11.8218422 209.423709,2.23685253 C208.28068,2.45084486 207.137652,2.66483719 205.994623,2.87816287 C206.317523,3.32414688 206.639764,3.76946425 206.962664,4.21544826 C208.392276,6.19004413 211.565155,4.12478484 210.12828,2.13952269" id="Fill-17"></path>
                    <path d="M248.90375,1.69513086 C245.948347,13.0524783 242.993619,24.4104973 240.038216,35.7678448 C240.896301,35.9491755 241.753712,36.1311778 242.611798,36.3125085 C243.925235,30.5690259 244.967485,24.7731588 245.66839,18.9235641 C246.330168,13.4010362 245.772277,6.88051786 248.486175,1.89392306 C247.801461,2.0154818 247.117421,2.13771214 246.432706,2.25927088 C252.398154,6.78582293 255.307685,15.2224026 258.462768,21.7509801 C261.748048,28.5495389 265.124398,35.2923553 269.545023,41.4441679 C270.528583,42.8122074 272.739232,41.3917835 271.751624,40.017028 C266.930965,33.3091345 263.365728,25.8980808 259.783626,18.4903851 C256.754017,12.2244013 253.929486,4.66693989 248.204194,0.322390152 C247.5269,-0.192051817 246.581792,-0.105416028 246.150051,0.687737973 C243.456391,5.63739504 243.84968,11.6763796 243.239846,17.1257035 C242.537592,23.3990749 241.445422,29.6140174 240.038216,35.7678448 C239.661117,37.4172827 242.188826,37.9391122 242.611798,36.3125085 C245.5672,24.9551611 248.522603,13.5971421 251.477332,2.23979462 C251.902327,0.606474947 249.32807,0.0658407629 248.90375,1.69513086" id="Fill-19"></path>
                    <path d="M242.171466,26.889149 C248.548109,24.6300496 255.205867,23.7599868 261.979418,24.4264179 C264.132631,24.6377098 264.862193,21.4689702 262.685554,21.2551249 C255.300241,20.5293278 248.070212,21.3432164 241.103226,23.8110543 C239.059113,24.5349364 240.112628,27.6187762 242.171466,26.889149" id="Fill-21"></path>
                    <path d="M285.109329,39.5115009 C286.082549,39.7134137 286.984161,39.0028761 286.999785,37.8975952 C287.018012,36.6497877 285.874234,36.1055312 284.887994,36.019596 C282.590022,35.8204778 280.155344,37.1493299 279.309716,39.5261727 C278.547415,41.6703616 279.202955,44.3811641 281.15851,45.5053087 C283.076958,46.6084935 285.529864,45.7945541 286.564928,43.7789188 C287.291426,42.366926 285.219996,41.2204243 284.497404,42.6275264 C283.549572,44.4705926 281.361617,43.196236 281.321907,41.4377077 C281.300424,40.4938174 281.715752,39.6994405 282.427277,39.1579787 C282.909655,38.7904833 284.511726,38.0184635 285.03056,38.6500525 C284.904269,38.3663964 284.777327,38.0834389 284.651687,37.7997828 C284.740221,37.6272137 284.828755,37.4546445 284.917289,37.2820754 C285.20958,37.2240866 285.501872,37.1660978 285.794163,37.1074103 C285.727112,37.0941357 285.660712,37.0801625 285.59366,37.0661893 C284.123089,36.7608747 283.6342,39.2054876 285.109329,39.5115009" id="Fill-23"></path>
                    <path d="M282.060661,30.009289 C276.406355,31.5609247 271.544819,36.328641 272.033989,42.7506699 C272.481193,48.6268905 277.521086,51.9382174 282.886217,51.9990129 C288.157581,52.0591329 293.802707,49.3753503 293.994178,43.3045842 C294.21319,36.3502572 288.21135,32.2648012 283.061296,29.1540993 C281.884927,28.4434677 280.917735,30.3814924 282.088202,31.088071 C285.706485,33.2740061 290.015902,35.7862103 291.420462,40.1526765 C293.291898,45.9681016 288.991006,49.5462532 283.668496,49.8069982 C278.998431,50.035319 274.296236,47.4569153 274.129682,42.1379866 C273.96444,36.8541842 278.163039,33.330073 282.725565,32.0776862 C284.040947,31.7169664 283.374076,29.6485692 282.060661,30.009289" id="Fill-25"></path>
                </g>
            </g>
        </g>
    </g>
</svg>