<?xml version="1.0" encoding="UTF-8"?>
<svg width="596px" height="511px" viewBox="0 0 596 511" version="1.1" xmlns="http://www.w3.org/2000/svg" xmlns:xlink="http://www.w3.org/1999/xlink">
    <!-- Generator: Sketch 46.1 (44463) - http://www.bohemiancoding.com/sketch -->
    <title>Group 2</title>
    <desc>Created with Sketch.</desc>
    <defs>
        <rect id="path-1" x="0" y="0" width="1440" height="1024"></rect>
        <polygon id="path-3" points="0.180254926 0.0840426396 12.6510483 0.0840426396 12.6510483 270.109672 0.180254926 270.109672 0.180254926 0.0840426396"></polygon>
        <polygon id="path-5" points="0.518213426 0.0840426396 12.9890068 0.0840426396 12.9890068 276.075765 0.518213426 276.075765 0.518213426 0.0840426396"></polygon>
    </defs>
    <g id="Page-1" stroke="none" stroke-width="1" fill="none" fill-rule="evenodd">
        <g id="Desktop-HD" transform="translate(-422.000000, -487.000000)">
            <g id="Group-2">
                <mask id="mask-2" fill="white">
                    <use xlink:href="#path-1"></use>
                </mask>
                <g id="Mask"></g>
                <g mask="url(#mask-2)" id="Page-1">
                    <g transform="translate(422.000000, 487.000000)">
                        <g>
                            <g id="Group-77">
                                <path d="M169.677199,256.668089 L162.156271,266.600165 L405.877143,450.563278 C408.624355,452.636848 412.534988,452.094203 414.611375,449.351922 L414.611375,449.351404 C416.688282,446.609123 416.144763,442.705291 413.398071,440.631202 L169.677199,256.668089 Z" id="Fill-1" fill="#594131"></path>
                                <path d="M334.293594,337.03267 L263.625765,337.03267 C260.899338,337.03267 258.689409,334.826291 258.689409,332.104243 C258.689409,329.382196 260.899338,327.175817 263.625765,327.175817 L334.293594,327.175817 C337.020021,327.175817 339.22995,329.382196 339.22995,332.104243 C339.22995,334.826291 337.020021,337.03267 334.293594,337.03267" id="Fill-3" fill="#999999"></path>
                                <path d="M425.983595,256.668089 L433.504523,266.600165 L189.783651,450.563278 C187.036439,452.636848 183.125806,452.094203 181.0489,449.351922 L181.0489,449.351404 C178.972513,446.609123 179.515512,442.705291 182.262724,440.631202 L425.983595,256.668089 Z" id="Fill-5" fill="#594131"></path>
                                <path d="M360.610346,471.55521 L367.349251,471.0909 L363.253115,411.835651 C363.144515,410.261668 361.777924,409.073139 360.201407,409.182083 L359.172047,409.252637 C357.595531,409.361062 356.40561,410.725458 356.51421,412.299442 L360.610346,471.55521 Z" id="Fill-7" fill="#3F2C0F"></path>
                                <path d="M234.381599,471.55521 L227.642174,471.0909 L231.73831,411.835651 C231.847429,410.261668 233.214021,409.073139 234.790537,409.182083 L235.819897,409.252637 C237.396413,409.361062 238.586334,410.725458 238.477735,412.299442 L234.381599,471.55521 Z" id="Fill-9" fill="#3F2C0F"></path>
                                <g id="Group-13" transform="translate(450.507411, 0.000000)">
                                    <mask id="mask-4" fill="white">
                                        <use xlink:href="#path-3"></use>
                                    </mask>
                                    <g id="Clip-12"></g>
                                    <path d="M12.6510483,6.17479949 L12.6510483,270.109672 L0.180254926,270.109672 L0.180254926,6.17479949 C0.180254926,2.80946244 2.97059494,0.0837832487 6.41565161,0.0837832487 C8.14077803,0.0837832487 9.6996272,0.763906091 10.8271948,1.8652797 C11.9547623,2.9666533 12.6510483,4.48927766 12.6510483,6.17479949" id="Fill-11" fill="#775741" mask="url(#mask-4)"></path>
                                </g>
                                <g id="Group-16" transform="translate(131.982563, 0.000000)">
                                    <mask id="mask-6" fill="white">
                                        <use xlink:href="#path-5"></use>
                                    </mask>
                                    <g id="Clip-15"></g>
                                    <path d="M12.9890068,6.30926772 L12.9890068,276.075765 L0.518213426,276.075765 L0.518213426,6.30926772 C0.518213426,4.58691239 1.21969555,3.03056721 2.34726312,1.90481086 C3.47431107,0.779054518 5.03316024,0.0838870051 6.75361011,0.0838870051 C10.1986668,0.0838870051 12.9890068,2.86974487 12.9890068,6.30926772" id="Fill-14" fill="#775741" mask="url(#mask-6)"></path>
                                </g>
                                <path d="M450.106527,44.7824726 C450.106527,64.4961782 144.831897,72.0185132 144.831897,48.6733356 C144.831897,48.6733356 145.468427,127.039466 144.831897,133.753539 C141.194582,172.143386 449.846718,172.143386 450.106527,129.862676 C450.323726,94.5289711 450.106527,44.7824726 450.106527,44.7824726" id="Fill-17" fill="#3E3D4D"></path>
                                <path d="M412.755669,243.826218 C412.755669,259.47475 325.979732,265.700131 305.195076,265.700131 C284.410421,265.700131 179.776827,257.229463 179.776827,243.826218 C179.776827,230.422973 141.775721,280.374391 141.775721,295.53008 C141.775721,310.685769 266.223847,317.059522 296.881214,317.059522 C327.538581,317.059522 446.011118,309.796577 450.687666,297.345816 C455.364213,284.895055 412.755669,243.826218 412.755669,243.826218" id="Fill-19" fill="#3E3D4D"></path>
                                <path d="M453.893647,297.2349 L461.414574,307.166458 L193.037905,509.740346 C190.290693,511.813398 186.38058,511.271271 184.303673,508.528472 C182.226766,505.786192 182.770285,501.881841 185.516977,499.80827 L453.893647,297.2349 Z" id="Fill-21" fill="#775741"></path>
                                <polygon id="Fill-23" fill="#3F2C0F" points="412.755669 234.054445 412.755669 248.061552 450.687666 297.345816 450.687666 275.038202"></polygon>
                                <polygon id="Fill-25" fill="#594131" points="425.746079 234.054445 473.550787 276.075765 450.687666 275.038202 412.755669 234.054445"></polygon>
                                <path d="M450.687666,177.185541 L450.687666,184.251348 C450.687666,184.251348 415.88376,187.452231 415.88376,193.636109 C414.606023,192.795683 413.794902,191.618048 413.794902,189.957947 C413.794902,183.732566 450.687666,177.185541 450.687666,177.185541" id="Fill-27" fill="#775741"></path>
                                <path d="M450.687666,184.2514 L450.687666,192.723105 C450.687666,192.723105 434.579557,195.664598 429.90301,195.664598 L426.233999,195.664598 C422.716715,195.612719 418.398703,195.285887 415.88376,193.636161 C415.88376,187.452283 450.687666,184.2514 450.687666,184.2514" id="Fill-29" fill="#594131"></path>
                                <path d="M429.90301,193.848862 L429.90301,238.981834 C429.90301,239.86065 429.435355,240.621184 428.744265,241.025834 C428.422103,241.209483 428.047979,241.31739 427.653071,241.31739 L424.878319,241.31739 C423.635917,241.31739 422.62838,240.270488 422.62838,238.981834 L422.62838,193.848862 L429.90301,193.848862 Z" id="Fill-31" fill="#775741"></path>
                                <path d="M592.023324,184.2514 L463.158459,184.2514 L463.158459,176.988456 L592.023324,176.988456 C594.032161,176.988456 595.660639,178.614317 595.660639,180.619928 C595.660639,182.625538 594.032161,184.2514 592.023324,184.2514" id="Fill-33" fill="#775741"></path>
                                <polygon id="Fill-35" fill="#3F2C0F" points="462.508938 309.3746 450.687666 297.345608 464.327596 283.76079 476.148869 297.345608"></polygon>
                                <path d="M470.849717,275.038254 L450.762386,275.038254 C450.721337,275.038254 450.687562,275.071456 450.687562,275.112958 L450.687562,297.345868 L476.148765,297.345868 L476.148765,280.32879 C476.148765,277.406492 473.776716,275.038254 470.849717,275.038254" id="Fill-37" fill="#775741"></path>
                                <polygon id="Fill-39" fill="#3F2C0F" points="182.905073 234.054445 182.905073 248.061552 144.973077 297.345816 144.973077 275.038202"></polygon>
                                <polygon id="Fill-41" fill="#594131" points="169.914664 234.054445 122.109956 276.075765 144.973077 275.038202 182.905073 234.054445"></polygon>
                                <path d="M144.973077,177.185541 L144.973077,184.251348 C144.973077,184.251348 179.776463,187.452231 179.776463,193.636109 C181.054719,192.795683 181.865841,191.618048 181.865841,189.957947 C181.865841,183.732566 144.973077,177.185541 144.973077,177.185541" id="Fill-43" fill="#775741"></path>
                                <path d="M144.973077,184.2514 L144.973077,192.723105 C144.973077,192.723105 161.081185,195.664598 165.757733,195.664598 L169.426224,195.664598 C172.944027,195.612719 177.262039,195.285887 179.776463,193.636161 C179.776463,187.452283 144.973077,184.2514 144.973077,184.2514" id="Fill-45" fill="#594131"></path>
                                <path d="M165.757733,193.848862 L165.757733,238.981834 C165.757733,239.86065 166.224868,240.621184 166.915957,241.025834 C167.238639,241.209483 167.612763,241.31739 168.007671,241.31739 L170.782423,241.31739 C172.024306,241.31739 173.032362,240.270488 173.032362,238.981834 L173.032362,193.848862 L165.757733,193.848862 Z" id="Fill-47" fill="#775741"></path>
                                <path d="M3.63741866,184.2514 L132.502284,184.2514 L132.502284,176.988456 L3.63741866,176.988456 C1.62858169,176.988456 0.000103923278,178.614317 0.000103923278,180.619928 C0.000103923278,182.625538 1.62858169,184.2514 3.63741866,184.2514" id="Fill-49" fill="#775741"></path>
                                <polygon id="Fill-51" fill="#3F2C0F" points="133.151804 309.3746 144.973077 297.345608 131.333147 283.76079 119.511874 297.345608"></polygon>
                                <path d="M124.810558,275.038254 L144.897888,275.038254 C144.939458,275.038254 144.973233,275.071456 144.973233,275.112958 L144.973233,297.345868 L119.51203,297.345868 L119.51203,280.32879 C119.51203,277.406492 121.884078,275.038254 124.810558,275.038254" id="Fill-53" fill="#775741"></path>
                                <path d="M148.270926,44.7353783 C148.250142,51.0074493 148.089061,144.045764 148.089061,144.045764 C148.089061,144.045764 148.089061,146.494414 144.971362,147.765429 C144.160761,148.097449 143.142312,148.346465 141.853664,148.455409 C136.741158,148.88081 133.498232,147.386718 132.500569,145.835561 C132.277134,145.493165 132.162818,145.150769 132.162818,144.823937 C132.162818,143.03414 132.240761,45.5239265 132.240761,42.9507691 C132.240761,43.4695509 132.329095,43.9468301 132.500569,44.3774189 C133.908729,48.0244544 140.772862,48.6262412 144.971362,47.412292 C146.88355,46.8571955 148.244945,45.9285762 148.270926,44.7353783" id="Fill-55" fill="#3F2C0F"></path>
                                <path d="M148.270926,44.6940832 L148.270926,44.6992711 L148.270926,44.7355858 C148.244945,45.9287838 146.88355,46.857403 144.971362,47.4124995 L144.971362,42.8990985 C147.662975,42.8990985 148.234553,44.5851391 148.270926,44.6940832" id="Fill-57" fill="#3F2C0F"></path>
                                <path d="M447.569967,44.7353783 C447.590752,51.0074493 447.751833,144.045764 447.751833,144.045764 C447.751833,144.045764 447.751833,146.494414 450.869531,147.765429 C451.680133,148.097449 452.698581,148.346465 453.98723,148.455409 C459.099735,148.88081 462.342661,147.386718 463.340325,145.835561 C463.56376,145.493165 463.678075,145.150769 463.678075,144.823937 C463.678075,143.03414 463.600133,45.5239265 463.600133,42.9507691 C463.600133,43.4695509 463.511798,43.9468301 463.340325,44.3774189 C461.932164,48.0244544 455.068032,48.6262412 450.869531,47.412292 C448.957343,46.8571955 447.595948,45.9285762 447.569967,44.7353783" id="Fill-59" fill="#3F2C0F"></path>
                                <path d="M447.569967,44.6938239 L447.569967,44.6990117 L447.569967,44.7353264 C447.595948,45.9285244 448.957343,46.8571437 450.869531,47.4122401 L450.869531,42.8988391 C448.177918,42.8988391 447.60634,44.5848797 447.569967,44.6938239" id="Fill-61" fill="#3F2C0F"></path>
                                <path d="M376.382522,368.159573 L221.536837,368.159573 C218.81041,368.159573 216.600482,365.953195 216.600482,363.231147 C216.600482,360.509099 218.81041,358.302721 221.536837,358.302721 L376.382522,358.302721 C379.108949,358.302721 381.318877,360.509099 381.318877,363.231147 C381.318877,365.953195 379.108949,368.159573 376.382522,368.159573" id="Fill-63" fill="#999999"></path>
                                <path d="M141.767096,297.2349 L134.245648,307.166458 L402.622838,509.740346 C405.37005,511.813398 409.280163,511.271271 411.35707,508.528472 C413.433457,505.786192 412.890458,501.881841 410.143246,499.80827 L141.767096,297.2349 Z" id="Fill-65" fill="#775741"></path>
                                <path d="M299.739104,422.631655 C299.739104,423.777643 298.808471,424.706782 297.660639,424.706782 C296.512806,424.706782 295.582173,423.777643 295.582173,422.631655 C295.582173,421.485666 296.512806,420.556528 297.660639,420.556528 C298.808471,420.556528 299.739104,421.485666 299.739104,422.631655" id="Fill-67" fill="#CCCCCC"></path>
                                <path d="M376.64233,362.971756 C376.64233,364.117745 375.711697,365.046883 374.563864,365.046883 C373.416032,365.046883 372.485399,364.117745 372.485399,362.971756 C372.485399,361.825767 373.416032,360.896629 374.563864,360.896629 C375.711697,360.896629 376.64233,361.825767 376.64233,362.971756" id="Fill-69" fill="#CCCCCC"></path>
                                <path d="M225.43396,362.971756 C225.43396,364.117745 224.503327,365.046883 223.355495,365.046883 C222.207662,365.046883 221.277029,364.117745 221.277029,362.971756 C221.277029,361.825767 222.207662,360.896629 223.355495,360.896629 C224.503327,360.896629 225.43396,361.825767 225.43396,362.971756" id="Fill-71" fill="#CCCCCC"></path>
                                <path d="M265.444422,331.844853 C265.444422,332.990841 264.513789,333.919979 263.365957,333.919979 C262.218124,333.919979 261.287491,332.990841 261.287491,331.844853 C261.287491,330.698864 262.218124,329.769726 263.365957,329.769726 C264.513789,329.769726 265.444422,330.698864 265.444422,331.844853" id="Fill-73" fill="#CCCCCC"></path>
                                <path d="M335.073019,331.844853 C335.073019,332.990841 334.142386,333.919979 332.994553,333.919979 C331.84672,333.919979 330.916088,332.990841 330.916088,331.844853 C330.916088,330.698864 331.84672,329.769726 332.994553,329.769726 C334.142386,329.769726 335.073019,330.698864 335.073019,331.844853" id="Fill-75" fill="#CCCCCC"></path>
                            </g>
                        </g>
                        <g transform="translate(182.400000, 93.563380)">
                            <path d="M23.1538709,3.5132385 C17.3538115,-0.390413292 7.66843181,-0.435773927 3.27784806,5.71164692 C1.6127875,8.04402744 1.32444905,11.3769792 3.40510358,13.5796072 C5.97169161,16.2980805 10.0025235,14.6951623 13.2091477,14.5000061 C18.3391021,14.1877561 25.2629834,15.2611153 28.5963262,19.5698481 C31.7814727,23.6871169 30.3983072,29.5592092 26.6252081,32.7782319 C22.6427011,36.1755324 17.0890985,36.6650053 12.1803647,35.1586103 C7.30277356,33.6622368 1.80930867,30.101427 1.66433404,24.5727041 C1.63694994,23.5199155 -0.0275736797,23.6159112 0.000347361609,24.6702823 C0.165188894,30.9511478 6.25466062,35.0810753 11.8340364,36.7599462 C17.9584094,38.6033813 25.2162693,37.4551243 29.3840217,32.3393941 C32.8505264,28.0849886 33.0153679,21.5535847 29.0140679,17.57609 C23.709607,12.3037075 15.5212247,12.6655376 8.68003262,13.430339 C5.45622623,13.7905869 2.85527384,11.7272055 3.75680131,8.39003414 C4.39254194,6.03655565 6.80717507,4.32972992 8.97588827,3.43570346 C13.4255358,1.60070757 18.4599143,2.32436792 22.3860423,4.9668886 C23.2703875,5.56185133 24.0274773,4.1013444 23.1538709,3.5132385" id="Fill-1" fill="#F2F2F2"></path>
                            <path d="M40.8048241,2.5589193 C41.2538973,9.04621953 41.7035168,15.5329902 42.1520437,22.0197608 C42.3705708,25.1755014 42.5896442,28.331242 42.807625,31.4869826 C42.9480286,33.5157864 42.4902144,36.3426606 43.9865787,37.9488632 C44.5323502,38.5340441 45.5020642,38.4673176 46.1423486,38.1183273 C46.2259352,38.0733134 46.3089755,38.0277699 46.3925621,37.9822264 C47.0497824,37.6247629 47.3699246,36.6810593 47.109331,36.0047914 C47.0825615,35.9364761 47.0563382,35.8681609 47.0306613,35.8003752 C46.2363152,33.737149 42.8699052,34.8010662 43.6691681,36.8780614 C43.6953913,36.9463767 43.7221609,37.0146919 43.7483842,37.0824776 C43.9865787,36.4231561 44.2258659,35.7638345 44.4646067,35.1050426 C44.3815665,35.1500565 44.2979798,35.1956 44.2143932,35.2411435 C44.9333474,35.2978081 45.6512089,35.3544726 46.3701631,35.4111372 C47.0011601,36.0884643 46.5985239,35.9131748 46.596885,34.9647051 C46.5957923,34.2672541 46.4996404,33.5565637 46.4510181,32.8607015 C46.3537736,31.4578559 46.256529,30.0555399 46.1598308,28.6526943 C45.953869,25.6727728 45.7473609,22.6923217 45.5408527,19.7118707 C45.1404018,13.9257284 44.7394046,8.14064537 44.3389537,2.35450315 C44.186531,0.155175976 40.6518551,0.348471043 40.8048241,2.5589193" id="Fill-3" fill="#F2F2F2"></path>
                            <path d="M52.8051466,1.4216341 C52.7075418,14.0829035 53.9991268,26.6655611 56.6050195,39.0384104 C56.971683,40.7790229 59.5295481,39.898359 59.1644339,38.1673074 C56.6086345,26.0345426 55.4001944,13.6691295 55.4962499,1.25644323 C55.5101934,-0.526130916 52.8190901,-0.358815404 52.8051466,1.4216341" id="Fill-5" fill="#F2F2F2"></path>
                            <path d="M43.5950432,19.7991523 C42.7494199,19.1440955 42.3633154,18.9895251 41.3181142,18.9699883 C41.3757579,19.991647 41.4334017,21.0133057 41.4915893,22.035539 C46.1547529,21.8430443 50.8179165,21.6511242 55.4810801,21.459204 C57.3485208,21.3822061 57.1804838,18.31723 55.3086926,18.3942279 C50.6449852,18.5861481 45.9818216,18.7780682 41.3181142,18.9699883 C39.432184,19.0475609 39.6410067,22.0010624 41.4915893,22.035539 C41.5405321,22.0470313 41.5894749,22.0585235 41.6389616,22.0700157 C43.1344368,23.2290065 45.1019384,20.9667622 43.5950432,19.7991523" id="Fill-7" fill="#F2F2F2"></path>
                            <path d="M74.0803397,1.80267912 C68.7294043,4.66045931 66.5247088,12.9181773 66.4041065,18.5859648 C66.2813883,24.3739896 68.9097788,30.5286304 74.2030578,33.2264522 C78.5992247,35.46748 84.5293687,34.4379491 87.5417825,30.3434436 C91.0884434,25.5232209 89.4772384,17.6739873 87.011238,12.7442628 C83.7200636,6.16396087 77.2916415,1.81609845 70.1470107,0.809112045 C69.0959719,0.660962659 68.7431572,2.30617233 69.8021303,2.45539526 C76.3998189,3.38562311 82.2775961,7.24985293 85.4291257,13.2778153 C88.3775355,18.9171539 89.9178601,29.1131596 82.6499823,32.0305216 C76.2934984,34.5823411 70.3818679,29.6193367 68.6490027,23.5484325 C67.5826241,19.8108811 68.0502227,15.7797149 69.1763735,12.116775 C70.2141883,8.74047193 71.7529261,4.94011812 74.9837993,3.21439248 C75.9290466,2.70928895 75.0187105,1.30133301 74.0803397,1.80267912" id="Fill-9" fill="#F2F2F2"></path>
                            <path d="M102.07862,2.50604037 C101.245547,3.10026584 101.930756,7.97002906 101.938792,9.09862995 L101.995581,17.0095237 C102.032011,22.1074652 102.068441,27.2054068 102.105407,32.3028139 C102.112907,33.3977491 103.756017,33.2721709 103.791376,32.2028857 C103.97567,26.708972 104.159964,21.2150583 104.344258,15.7206102 C104.439084,12.8771986 104.45462,10.014015 104.703739,7.17861906 C104.747669,6.67790929 104.792135,3.73937884 105.224476,3.50532241 C106.3806,2.87850004 106.714365,5.31097696 106.959197,6.00619938 C110.068623,14.8388907 111.859597,24.1968731 117.223946,32.0591387 C117.679324,32.727108 118.864377,32.4155671 118.775445,31.5504133 C117.699682,21.0948238 116.026571,11.0250533 120.906612,1.21766122 C120.389089,1.17651432 119.872101,1.13590179 119.354578,1.0942205 C123.73799,12.3845044 123.314221,24.7868236 127.147965,36.2294045 C127.492445,37.2570084 129.097518,36.7317174 128.751431,35.7003728 C124.918222,24.2583263 125.343598,11.8602821 120.958043,0.565188834 C120.705175,-0.0878179315 119.742988,-0.234236797 119.406545,0.441748112 C114.374889,10.554803 115.977283,20.8420642 117.08894,31.6503415 C117.605928,31.4809445 118.122915,31.3110131 118.640439,31.1416161 C115.102422,25.9555026 113.116975,20.0677542 111.297072,14.114812 C110.414175,11.2270473 109.564494,8.32699184 108.563198,5.47663334 C108.116928,4.20856046 107.571547,1.21552372 106.049514,0.66725454 C102.510425,-0.607230842 102.875799,9.42353021 102.81151,11.2355973 C102.561856,18.2578247 102.340596,25.2805865 102.105407,32.3028139 C102.667397,32.2696826 103.229386,32.236017 103.791376,32.2028857 C103.741552,25.1710395 103.690657,18.1391933 103.640298,11.1078815 C103.63119,9.90072746 104.769634,-1.48253778 101.158757,1.09315175 C100.27586,1.722646 101.192509,3.13820649 102.07862,2.50604037" id="Fill-11" fill="#F2F2F2"></path>
                            <path d="M143.26085,5.23074718 C143.306431,5.1968583 143.352555,5.16296943 143.398679,5.12908055 C143.79643,4.83537696 143.965732,4.28992744 143.671624,3.85528917 C143.628756,3.79181477 143.585888,3.72834036 143.543563,3.66486596 C143.257594,3.24259981 142.692712,3.13286441 142.258061,3.39429288 C141.075118,4.10649718 140.981785,6.16887732 140.64915,7.35176045 C139.954577,9.82026917 139.294191,12.2979225 138.666906,14.7841826 C137.371094,19.9229195 136.227763,25.0966212 135.211951,30.2966808 C135.817531,30.4241676 136.422569,30.5516543 137.028692,30.6796789 C138.390705,21.5393651 139.796671,12.400665 142.316666,3.49058032 C141.719768,3.52285544 141.12287,3.55566847 140.525972,3.58794359 C144.569142,13.7250207 149.70138,23.3655989 155.877104,32.3848811 C156.548886,33.3660447 158.107875,32.3649781 157.435008,31.3822007 C151.346648,22.4904053 146.27627,13.0047476 142.290077,3.00968104 C141.944961,2.14470783 140.751165,2.21786477 140.499383,3.10758223 C137.97993,12.0176669 136.574507,21.156367 135.211951,30.2966808 C135.038851,31.4580472 136.7997,31.8534174 137.028692,30.6796789 C137.880628,26.3182344 138.818301,21.9745413 139.867756,17.6555924 C140.351786,15.6626037 140.856436,13.6744564 141.383334,11.6922261 C141.647055,10.700842 141.915659,9.71107169 142.189689,8.72291511 C142.361705,8.10377073 142.747518,5.25333976 143.270075,4.93865735 C142.841936,4.84828701 142.413255,4.7584546 141.985116,4.66808426 C142.028527,4.73155866 142.071395,4.79449515 142.113721,4.85796955 L142.387208,3.58471608 L142.248837,3.68638271 C141.293257,4.39159407 142.299844,5.93972397 143.26085,5.23074718" id="Fill-13" fill="#F2F2F2"></path>
                            <path d="M138.200489,20.8014077 C138.134627,20.7012954 138.069288,20.6017488 138.003949,20.5016365 L137.143562,22.3466431 C140.964076,21.8279824 144.785636,21.3098874 148.606674,20.7912268 C150.009115,20.6011832 149.891504,18.2114981 148.47495,18.4038041 C144.653913,18.9224647 140.832875,19.4405598 137.011838,19.9592204 C136.131065,20.0785633 135.76987,20.9829672 136.150406,21.804227 C136.633393,22.8438107 137.29724,23.1283105 138.33169,23.1888303 C139.747722,23.2714088 139.60868,20.8834205 138.200489,20.8014077" id="Fill-15" fill="#F2F2F2"></path>
                            <path d="M168.102624,1.7109485 C167.844832,1.35483399 167.585983,0.998719475 167.32819,0.642071856 C166.645675,-0.300458774 164.708535,-0.266873124 164.58545,1.15545251 C163.777736,10.4538797 163.132727,19.8471996 163.205627,29.1872091 C163.234681,32.8794982 165.410596,33.0309001 168.525762,32.6396007 C173.231,32.0489197 177.936766,31.4582387 182.642003,30.8670247 C184.559069,30.6265941 184.398477,27.5814951 182.462922,27.8245912 C178.76561,28.2889262 175.068298,28.7532611 171.370986,29.217063 C170.723864,29.2986281 166.703255,30.2432912 166.329245,29.8503924 C165.686349,29.1749476 166.265326,25.7518768 166.2854,24.8306704 C166.449689,17.1374241 166.873884,9.45377365 167.538967,1.78878192 C166.624544,1.9599088 165.710121,2.13103568 164.795698,2.30162946 C165.054019,2.65827708 165.311811,3.0143916 165.570132,3.37103922 C166.713821,4.95009789 169.252124,3.29853686 168.102624,1.7109485" id="Fill-17" fill="#F2F2F2"></path>
                            <path d="M199.123,1.35557413 C196.758677,10.4378974 194.394895,19.5207576 192.030573,28.6030809 C192.717041,28.7480887 193.40297,28.8936336 194.089438,29.0386414 C195.140188,24.4456529 195.973988,19.8107733 196.534712,15.1329284 C197.064134,10.7166346 196.617822,5.50226076 198.78894,1.51454567 C198.241169,1.61175462 197.693937,1.70950063 197.146165,1.80670958 C201.918523,5.42653446 204.246148,12.1731576 206.770214,17.3939763 C209.398438,22.8306954 212.099519,28.2228381 215.636018,33.1423627 C216.422866,34.2363662 218.191386,33.1004716 217.401299,32.0010975 C213.544772,26.6368822 210.692582,20.7103588 207.826901,14.7865208 C205.403214,9.77569497 203.143589,3.73209121 198.563355,0.257811217 C198.02152,-0.153581343 197.265434,-0.0842998285 196.920041,0.549975124 C194.765113,4.50815159 195.079744,9.33744911 194.591877,13.6952027 C194.030074,18.7119362 193.156338,23.6819451 192.030573,28.6030809 C191.728894,29.922115 193.751061,30.3394153 194.089438,29.0386414 C196.45376,19.9563182 198.818083,10.8734579 201.181865,1.79113466 C201.521861,0.484990137 199.462456,0.0526520029 199.123,1.35557413" id="Fill-19" fill="#F2F2F2"></path>
                            <path d="M193.737173,21.5029032 C198.838487,19.6963308 204.164694,19.0005528 209.583535,19.5334891 C211.306105,19.7024565 211.889755,17.1684566 210.148443,16.9974473 C204.240193,16.4170368 198.456169,17.0678929 192.882581,19.0413908 C191.24729,19.6202699 192.090102,22.0863766 193.737173,21.5029032" id="Fill-21" fill="#F2F2F2"></path>
                            <path d="M228.087463,31.596834 C228.866039,31.7583011 229.587329,31.1900934 229.599828,30.3062147 C229.61441,29.3083592 228.699388,28.8731244 227.910395,28.8044031 C226.072018,28.6451708 224.124275,29.7078366 223.447773,31.6085669 C222.837932,33.3232469 223.362364,35.4910404 224.926808,36.3900043 C226.461567,37.2722069 228.423891,36.6213101 229.251942,35.0094327 C229.83314,33.8802805 228.175997,32.9634379 227.597923,34.0886792 C226.839658,35.5625553 225.089293,34.5434688 225.057525,33.1371966 C225.040339,32.3823798 225.372601,31.7471269 225.941821,31.3141269 C226.327724,31.0202456 227.609381,30.4028714 228.024448,30.907945 C227.923415,30.6811089 227.821862,30.4548314 227.72135,30.2279953 C227.792177,30.089994 227.863004,29.9519927 227.933831,29.8139914 C228.167664,29.7676185 228.401497,29.7212456 228.635331,29.674314 C228.58169,29.6636985 228.528569,29.6525243 228.474928,29.6413502 C227.298471,29.397194 226.90736,31.3521192 228.087463,31.596834" id="Fill-23" fill="#F2F2F2"></path>
                            <path d="M225.648529,23.9980386 C221.125084,25.2388615 217.235855,29.0515424 217.627191,34.1871554 C217.984954,38.8862927 222.016868,41.5343178 226.308974,41.5829352 C230.526065,41.6310124 235.042165,39.4848263 235.195342,34.6301135 C235.370552,29.0688285 230.56908,25.8017424 226.449036,23.3141545 C225.507942,22.7458717 224.734188,24.2956849 225.670561,24.8607265 C228.565188,26.6087905 232.012721,28.6177675 233.13637,32.1095739 C234.633518,36.7600938 231.192804,39.6214951 226.934797,39.8300095 C223.198745,40.0125947 219.436989,37.9506787 219.303746,33.6972005 C219.171552,29.4718124 222.530431,26.6536265 226.180452,25.652109 C227.232758,25.363646 226.699261,23.7095757 225.648529,23.9980386" id="Fill-25" fill="#F2F2F2"></path>
                        </g>
                    </g>
                </g>
            </g>
        </g>
    </g>
</svg>