<?xml version="1.0" encoding="UTF-8"?>
<svg width="261px" height="224px" viewBox="0 0 261 224" version="1.1" xmlns="http://www.w3.org/2000/svg" xmlns:xlink="http://www.w3.org/1999/xlink">
    <!-- Generator: Sketch 46.1 (44463) - http://www.bohemiancoding.com/sketch -->
    <title>Group 2</title>
    <desc>Created with Sketch.</desc>
    <defs>
        <rect id="path-1" x="0" y="0" width="375" height="667"></rect>
        <polygon id="path-3" points="0.0789371404 0.0368406091 5.54014028 0.0368406091 5.54014028 118.40424 0.0789371404 118.40424 0.0789371404 0.0368406091"></polygon>
        <polygon id="path-5" points="0.226935745 0.0368406091 5.68813888 0.0368406091 5.68813888 121.019514 0.226935745 121.019514 0.226935745 0.0368406091"></polygon>
    </defs>
    <g id="Page-1" stroke="none" stroke-width="1" fill="none" fill-rule="evenodd">
        <g id="iPhone-7-Copy-2" transform="translate(-57.000000, -413.000000)">
            <g id="Group-2">
                <mask id="mask-2" fill="white">
                    <use xlink:href="#path-1"></use>
                </mask>
                <g id="Mask"></g>
                <g mask="url(#mask-2)" id="Page-1">
                    <g transform="translate(57.000000, 413.000000)">
                        <g>
                            <g id="Group-77">
                                <path d="M74.3049479,112.512039 L71.0113873,116.865826 L177.741501,197.50719 C178.944558,198.416153 180.6571,198.178281 181.566391,196.976185 L181.566391,196.975958 C182.475909,195.773862 182.237891,194.062593 181.035061,193.153403 L74.3049479,112.512039 Z" id="Fill-1" fill="#594131"></path>
                                <path d="M146.393671,147.740348 L115.446853,147.740348 C114.252898,147.740348 113.285127,146.773169 113.285127,145.579942 C113.285127,144.386716 114.252898,143.419536 115.446853,143.419536 L146.393671,143.419536 C147.587627,143.419536 148.555397,144.386716 148.555397,145.579942 C148.555397,146.773169 147.587627,147.740348 146.393671,147.740348" id="Fill-3" fill="#999999"></path>
                                <path d="M186.546507,112.512039 L189.840068,116.865826 L83.1099547,197.50719 C81.9068971,198.416153 80.1943548,198.178281 79.284837,196.976185 L79.284837,196.975958 C78.3755466,195.773862 78.6133365,194.062593 79.8163941,193.153403 L186.546507,112.512039 Z" id="Fill-5" fill="#594131"></path>
                                <path d="M157.918289,206.709133 L160.869387,206.5056 L159.075609,180.530696 C159.028051,179.840731 158.429594,179.319732 157.739207,179.367488 L157.28843,179.398416 C156.598043,179.445945 156.076953,180.044037 156.124511,180.734002 L157.918289,206.709133 Z" id="Fill-7" fill="#3F2C0F"></path>
                                <path d="M102.640264,206.709133 L99.6889386,206.5056 L101.482716,180.530696 C101.530502,179.840731 102.128959,179.319732 102.819346,179.367488 L103.270123,179.398416 C103.96051,179.445945 104.481599,180.044037 104.434041,180.734002 L102.640264,206.709133 Z" id="Fill-9" fill="#3F2C0F"></path>
                                <g id="Group-13" transform="translate(197.285963, 0.000000)">
                                    <mask id="mask-4" fill="white">
                                        <use xlink:href="#path-3"></use>
                                    </mask>
                                    <g id="Clip-12"></g>
                                    <path d="M5.54014028,2.70676142 L5.54014028,118.40424 L0.0789371404,118.40424 L0.0789371404,2.70676142 C0.0789371404,1.23154518 1.30088134,0.0367269036 2.80953871,0.0367269036 C3.56500514,0.0367269036 4.24765554,0.334862944 4.74143932,0.817656853 C5.2352231,1.30045076 5.54014028,1.96790254 5.54014028,2.70676142" id="Fill-11" fill="#775741" mask="url(#mask-4)"></path>
                                </g>
                                <g id="Group-16" transform="translate(57.797733, 0.000000)">
                                    <mask id="mask-6" fill="white">
                                        <use xlink:href="#path-5"></use>
                                    </mask>
                                    <g id="Clip-15"></g>
                                    <path d="M5.68813888,2.7657064 L5.68813888,121.019514 L0.226935745,121.019514 L0.226935745,2.7657064 C0.226935745,2.01070132 0.534128422,1.32846782 1.02791221,0.834985584 C1.52146844,0.34150335 2.20411883,0.0367723858 2.95753731,0.0367723858 C4.46619468,0.0367723858 5.68813888,1.25797036 5.68813888,2.7657064" id="Fill-14" fill="#775741" mask="url(#mask-6)"></path>
                                </g>
                                <path d="M197.110408,19.6306729 C197.110408,28.2722973 63.4247067,31.5697592 63.4247067,21.3362567 C63.4247067,21.3362567 63.7034556,55.6885328 63.4247067,58.6316882 C61.8318558,75.4601146 196.996633,75.4601146 197.110408,56.9261044 C197.205524,41.4373572 197.110408,19.6306729 197.110408,19.6306729" id="Fill-17" fill="#3E3D4D"></path>
                                <path d="M180.753741,106.882726 C180.753741,113.742356 142.752869,116.47129 133.650864,116.47129 C124.548859,116.47129 78.7277715,112.758121 78.7277715,106.882726 C78.7277715,101.007331 62.0863478,122.903842 62.0863478,129.547432 C62.0863478,136.191022 116.584604,138.984996 130.010062,138.984996 C143.43552,138.984996 195.316949,135.801239 197.364901,130.343371 C199.412852,124.885503 180.753741,106.882726 180.753741,106.882726" id="Fill-19" fill="#3E3D4D"></path>
                                <path d="M198.768862,130.294751 L202.062423,134.64831 L84.5350556,223.447823 C83.3319981,224.356558 81.6196833,224.118913 80.7101655,222.91659 C79.8006476,221.714495 80.038665,220.002999 81.241495,219.094036 L198.768862,130.294751 Z" id="Fill-21" fill="#775741"></path>
                                <polygon id="Fill-23" fill="#3F2C0F" points="180.753741 102.599209 180.753741 108.73931 197.364901 130.343371 197.364901 120.564691"></polygon>
                                <polygon id="Fill-25" fill="#594131" points="186.442494 102.599209 207.377106 121.019514 197.364901 120.564691 180.753741 102.599209"></polygon>
                                <path d="M197.364901,77.670374 L197.364901,80.7677141 C197.364901,80.7677141 182.123593,82.170841 182.123593,84.8815821 C181.564047,84.513176 181.208841,83.9969527 181.208841,83.269237 C181.208841,80.5403029 197.364901,77.670374 197.364901,77.670374" id="Fill-27" fill="#775741"></path>
                                <path d="M197.364901,80.7677369 L197.364901,84.4813612 C197.364901,84.4813612 190.310846,85.7707825 188.262895,85.7707825 L186.656164,85.7707825 C185.115877,85.7480414 183.224935,85.6047724 182.123593,84.8816049 C182.123593,82.1708638 197.364901,80.7677369 197.364901,80.7677369" id="Fill-29" fill="#594131"></path>
                                <path d="M188.262895,84.9748435 L188.262895,104.75916 C188.262895,105.144395 188.0581,105.477779 187.755459,105.65516 C187.614377,105.735664 187.450541,105.782965 187.277603,105.782965 L186.062486,105.782965 C185.518413,105.782965 185.077193,105.32405 185.077193,104.75916 L185.077193,84.9748435 L188.262895,84.9748435 Z" id="Fill-31" fill="#775741"></path>
                                <path d="M259.258536,80.7677369 L202.826104,80.7677369 L202.826104,77.5839805 L259.258536,77.5839805 C260.138245,77.5839805 260.851387,78.2966871 260.851387,79.1758587 C260.851387,80.0550303 260.138245,80.7677369 259.258536,80.7677369" id="Fill-33" fill="#775741"></path>
                                <polygon id="Fill-35" fill="#3F2C0F" points="202.541666 135.616263 197.364901 130.34328 203.338091 124.388292 208.514857 130.34328"></polygon>
                                <path d="M206.194255,120.564714 L197.397622,120.564714 C197.379646,120.564714 197.364855,120.579268 197.364855,120.597461 L197.364855,130.343394 L208.514811,130.343394 L208.514811,122.883853 C208.514811,121.602846 207.476045,120.564714 206.194255,120.564714" id="Fill-37" fill="#775741"></path>
                                <polygon id="Fill-39" fill="#3F2C0F" points="80.0976915 102.599209 80.0976915 108.73931 63.486532 130.343371 63.486532 120.564691"></polygon>
                                <polygon id="Fill-41" fill="#594131" points="74.4089383 102.599209 53.4743262 121.019514 63.486532 120.564691 80.0976915 102.599209"></polygon>
                                <path d="M63.486532,77.670374 L63.486532,80.7677141 C63.486532,80.7677141 78.7276122,82.170841 78.7276122,84.8815821 C79.2873855,84.513176 79.6425913,83.9969527 79.6425913,83.269237 C79.6425913,80.5403029 63.486532,77.670374 63.486532,77.670374" id="Fill-43" fill="#775741"></path>
                                <path d="M63.486532,80.7677369 L63.486532,84.4813612 C63.486532,84.4813612 70.5405861,85.7707825 72.5885372,85.7707825 L74.1950412,85.7707825 C75.7355555,85.7480414 77.6264971,85.6047724 78.7276122,84.8816049 C78.7276122,82.1708638 63.486532,80.7677369 63.486532,80.7677369" id="Fill-45" fill="#594131"></path>
                                <path d="M72.5885372,84.9748435 L72.5885372,104.75916 C72.5885372,105.144395 72.7931048,105.477779 73.0957465,105.65516 C73.2370551,105.735664 73.4008912,105.782965 73.5738293,105.782965 L74.788947,105.782965 C75.3327918,105.782965 75.7742391,105.32405 75.7742391,104.75916 L75.7742391,84.9748435 L72.5885372,84.9748435 Z" id="Fill-47" fill="#775741"></path>
                                <path d="M1.59289643,80.7677369 L58.0253289,80.7677369 L58.0253289,77.5839805 L1.59289643,77.5839805 C0.71318762,77.5839805 4.55100262e-05,78.2966871 4.55100262e-05,79.1758587 C4.55100262e-05,80.0550303 0.71318762,80.7677369 1.59289643,80.7677369" id="Fill-49" fill="#775741"></path>
                                <polygon id="Fill-51" fill="#3F2C0F" points="58.3097665 135.616263 63.486532 130.34328 57.5133411 124.388292 52.3365756 130.34328"></polygon>
                                <path d="M54.6569725,120.564714 L63.4536055,120.564714 C63.4718095,120.564714 63.4866003,120.579268 63.4866003,120.597461 L63.4866003,130.343394 L52.3366439,130.343394 L52.3366439,122.883853 C52.3366439,121.602846 53.3754102,120.564714 54.6569725,120.564714" id="Fill-53" fill="#775741"></path>
                                <path d="M64.9307244,19.6100288 C64.9216224,22.3594298 64.8510819,63.1433486 64.8510819,63.1433486 C64.8510819,63.1433486 64.8510819,64.2167293 63.4857811,64.7738867 C63.1308029,64.9194298 62.6848046,65.0285872 62.1204803,65.0763436 C59.8816146,65.2628207 58.4614742,64.6078765 58.0245779,63.9279172 C57.9267314,63.7778258 57.8766704,63.6277344 57.8766704,63.4844654 C57.8766704,62.6998969 57.9108029,19.9556938 57.9108029,18.8277344 C57.9108029,19.0551456 57.9494864,19.2643639 58.0245779,19.4531151 C58.6412388,21.0518156 61.647176,21.3156126 63.4857811,20.7834705 C64.3231656,20.5401405 64.9193469,20.1330745 64.9307244,19.6100288" id="Fill-55" fill="#3F2C0F"></path>
                                <path d="M64.9307244,19.5919269 L64.9307244,19.594201 L64.9307244,19.6101198 C64.9193469,20.1331655 64.3231656,20.5402315 63.4857811,20.7835614 L63.4857811,18.8050843 C64.6644908,18.8050843 64.9147959,19.5441706 64.9307244,19.5919269" id="Fill-57" fill="#3F2C0F"></path>
                                <path d="M195.9996,19.6100288 C196.008702,22.3594298 196.079242,63.1433486 196.079242,63.1433486 C196.079242,63.1433486 196.079242,64.2167293 197.444543,64.7738867 C197.799521,64.9194298 198.24552,65.0285872 198.809844,65.0763436 C201.04871,65.2628207 202.46885,64.6078765 202.905746,63.9279172 C203.003593,63.7778258 203.053654,63.6277344 203.053654,63.4844654 C203.053654,62.6998969 203.019521,19.9556938 203.019521,18.8277344 C203.019521,19.0551456 202.980838,19.2643639 202.905746,19.4531151 C202.289085,21.0518156 199.283148,21.3156126 197.444543,20.7834705 C196.607159,20.5401405 196.010977,20.1330745 195.9996,19.6100288" id="Fill-59" fill="#3F2C0F"></path>
                                <path d="M195.9996,19.5918132 L195.9996,19.5940873 L195.9996,19.6100061 C196.010977,20.1330518 196.607159,20.5401178 197.444543,20.7834477 L197.444543,18.8049706 C196.265833,18.8049706 196.015528,19.5440569 195.9996,19.5918132" id="Fill-61" fill="#3F2C0F"></path>
                                <path d="M164.825232,161.385018 L97.0152929,161.385018 C95.8213373,161.385018 94.8535666,160.417839 94.8535666,159.224612 C94.8535666,158.031386 95.8213373,157.064206 97.0152929,157.064206 L164.825232,157.064206 C166.019187,157.064206 166.986958,158.031386 166.986958,159.224612 C166.986958,160.417839 166.019187,161.385018 164.825232,161.385018" id="Fill-63" fill="#999999"></path>
                                <path d="M62.0825704,130.294751 L58.7887823,134.64831 L176.316377,223.447823 C177.519434,224.356558 179.231749,224.118913 180.141267,222.91659 C181.050557,221.714495 180.812767,220.002999 179.60971,219.094036 L62.0825704,130.294751 Z" id="Fill-65" fill="#775741"></path>
                                <path d="M131.261588,185.263191 C131.261588,185.765542 130.854045,186.172836 130.351387,186.172836 C129.848729,186.172836 129.441186,185.765542 129.441186,185.263191 C129.441186,184.76084 129.848729,184.353546 130.351387,184.353546 C130.854045,184.353546 131.261588,184.76084 131.261588,185.263191" id="Fill-67" fill="#CCCCCC"></path>
                                <path d="M164.939007,159.110907 C164.939007,159.613258 164.531465,160.020551 164.028806,160.020551 C163.526148,160.020551 163.118606,159.613258 163.118606,159.110907 C163.118606,158.608556 163.526148,158.201262 164.028806,158.201262 C164.531465,158.201262 164.939007,158.608556 164.939007,159.110907" id="Fill-69" fill="#CCCCCC"></path>
                                <path d="M98.7219188,159.110907 C98.7219188,159.613258 98.3143765,160.020551 97.8117183,160.020551 C97.3090601,160.020551 96.9015178,159.613258 96.9015178,159.110907 C96.9015178,158.608556 97.3090601,158.201262 97.8117183,158.201262 C98.3143765,158.201262 98.7219188,158.608556 98.7219188,159.110907" id="Fill-71" fill="#CCCCCC"></path>
                                <path d="M116.243279,145.466237 C116.243279,145.968588 115.835737,146.375881 115.333078,146.375881 C114.83042,146.375881 114.422878,145.968588 114.422878,145.466237 C114.422878,144.963885 114.83042,144.556592 115.333078,144.556592 C115.835737,144.556592 116.243279,144.963885 116.243279,145.466237" id="Fill-73" fill="#CCCCCC"></path>
                                <path d="M146.734996,145.466237 C146.734996,145.968588 146.327454,146.375881 145.824796,146.375881 C145.322138,146.375881 144.914595,145.968588 144.914595,145.466237 C144.914595,144.963885 145.322138,144.556592 145.824796,144.556592 C146.327454,144.556592 146.734996,144.963885 146.734996,145.466237" id="Fill-75" fill="#CCCCCC"></path>
                            </g>
                        </g>
                        <g transform="translate(79.876510, 41.014085)">
                            <path d="M10.1395307,1.54004975 C7.59957181,-0.171140073 3.35815554,-0.191024187 1.43543346,2.50373564 C0.706271036,3.52614901 0.580002018,4.98716895 1.49116113,5.95270451 C2.61511998,7.14436407 4.38029971,6.44171498 5.78454286,6.35616705 C8.03104974,6.21929036 11.0631521,6.68980398 12.5228878,8.57856357 C13.9177254,10.3833937 13.3120104,12.9574616 11.6596968,14.36854 C9.91567949,15.8577676 7.48364886,16.0723311 5.33401877,15.4119936 C3.19802668,14.756049 0.792331483,13.1951461 0.728844268,10.7715963 C0.716852238,10.3100999 -0.012075051,10.3521803 0.000152116409,10.8143703 C0.0723394318,13.5676264 2.73903762,15.3780056 5.18235487,16.113949 C7.86433702,16.9220301 11.0426951,16.4186846 12.867835,14.1761728 C14.3858849,12.3112279 14.4580722,9.44814673 12.705825,7.70458741 C10.3828984,5.39340601 6.79704638,5.5520165 3.80115522,5.88727191 C2.38938766,6.04518876 1.25037999,5.1406928 1.64517641,3.67782318 C1.92357961,2.64616138 2.98099445,1.8979638 3.93071617,1.50606179 C5.87930341,0.701680032 8.08395575,1.01890101 9.8032836,2.17726623 C10.1905556,2.43807182 10.5221,1.7978496 10.1395307,1.54004975" id="Fill-1" fill="#F2F2F2"></path>
                            <path d="M17.8692266,1.12171805 C18.0658845,3.96546609 18.2627817,6.808982 18.4592003,9.6524979 C18.5548976,11.0358362 18.6508341,12.4191746 18.7462921,13.8025129 C18.8077776,14.6918516 18.6072919,15.9310293 19.2625789,16.6351181 C19.5015829,16.8916358 19.9262395,16.8623858 20.2066325,16.7094038 C20.2432367,16.6896716 20.2796017,16.6697074 20.3162059,16.6497431 C20.6040154,16.4930468 20.7442119,16.0793685 20.6300929,15.7829223 C20.61837,15.7529758 20.6068864,15.7230294 20.5956419,15.6933152 C20.2477823,14.7888872 18.7735659,15.2552619 19.1235786,16.1657256 C19.1350623,16.195672 19.1467852,16.2256184 19.1582689,16.2553326 C19.2625789,15.966315 19.3673674,15.6772973 19.4719167,15.3885118 C19.4355518,15.4082439 19.3989475,15.4282082 19.3623433,15.4481725 C19.6771874,15.4730118 19.9915529,15.497851 20.3063969,15.5226903 C20.5827228,15.8196008 20.4064006,15.7427616 20.4056828,15.326994 C20.4052044,15.0212621 20.3630976,14.7097266 20.3418049,14.4046911 C20.2992196,13.7897451 20.2566343,13.1750312 20.2142883,12.5600852 C20.1240936,11.2538182 20.0336597,9.94731912 19.9432258,8.64082002 C19.7678605,6.10442891 19.592256,3.56850208 19.4168908,1.03211097 C19.3501419,0.0680223454 17.8022386,0.15275443 17.8692266,1.12171805" id="Fill-3" fill="#F2F2F2"></path>
                            <path d="M23.1244014,0.623182072 C23.0816584,6.17332754 23.6472686,11.6890131 24.7884398,17.1127278 C24.9490088,17.875736 26.0691477,17.4896916 25.9092571,16.7308745 C24.7900228,11.4124022 24.2608234,5.9919472 24.3028879,0.550769636 C24.3089941,-0.23063273 23.1305076,-0.157288944 23.1244014,0.623182072" id="Fill-5" fill="#F2F2F2"></path>
                            <path d="M19.0911179,8.67908046 C18.720803,8.39193229 18.5517203,8.3241754 18.0940064,8.31561133 C18.1192497,8.76346172 18.144493,9.2113121 18.1699745,9.65941437 C20.2120646,9.57503312 22.2541547,9.49090374 24.2962448,9.40677436 C25.1140335,9.37302186 25.0404468,8.0294707 24.220753,8.0632232 C22.1784247,8.14735258 20.1363346,8.23148195 18.0940064,8.31561133 C17.2681208,8.34961572 17.3595684,9.64430131 18.1699745,9.65941437 C18.1914075,9.66445206 18.2128405,9.66948975 18.2345117,9.67452744 C18.8894094,10.1825782 19.7510166,9.19090947 19.0911179,8.67908046" id="Fill-7" fill="#F2F2F2"></path>
                            <path d="M32.4412226,0.790215506 C30.0979438,2.04294107 29.1324648,5.66276264 29.0796507,8.14727225 C29.02591,10.6844886 30.1769333,13.3824133 32.4949632,14.5650201 C34.4201303,15.5473885 37.0170558,15.0960873 38.3362504,13.3012356 C39.8894022,11.1882612 39.1838242,7.74750127 38.1039146,5.58652615 C36.6626453,2.70201024 33.8475141,0.796097952 30.7187413,0.354679253 C30.2584709,0.289737056 30.1039665,1.01092486 30.5677114,1.07633765 C33.4569677,1.48410876 36.0309607,3.17801772 37.4110768,5.82041217 C38.7022429,8.29245101 39.376781,12.761933 36.1940359,14.0407766 C33.4104079,15.1593824 30.8215898,12.9838188 30.0627344,10.3226005 C29.5957465,8.68422187 29.800517,6.91713528 30.2936803,5.311463 C30.7481597,3.83143975 31.4220029,2.16553123 32.8368651,1.40904876 C33.2508073,1.18763351 32.8521534,0.570447348 32.4412226,0.790215506" id="Fill-9" fill="#F2F2F2"></path>
                            <path d="M44.7022145,1.09853824 C44.3373955,1.35902064 44.6374621,3.49371137 44.6409813,3.98844053 L44.66585,7.45622957 C44.6818035,9.69094366 44.697757,11.9256578 44.7139451,14.1601376 C44.7172296,14.6401092 45.4367794,14.5850612 45.4522637,14.1163335 C45.5329696,11.7080425 45.6136755,9.29975157 45.6943815,6.89122638 C45.7359075,5.64479937 45.7427112,4.38970523 45.851805,3.14679192 C45.871043,2.9273027 45.8905157,1.63917977 46.0798462,1.53657969 C46.5861352,1.26180824 46.7322974,2.32809949 46.8395143,2.63285452 C48.2011925,6.50471923 48.9854947,10.6068485 51.3346476,14.0533211 C51.5340664,14.3461295 52.0530243,14.2095637 52.014079,13.8303182 C51.5429815,9.24704605 50.8102936,4.8329001 52.9473588,0.533769304 C52.7207252,0.515732303 52.4943263,0.49792955 52.2676927,0.479658302 C54.1872742,5.42882386 54.0016974,10.8654569 55.6805687,15.8813828 C55.8314231,16.3318393 56.5343156,16.1015748 56.3827573,15.6494785 C54.7041207,10.6337869 54.8904012,5.19902778 52.9698814,0.24775401 C52.8591453,-0.0384955316 52.4377852,-0.102679144 52.2904499,0.193643008 C50.08699,4.62676295 50.7887094,9.13624733 51.2755258,13.8741223 C51.5019247,13.7998661 51.7283237,13.7253756 51.9549572,13.6511194 C50.4055908,11.3777546 49.5361251,8.79682378 48.7391539,6.18731487 C48.3525161,4.92144537 47.9804242,3.6501882 47.5419376,2.40071598 C47.3465072,1.84484842 47.1076739,0.532832317 46.4411461,0.292495141 C44.8913104,-0.266183383 45.0513147,4.13086256 45.0231614,4.92519332 C44.913833,8.00343 44.816939,11.0819009 44.7139451,14.1601376 C44.9600513,14.1456143 45.2061575,14.1308568 45.4522637,14.1163335 C45.4304449,11.0338803 45.4081569,7.95142722 45.3861036,4.86920834 C45.3821152,4.34004491 45.8806621,-0.649879576 44.2993887,0.479189809 C43.9127509,0.755132492 44.3141691,1.37565216 44.7022145,1.09853824" id="Fill-11" fill="#F2F2F2"></path>
                            <path d="M62.7367145,2.29293027 C62.7566755,2.27807487 62.776874,2.26321947 62.7970726,2.24836408 C62.9712556,2.1196173 63.0453962,1.88051614 62.9166006,1.68998977 C62.8978278,1.66216538 62.879055,1.63434098 62.8605199,1.60651659 C62.7352887,1.42141362 62.4879157,1.37331043 62.2975738,1.48790921 C61.7795399,1.80010835 61.7386675,2.7041654 61.5930001,3.22268951 C61.2888334,4.30477553 60.9996374,5.39087014 60.7249368,6.48073756 C60.1574758,8.73333458 59.6567889,11.0012586 59.2119451,13.2807368 C59.4771404,13.3366214 59.7420981,13.392506 60.0075311,13.4486264 C60.603983,9.44191346 61.219683,5.43590794 62.3232379,1.5301174 C62.0618446,1.5442654 61.8004513,1.55864919 61.5390581,1.57279719 C63.3096411,6.01644744 65.5571479,10.2424543 68.2616178,14.1961122 C68.555804,14.6262114 69.2385157,14.1873877 68.9438542,13.7565811 C66.2776429,9.85880779 64.0572258,5.70071129 62.311594,1.31931223 C62.1604612,0.940145899 61.6376746,0.972214694 61.5274142,1.36222783 C60.424097,5.26801836 59.8086346,9.27402388 59.2119451,13.2807368 C59.136141,13.7898289 59.9072512,13.9631419 60.0075311,13.4486264 C60.3806106,11.5367603 60.7912357,9.63267562 61.2508126,7.73943775 C61.4627788,6.86579889 61.6837749,5.99428224 61.9145139,5.12535939 C62.0300022,4.69078006 62.1476291,4.25690814 62.2676324,3.82374361 C62.3429612,3.55233786 62.5119163,2.30283387 62.7407542,2.16489089 C62.553264,2.1252765 62.3655361,2.0858979 62.1780458,2.04628351 C62.1970562,2.07410791 62.215829,2.1016965 62.2343642,2.1295209 L62.3541298,1.57138239 L62.2935341,1.61594858 C61.8750672,1.92508233 62.3158714,2.60371462 62.7367145,2.29293027" id="Fill-13" fill="#F2F2F2"></path>
                            <path d="M60.520684,9.11842528 C60.4918417,9.07454046 60.4632284,9.03090357 60.4346151,8.98701875 L60.057835,9.79578875 C61.7309127,9.56843066 63.4044482,9.34132051 65.0777548,9.11396242 C65.6919109,9.03065564 65.640407,7.98312245 65.0200703,8.06742098 C63.3467637,8.29477907 61.6734571,8.52188922 60.0001506,8.74924731 C59.6144431,8.80156199 59.4562687,9.19801301 59.6229126,9.55801731 C59.8344222,10.0137252 60.1251335,10.1384375 60.5781395,10.1649667 C61.1982472,10.2011655 61.1373581,9.15437612 60.520684,9.11842528" id="Fill-15" fill="#F2F2F2"></path>
                            <path d="M73.6154108,0.750004823 C73.5025185,0.593899831 73.3891636,0.437794838 73.2762713,0.281456156 C72.9773844,-0.131707956 72.1290731,-0.116985479 72.0751717,0.50649973 C71.721458,4.5825226 71.4389961,8.70014231 71.4709205,12.794393 C71.483644,14.4129307 72.4365195,14.4792987 73.8007114,14.3077702 C75.8612265,14.0488415 77.9219729,13.7899129 79.982488,13.5307505 C80.8220085,13.4253563 80.7516822,12.0905184 79.9040649,12.1970811 C78.28494,12.4006252 76.6658152,12.6041693 75.0466903,12.8074797 C74.763303,12.8432342 73.0026001,13.2573331 72.8388138,13.0851035 C72.5572772,12.7890181 72.8108221,11.288494 72.8196129,10.8846774 C72.8915586,7.51229549 73.0773218,4.14411996 73.3685746,0.784123579 C72.968131,0.859138104 72.5676873,0.934152629 72.1672437,1.00893346 C72.2803673,1.16527215 72.3932595,1.32137714 72.5063831,1.47771582 C73.0072269,2.16990592 74.1187992,1.44593397 73.6154108,0.750004823" id="Fill-17" fill="#F2F2F2"></path>
                            <path d="M87.1998371,0.594224277 C86.1644544,4.57551665 85.129308,8.55704445 84.0939253,12.5383368 C84.3945431,12.6019019 84.6949246,12.6657024 84.9955425,12.7292675 C85.4556864,10.7159026 85.8208236,8.68417459 86.0663755,6.63361244 C86.2982199,4.69770284 86.102771,2.41194992 87.0535459,0.663910431 C86.8136661,0.706522572 86.5740226,0.749370139 86.3341428,0.79198228 C88.4240514,2.37875483 89.4433634,5.33617868 90.5487012,7.62475672 C91.6996517,10.0079761 92.8825073,12.3716551 94.4312092,14.528159 C94.7757854,15.0077222 95.5502545,14.5097958 95.2042603,14.0278783 C93.5154119,11.6764415 92.2663825,9.07851347 91.0114447,6.48176254 C89.9500652,4.28523615 88.9605314,1.63598519 86.954758,0.113013136 C86.7174778,-0.0673233285 86.3863728,-0.0369533495 86.2351185,0.241084986 C85.2914337,1.97617604 85.4292169,4.09312838 85.2155702,6.00337652 C84.9695457,8.2024926 84.5869196,10.3811266 84.0939253,12.5383368 C83.9618141,13.1165435 84.8473606,13.2994697 84.9955425,12.7292675 C86.0309252,8.74797509 87.066308,4.76644729 88.1014544,0.785154921 C88.2503453,0.212598416 87.3484917,0.02308033 87.1998371,0.594224277" id="Fill-19" fill="#F2F2F2"></path>
                            <path d="M84.8412787,9.42593017 C87.0752434,8.63400801 89.407693,8.32900945 91.7807089,8.56262537 C92.535056,8.63669325 92.7906476,7.52589878 92.0280935,7.45093582 C89.4407557,7.19650929 86.9078192,7.48181608 84.4670363,8.34691105 C83.7509107,8.60066627 84.1199944,9.68169932 84.8412787,9.42593017" id="Fill-21" fill="#F2F2F2"></path>
                            <path d="M99.8839393,13.850667 C100.224893,13.9214471 100.54076,13.6723697 100.546233,13.284916 C100.552619,12.8474999 100.151913,12.656712 99.806398,12.6265876 C99.0013367,12.5567872 98.1483823,13.0226133 97.8521289,13.8558102 C97.5850675,14.6074507 97.8147266,15.5577164 98.4998269,15.9517827 C99.1719276,16.3385016 100.031268,16.053177 100.393887,15.3466006 C100.648405,14.8516298 99.92271,14.4497262 99.6695604,14.9429826 C99.3375011,15.5890653 98.5709824,15.1423425 98.5570706,14.5258944 C98.5495446,14.1950158 98.6950485,13.9165488 98.9443211,13.7267406 C99.1133155,13.5979159 99.6745778,13.3272861 99.8563437,13.5486882 C99.8120996,13.4492532 99.7676274,13.3500631 99.7236113,13.2506281 C99.7546278,13.1901344 99.7856443,13.1296406 99.8166608,13.0691469 C99.919061,13.0488191 100.021461,13.0284912 100.123861,13.0079185 C100.100371,13.0032651 100.077108,12.9983668 100.053618,12.9934686 C99.5384244,12.8864412 99.3671493,13.7433947 99.8839393,13.850667" id="Fill-23" fill="#F2F2F2"></path>
                            <path d="M98.8158826,10.5196882 C96.8349781,11.0636105 95.1318091,12.7349227 95.3031828,14.9861503 C95.4598541,17.0460461 97.2255078,18.2068243 99.1051043,18.228136 C100.95185,18.2492109 102.929539,17.308417 102.996618,15.1803237 C103.073346,12.7425002 100.970688,11.3103528 99.1664405,10.2199034 C98.7543168,9.97079307 98.4154748,10.6501632 98.825531,10.8978527 C100.093145,11.6641273 101.602886,12.5447748 102.094954,14.0754296 C102.750584,16.1140137 101.243829,17.3683266 99.3791643,17.4597302 C97.7430745,17.5397675 96.0957283,16.635914 96.0373786,14.7713756 C95.9794883,12.9191506 97.450407,11.6837815 99.0488221,11.2447601 C99.5096472,11.1183106 99.2760185,10.3932386 98.8158826,10.5196882" id="Fill-25" fill="#F2F2F2"></path>
                        </g>
                    </g>
                </g>
            </g>
        </g>
    </g>
</svg>