<?xml version="1.0" encoding="UTF-8"?>
<svg width="243px" height="456px" viewBox="0 0 243 456" version="1.1" xmlns="http://www.w3.org/2000/svg" xmlns:xlink="http://www.w3.org/1999/xlink">
    <!-- Generator: Sketch 46.1 (44463) - http://www.bohemiancoding.com/sketch -->
    <title>self Portrair-06</title>
    <desc>Created with Sketch.</desc>
    <defs>
        <rect id="path-1" x="0" y="0" width="375" height="667"></rect>
    </defs>
    <g id="Page-1" stroke="none" stroke-width="1" fill="none" fill-rule="evenodd">
        <g id="iPhone-7-Copy" transform="translate(-67.000000, -211.000000)">
            <g id="self-Portrair-06">
                <mask id="mask-2" fill="white">
                    <use xlink:href="#path-1"></use>
                </mask>
                <g id="Mask"></g>
                <g mask="url(#mask-2)" id="Shape">
                    <g transform="translate(67.000000, 211.000000)">
                        <path d="M200.8935,228.097216 C199.962,229.087905 198.945,235.135613 195.6825,235.135613 C193.851,235.135613 192.3795,234.203465 192.87,231.46556 C192.87,231.348478 192.924,231.22239 192.951,231.096303 C194.9445,222.82855 194.751,214.403187 195.435,208.679705 C196.587,209.580331 200.0835,211.133912 200.0835,212.9847 C200.090788,213.003532 200.090788,213.024409 200.0835,213.043241 C200.088344,213.100178 200.088344,213.157423 200.0835,213.21436 C199.6335,215.853196 198.081,215.956768 196.4835,218.068738 C194.886,220.180707 195.6465,225.224217 196.4835,225.647511 C197.3205,226.070806 198.477,225.408845 200.2995,223.585076 C216.234,208.810295 216.4995,188.645264 209.5965,186.236088 C204.111,184.31325 199.0665,194.985676 197.217,200.317386 C197.174702,200.121076 197.112895,199.92949 197.0325,199.745488 C197.4825,198.588183 197.964,193.711289 199.125,190.928353 C200.286,188.145416 202.3695,184.894154 203.7555,181.647395 C204.0075,181.052981 204.2775,180.485586 204.5655,179.954217 C206.937,178.436661 209.2635,177.450474 210.7935,177.761191 C216.9,178.954521 224.334,207.693518 200.8935,228.097216 Z" stroke="none" fill="#88583B" fill-rule="nonzero"></path>
                        <path d="M200.304,223.57607 C198.4815,225.399839 197.334,226.061799 196.488,225.638505 C195.642,225.21521 194.9175,220.167198 196.488,218.059731 C198.0585,215.952265 199.638,215.84419 200.088,213.205354 C200.092844,213.148417 200.092844,213.091171 200.088,213.034235 C200.095288,213.015402 200.095288,212.994526 200.088,212.975694 C200.214,211.17444 198.207,210.372883 197.0595,209.490269 C196.675062,209.267105 196.393803,208.901538 196.2765,208.47256 C196.0605,207.000036 196.488,203.0688 196.488,203.0688 C196.629009,202.125178 196.876594,201.200621 197.226,200.312883 C199.071,194.981173 204.1155,184.31325 209.6055,186.231585 C216.4995,188.631755 216.2385,208.796786 200.304,223.57607 Z" stroke="none" fill="#66422C" fill-rule="nonzero"></path>
                        <path d="M40.68,228.097216 C41.6115,229.087905 42.6285,235.135613 45.891,235.135613 C47.7225,235.135613 49.194,234.203465 48.7035,231.46556 C48.7035,231.348478 48.6495,231.22239 48.6225,231.096303 C46.629,222.82855 46.8225,214.403187 46.1385,208.679705 C44.9865,209.580331 41.49,211.133912 41.49,212.9847 C41.4827125,213.003532 41.4827125,213.024409 41.49,213.043241 C41.4851565,213.100178 41.4851565,213.157423 41.49,213.21436 C41.94,215.853196 43.4925,215.956768 45.09,218.068738 C46.6875,220.180707 45.927,225.224217 45.09,225.647511 C44.253,226.070806 43.0965,225.408845 41.274,223.585076 C25.3395,208.810295 25.074,188.645264 31.977,186.236088 C37.4625,184.31325 42.507,194.985676 44.3565,200.317386 C44.398798,200.121076 44.4606055,199.92949 44.541,199.745488 C44.091,198.588183 43.6095,193.711289 42.4485,190.928353 C41.2875,188.145416 39.204,184.894154 37.818,181.647395 C37.566,181.052981 37.296,180.485586 37.008,179.954217 C34.6365,178.436661 32.31,177.450474 30.78,177.761191 C24.669,178.954521 17.2395,207.693518 40.68,228.097216 Z" stroke="none" fill="#88583B" fill-rule="nonzero"></path>
                        <path d="M41.2695,223.57607 C43.092,225.399839 44.2395,226.061799 45.0855,225.638505 C45.9315,225.21521 46.656,220.167198 45.0855,218.059731 C43.515,215.952265 41.9355,215.84419 41.4855,213.205354 C41.4806565,213.148417 41.4806565,213.091171 41.4855,213.034235 C41.4782125,213.015402 41.4782125,212.994526 41.4855,212.975694 C41.3595,211.17444 43.3665,210.372883 44.514,209.490269 C44.8984385,209.267105 45.1796974,208.901538 45.297,208.47256 C45.513,207.000036 45.0855,203.0688 45.0855,203.0688 C44.9444909,202.125178 44.6969062,201.200621 44.3475,200.312883 C42.5025,194.981173 37.458,184.31325 31.968,186.231585 C25.0785,188.631755 25.335,208.796786 41.2695,223.57607 Z" stroke="none" fill="#66422C" fill-rule="nonzero"></path>
                        <path d="M109.1835,420.889866 C110.115,420.889866 131.0715,421.069991 131.5485,420.889866 L109.1835,420.889866 Z M109.1835,420.889866 C110.115,420.889866 131.0715,421.069991 131.5485,420.889866 L109.1835,420.889866 Z M109.1835,420.889866 C110.115,420.889866 131.0715,421.069991 131.5485,420.889866 L109.1835,420.889866 Z M109.1835,420.889866 C110.115,420.889866 131.0715,421.069991 131.5485,420.889866 L109.1835,420.889866 Z M178.4565,350.82111 L178.4565,350.82111 C178.3395,348.844235 167.94,317.04761 167.94,295.396544 L70.8975,295.396544 C74.9475,310.891826 61.623,345.755085 60.633,350.244709 L60.633,350.244709 C60.1425,352.455748 59.634,354.34256 59.211,355.783563 C59.0371078,356.352585 58.9343251,356.940971 58.905,357.535282 C58.8640644,357.982102 58.9145934,358.432583 59.0535,358.859203 L58.2435,361.71419 L60.345,446.733348 C60.345,446.733348 96.741,405.484646 101.556,401.202167 C107.9595,395.5012 115.506,394.046688 117.9315,393.717959 L117.9315,393.717959 C118.6515,393.663921 119.2815,393.632399 119.781,393.632399 C120.2805,393.632399 121.0005,393.677431 121.806,393.749481 C124.4385,394.13675 131.7465,395.663312 137.961,401.197663 C138.0915,401.310242 138.2355,401.449839 138.411,401.616455 C144.675,407.628138 179.181,446.710833 179.181,446.710833 C178.8885,442.775094 178.56,352.784476 178.4565,350.82111 Z M109.1835,420.889866 C110.115,420.889866 131.0715,421.069991 131.5485,420.889866 L109.1835,420.889866 Z" stroke="none" fill="#66422C" fill-rule="nonzero"></path>
                        <path d="M177.498,456.820367 L140.283,414.792623 C138.767422,413.168031 137.12087,411.670945 135.36,410.316509 C136.6605,406.497851 137.907,402.827798 138.42,401.616455 C144.675,407.628138 179.181,446.710833 179.181,446.710833 C179.253,447.724038 178.569,451.569714 177.498,456.820367 Z" stroke="none" fill="#57784C" fill-rule="nonzero"></path>
                        <path d="M104.6655,410.613715 C104.0475,411.154091 103.434,411.734996 102.825,412.356428 L62.4825,455.63154 C61.2,450.313339 60.3495,446.710833 60.3495,446.710833 C60.3495,446.710833 96.7455,405.462131 101.5605,401.179651 C101.4615,401.589436 102.96,406.043035 104.6655,410.613715 Z" stroke="none" fill="#57784C" fill-rule="nonzero"></path>
                        <path d="M118.719,393.627896 C118.719,393.627896 118.44,393.627896 117.945,393.717959 L117.945,393.717959 C115.5375,394.046688 107.9685,395.519212 101.5695,401.202167 C96.75,405.484646 60.3495,446.710833 60.3495,446.710833 C58.4145,429.495354 53.1045,396.825121 58.248,361.691674 C58.455,360.301707 58.674,358.908738 58.905,357.512766 C59.004,356.927359 59.1075,356.346455 59.211,355.761047 C59.556,353.845715 59.9355,351.924378 60.3495,349.997037 C60.3495,349.911477 60.4575,349.997037 60.633,350.213187 L60.633,350.213187 C61.92,351.825309 67.698,360.88111 83.6145,372.215497 C99.7965,383.779543 118.2735,392.673232 118.719,393.627896 Z" stroke="none" fill="#FFFFFF" fill-rule="nonzero"></path>
                        <path d="M179.181,446.710833 C179.181,446.710833 144.675,407.628138 138.42,401.616455 C138.249,401.449839 138.1005,401.310242 137.97,401.197663 C131.76,395.663312 124.47,394.132247 121.815,393.749481 C121.167,393.654915 120.807,393.627896 120.807,393.627896 C121.257,392.677735 139.707,383.779543 155.907,372.247019 C170.442,361.889812 176.517,353.441934 178.4385,350.825613 L178.4385,350.825613 C178.92,350.177162 179.136,349.893465 179.163,350.028559 C187.65,389.453491 181.3275,427.62205 179.181,446.710833 Z" stroke="none" fill="#FFFFFF" fill-rule="nonzero"></path>
                        <path d="M138.42,401.616455 C137.907,402.827798 136.656,406.497851 135.36,410.316509 C125.514,402.77376 114.255,402.210868 104.67,410.613715 C102.9645,406.043035 101.4615,401.607449 101.565,401.202167 C107.9685,395.5012 115.515,394.046688 117.9405,393.717959 L117.9405,393.717959 C118.6605,393.663921 119.2905,393.632399 119.79,393.632399 C120.2895,393.632399 121.0095,393.677431 121.815,393.749481 C124.4475,394.13675 131.7555,395.663312 137.97,401.197663 C138.1005,401.310242 138.2445,401.449839 138.42,401.616455 Z" stroke="#000000" stroke-width="0.5" fill="#000000" fill-rule="nonzero"></path>
                        <path d="M109.1835,420.889866 L109.1835,456.617726 C94.5585,457.288693 73.1835,458.932337 63.45,459.706876 C63.108,458.256867 62.7885,456.883411 62.487,455.61803 L62.487,455.61803 L102.8295,412.342919 C103.4295,411.724488 104.043,411.143584 104.67,410.600206 C106.5555,415.67974 108.6975,420.889866 109.1835,420.889866 Z" stroke="none" fill="#FFFFFF" fill-rule="nonzero"></path>
                        <path d="M177.498,456.820367 C177.303,457.78704 177.093,458.797243 176.868,459.850976 C168.4575,459.175506 146.9565,457.495837 131.5485,456.725801 L131.5485,420.889866 C131.8005,420.7953 133.623,415.423062 135.3555,410.316509 C137.11637,411.670945 138.762922,413.168031 140.2785,414.792623 L177.498,456.820367 Z" stroke="none" fill="#FFFFFF" fill-rule="nonzero"></path>
                        <path d="M131.5485,420.894369 L131.5485,456.730304 C126.6705,456.482632 122.409,456.334029 119.358,456.334029 C116.739,456.334029 113.211,456.446607 109.1835,456.635739 L109.1835,420.894369 C110.115,420.894369 131.0715,421.069991 131.5485,420.894369 Z" stroke="none" fill="#B52D3A" fill-rule="nonzero"></path>
                        <path d="M135.3555,410.316509 C133.623,415.423062 131.796,420.7953 131.5485,420.889866 L109.1835,420.889866 C108.6975,420.889866 106.5555,415.67974 104.6835,410.609212 C114.2505,402.210868 125.5095,402.77376 135.3555,410.316509 Z" stroke="none" fill="#B52D3A" fill-rule="nonzero"></path>
                        <path d="M118.296,322.901683 C140.4225,322.901683 135.9675,319.07402 154.5165,306.920063 C176.5665,292.465004 195.705,255.260116 195.705,211.692301 C195.705,191.167019 204.2325,158.762471 200.4255,135.873044 C194.6205,100.951244 170.037,78.5391495 120.6315,78.5391495 C77.706,78.5391495 52.6815,108.710143 44.7255,142.605228 C37.5255,173.294082 45.3915,207.8106 45.5625,211.696804 C46.566,234.631262 49.2255,281.945685 83.8125,306.924566 C109.1205,325.166759 102.123,322.901683 118.296,322.901683 Z" stroke="none" fill="#88583B" fill-rule="nonzero"></path>
                        <path d="M147.8295,266.864691 C147.817167,266.966031 147.778364,267.06233 147.717,267.143885 C145.638,269.845765 136.881,279.752659 120.4605,279.752659 C104.04,279.752659 96.993,269.73769 95.337,266.977269 C95.2932413,266.905076 95.2684708,266.822967 95.265,266.738603 C97.1685,266.738603 100.485,267.859884 107.1045,267.859884 C108.576,267.859884 111.9105,267.184414 115.011,267.184414 C116.752385,267.238967 118.471851,267.589191 120.096,268.220134 C120.336186,268.295823 120.593814,268.295823 120.834,268.220134 C121.7655,267.94094 123.8805,267.233948 125.9595,267.233948 C128.376,267.233948 132.2145,268.337216 134.541,268.337216 C139.008187,268.286081 143.459362,267.792837 147.8295,266.864691 Z" stroke="none" fill="#60372D" fill-rule="nonzero"></path>
                        <path d="M147.8295,266.864691 C143.458342,267.797674 139.00564,268.295444 134.5365,268.350725 C132.21,268.350725 128.3715,267.247457 125.955,267.247457 C123.876,267.247457 121.761,267.954449 120.8295,268.233644 C120.589314,268.309333 120.331686,268.309333 120.0915,268.233644 C118.467351,267.6027 116.747885,267.252477 115.0065,267.197923 C111.906,267.197923 108.5715,267.873393 107.1,267.873393 C100.4805,267.873393 97.164,266.752113 95.2605,266.752113 C95.2363922,266.491605 95.4037882,266.251757 95.6565,266.184718 C99.216,265.252569 102.51,257.754852 113.9895,257.754852 C117,257.754852 119.421,259.182346 120.7035,259.182346 C121.8195,259.182346 123.8535,257.754852 128.0565,257.754852 C139.365,257.754852 144.441,265.16701 147.4605,266.337825 C147.682406,266.417763 147.830126,266.628681 147.8295,266.864691 L147.8295,266.864691 Z" stroke="none" fill="#4F3328" fill-rule="nonzero"></path>
                        <path d="M126.981,244.830859 C126.531,244.655237 128.0205,241.97137 130.05,241.678666 C133.5285,241.178818 136.35,241.719194 136.683,243.196222 C137.079,245.04701 129.744,243.412372 128.763,244.033805 C127.782,244.655237 127.4355,245.001979 126.981,244.830859 Z" stroke="none" fill="#000000" fill-rule="nonzero"></path>
                        <path d="M116.1,244.830859 C116.55,244.655237 115.0605,241.97137 113.031,241.678666 C109.5525,241.178818 106.731,241.719194 106.398,243.196222 C106.002,245.04701 113.337,243.412372 114.318,244.033805 C115.299,244.655237 115.65,245.001979 116.1,244.830859 Z" stroke="none" fill="#000000" fill-rule="nonzero"></path>
                        <path d="M186.2235,181.958111 L185.103,182.6606 C184.812377,182.842878 184.440284,182.830407 184.1625,182.629078 C182.3625,181.318666 175.428,176.608389 169.2315,176.608389 C160.947,176.608389 145.5435,183.628774 145.5435,183.628774 C145.5435,183.628774 139.2435,184.263715 138.0825,180.291952 C138.0825,180.291952 148.1805,173.708371 166.8825,173.708371 C176.1795,173.708371 186.2235,181.958111 186.2235,181.958111 Z" stroke="none" fill="#000000" fill-rule="nonzero"></path>
                        <path d="M54,181.958111 L55.1205,182.6606 C55.4111234,182.842878 55.7832157,182.830407 56.061,182.629078 C57.861,181.318666 64.7955,176.608389 70.992,176.608389 C79.2765,176.608389 94.68,183.628774 94.68,183.628774 C94.68,183.628774 100.98,184.263715 102.141,180.291952 C102.141,180.291952 92.043,173.708371 73.341,173.708371 C64.062,173.708371 54,181.958111 54,181.958111 Z" stroke="none" fill="#000000" fill-rule="nonzero"></path>
                        <path d="M45.5625,211.692301 C45.5625,202.424852 38.6055,195.030707 34.533,187.623053 C30.4605,180.215398 20.367,172.731191 16.587,163.463742 C12.807,154.196294 -1.8315,112.128021 0.531,103.171289 C2.8935,94.2145568 4.7835,74.5088451 5.2515,68.2810116 C5.7195,62.0531782 1.4715,54.8346553 5.7015,50.1739123 C9.9315,45.5131692 15.354,35.7638854 22.896,24.3349329 C30.438,12.9059803 37.899,9.09182632 44.7075,7.93001791 C51.516,6.76820949 106.6905,-0.220653536 113.823,0.900626679 C120.9555,2.02190689 128.2635,2.58029543 131.4585,1.12578335 C134.6535,-0.328728738 159.6825,0.625935542 167.7105,1.80125336 C175.7385,2.97657117 191.9385,5.78202328 197.532,7.92551477 C203.1255,10.0690063 223.3935,20.6648791 228.4965,27.5546732 C235.035,36.3808147 240.3225,66.8535184 241.74,74.1125694 C243.1575,81.3716204 243.3915,100.712578 241.92,110.164655 C240.4485,119.616732 231.0525,131.22581 231.0525,141.97479 C231.0525,149.531047 216.9405,163.270107 216.9405,169.948254 C216.9405,178.666321 202.6935,181.656401 200.1825,190.212355 C197.6715,198.768308 195.6825,211.674288 195.6825,211.674288 C195.6825,211.674288 198.765,124.601701 193.8825,121.85479 C189,119.107878 141.2775,122.899517 134.127,119.711298 C126.9765,116.52308 124.0065,127.438675 124.0065,127.438675 C119.286,120.683975 76.05,120.062543 68.9175,117.905542 C59.4675,115.055058 54.9,116.442023 51.435,125.21863 C47.97,133.995237 49.2255,141.312829 45.315,151.899696 C41.4045,162.486562 50.1255,174.415363 48.015,178.684333 C45.9045,182.953303 45.5625,211.692301 45.5625,211.692301 Z" stroke="none" fill="#100803" fill-rule="nonzero"></path>
                        <path d="M51.093,213.952874 C50.8545,213.1288 50.643,212.295721 50.4945,211.444628 C50.715,212.412802 50.9175,213.272901 51.093,213.952874 Z" stroke="none" fill="none"></path>
                        <path d="M186.012,185.587637 C182.862,184.295237 170.4375,179.967726 162.1215,180.454064 L162.1215,180.454064 C161.3565,180.413536 160.5915,180.395524 159.8175,180.395524 C150.5925,180.395524 140.4675,182.872247 135.0225,189.02803 C134.829,189.239678 134.649,189.478344 134.4735,189.685488 L134.424,189.753035 C134.353871,189.859735 134.277225,189.962001 134.1945,190.059248 C133.9065,190.374467 133.4205,190.721209 132.2955,190.748227 L132.057,190.748227 C131.895288,190.747132 131.734052,190.730545 131.5755,190.698693 C131.544208,190.703819 131.512292,190.703819 131.481,190.698693 C129.231,190.329436 126.6525,188.636258 119.9655,188.519176 L119.592,188.519176 C112.923,188.636258 110.3175,190.32043 108.0945,190.69419 L107.9595,190.721209 C107.81105,190.748977 107.660506,190.764042 107.5095,190.76624 L107.271,190.76624 C106.1865,190.739221 105.6915,190.414996 105.399,190.108782 C105.399,190.108782 105.399,190.108782 105.399,190.108782 C105.3,189.996204 105.228,189.888129 105.156,189.78906 L105.1065,189.721513 C104.931,189.500859 104.751,189.2712 104.5575,189.064056 C99.108,182.908272 88.992,180.431549 79.767,180.431549 C78.9975,180.431549 78.2235,180.431549 77.4585,180.49009 L77.4585,180.49009 C69.147,180.003751 56.7585,184.326759 53.5725,185.623662 C50.3865,186.920564 42.048,188.58222 42.048,188.58222 L42.048,193.69778 C43.9418306,194.757384 45.5316985,196.286332 46.665,198.137869 C48.141,200.727171 49.509,207.144136 50.49,211.422113 C50.4927636,211.430907 50.4927636,211.440338 50.49,211.449132 C50.7105,212.417305 50.913,213.277404 51.0885,213.957377 C51.1155,214.056446 51.141,214.149511 51.165,214.236571 C51.165,214.299615 51.201,214.362659 51.219,214.416697 L51.3585,214.86701 C51.3855,214.961576 51.417,215.042632 51.4395,215.114682 C55.278,226.971432 65.9295,235.775058 79.7265,235.775058 C91.2071414,235.866115 101.688673,229.255847 106.56,218.852283 L106.6635,218.631629 C107.595,216.704288 112.4055,207.540412 111.9015,198.844861 C111.807,197.73709 110.178,198.016285 110.241,196.633823 C110.304,195.251361 112.3785,194.710985 112.3785,194.710985 C113.238,194.386759 116.37,193.98598 119.718,193.922936 L119.763,193.922936 C123.1335,193.981477 126.288,194.37325 127.152,194.710985 C127.152,194.710985 129.2265,195.251361 129.2895,196.633823 C129.3525,198.016285 127.7145,197.73709 127.629,198.844861 C127.1205,207.540412 131.931,216.704288 132.8625,218.631629 L132.966,218.852283 C137.830115,229.267877 148.315502,235.890023 159.804,235.802077 C173.601,235.802077 184.248,226.998451 188.091,215.141701 C188.108463,215.101051 188.122024,215.058832 188.1315,215.015613 C188.226,214.718406 188.3115,214.425703 188.397,214.114987 C188.424,214.03393 188.442,213.948371 188.4645,213.867314 C188.631,213.223366 188.8155,212.430815 189.0225,211.548201 L189.0225,211.548201 C190.0035,207.265721 191.3895,200.772202 192.8745,198.160385 C194.01338,196.276589 195.625341,194.724055 197.55,193.657252 L197.55,188.541692 C197.55,188.541692 189.18,186.880036 186.012,185.587637 Z M45.7065,192.18923 C45.1671939,192.18923 44.73,191.751732 44.73,191.21205 C44.73,190.672369 45.1671939,190.23487 45.7065,190.23487 C46.2458061,190.23487 46.683,190.672369 46.683,191.21205 C46.683,191.471214 46.580119,191.719764 46.3969898,191.903021 C46.2138605,192.086277 45.9654839,192.18923 45.7065,192.18923 Z M48.987,192.18923 C48.4476939,192.18923 48.0105,191.751732 48.0105,191.21205 C48.0105,190.672369 48.4476939,190.23487 48.987,190.23487 C49.5263061,190.23487 49.9635,190.672369 49.9635,191.21205 C49.9647035,191.471582 49.8622091,191.720832 49.6788183,191.90435 C49.4954274,192.087869 49.246351,192.190434 48.987,192.18923 Z M107.2935,208.089794 C106.164,222.08103 94.95,233.784673 79.722,233.784673 C64.494,233.784673 53.397,222.22513 52.1505,208.089794 C51.516,200.884781 52.875,195.030707 57.1005,190.527574 C62.6265,184.6735 71.1405,182.372399 79.704,182.372399 C88.2675,182.372399 97.254,185.137323 102.321,190.847296 C106.2765,195.309902 107.7975,201.902489 107.2935,208.089794 Z M187.3935,208.089794 C186.147,222.22513 175.0455,233.784673 159.822,233.784673 C144.5985,233.784673 133.38,222.076526 132.246,208.089794 C131.751,201.902489 133.272,195.309902 137.196,190.865309 C142.2405,185.155336 151.2315,182.376902 159.804,182.376902 C168.3765,182.376902 176.8815,184.691513 182.4075,190.532077 C186.642,195.030707 188.0055,200.875774 187.371,208.089794 L187.3935,208.089794 Z M190.665,192.18923 C190.125694,192.18923 189.6885,191.751732 189.6885,191.21205 C189.6885,190.672369 190.125694,190.23487 190.665,190.23487 C191.204306,190.23487 191.6415,190.672369 191.6415,191.21205 C191.64157,191.475163 191.535606,191.727187 191.347581,191.911105 C191.159556,192.095023 190.90536,192.195293 190.6425,192.18923 L190.665,192.18923 Z M193.9455,192.18923 C193.406194,192.18923 192.969,191.751732 192.969,191.21205 C192.969,190.672369 193.406194,190.23487 193.9455,190.23487 C194.484806,190.23487 194.922,190.672369 194.922,191.21205 C194.923321,191.475551 194.817752,191.728313 194.629448,191.912504 C194.441144,192.096695 194.186219,192.196553 193.923,192.18923 L193.9455,192.18923 Z" stroke="none" fill="#983328" fill-rule="nonzero"></path>
                        <path d="M107.2935,208.089794 C106.164,222.08103 94.95,233.784673 79.722,233.784673 C64.494,233.784673 53.397,222.22513 52.1505,208.089794 C51.516,200.884781 52.875,195.030707 57.1005,190.527574 C62.6265,184.6735 71.1405,182.372399 79.704,182.372399 C88.2675,182.372399 97.254,185.137323 102.321,190.847296 C106.2765,195.309902 107.7975,201.902489 107.2935,208.089794 Z" stroke="none" fill="#0D153C" fill-rule="nonzero"></path>
                        <path d="M119.7585,193.900421 C123.048,193.850886 126.5085,194.116571 128.25,195.107261" stroke="none" fill="none"></path>
                        <path d="M108.0765,190.671674 C109.971,190.288908 111.9825,188.492158 119.205,188.492158 L119.574,188.492158" stroke="none" fill="none"></path>
                        <path d="M182.763,190.932856 L144.513,229.20949 C140.214947,226.325831 136.810264,222.294774 134.685,217.573393 L168.885,183.349579 C174.096,184.515891 178.8525,186.807986 182.385,190.554593 C182.529,190.676177 182.6505,190.811271 182.763,190.932856 Z" stroke="none" fill="#7FCDEE" fill-rule="nonzero"></path>
                        <path d="M168.8985,183.349579 L134.6985,217.573393 C133.336256,214.572319 132.504917,211.357395 132.2415,208.071782 C131.7465,201.884476 133.2675,195.291889 137.1915,190.851799 C142.236,185.155336 151.2315,182.376902 159.7995,182.376902 C162.858928,182.367006 165.910199,182.693185 168.8985,183.349579 L168.8985,183.349579 Z" stroke="none" fill="#0D153C" fill-rule="nonzero"></path>
                        <path d="M187.371,208.089794 C186.1245,222.229633 175.023,233.784673 159.7995,233.784673 C155.651601,233.80459 151.552547,232.888779 147.807,231.105309 L184.95,193.949955 C187.173,197.867681 187.8525,202.577959 187.371,208.089794 Z" stroke="none" fill="#0D153C" fill-rule="nonzero"></path>
                        <path d="M189,211.534691 C188.8425,212.322739 188.658,213.092775 188.442,213.853805 C188.622,213.209857 188.8065,212.417305 189,211.534691 Z" stroke="none" fill="none"></path>
                        <path d="M111.267,195.107261 C112.986,194.125577 116.442,193.850886 119.7135,193.900421" stroke="none" fill="none"></path>
                        <path d="M119.9475,188.496661 L120.3165,188.496661 C127.557,188.496661 129.5685,190.297914 131.463,190.68068" stroke="none" fill="none"></path>
                        <path d="M46.683,191.207547 C46.683,191.747229 46.2458061,192.184727 45.7065,192.184727 C45.1671939,192.184727 44.73,191.747229 44.73,191.207547 C44.73,190.667865 45.1671939,190.230367 45.7065,190.230367 C46.2458061,190.230367 46.683,190.667865 46.683,191.207547 L46.683,191.207547 Z" stroke="none" fill="#FCDD7C" fill-rule="nonzero"></path>
                        <path d="M49.95,191.207547 C49.95,191.747229 49.5128061,192.184727 48.9735,192.184727 C48.4341939,192.184727 47.997,191.747229 47.997,191.207547 C47.997,190.667865 48.4341939,190.230367 48.9735,190.230367 C49.232851,190.229163 49.4819274,190.331729 49.6653183,190.515247 C49.8487091,190.698766 49.9512035,190.948015 49.95,191.207547 Z" stroke="none" fill="#FCDD7C" fill-rule="nonzero"></path>
                        <path d="M191.6235,191.207547 C191.6235,191.747229 191.186306,192.184727 190.647,192.184727 C190.107694,192.184727 189.6705,191.747229 189.6705,191.207547 C189.6705,190.667865 190.107694,190.230367 190.647,190.230367 C191.186306,190.230367 191.6235,190.667865 191.6235,191.207547 L191.6235,191.207547 Z" stroke="none" fill="#FCDD7C" fill-rule="nonzero"></path>
                        <path d="M194.904,191.207547 C194.904,191.747229 194.466806,192.184727 193.9275,192.184727 C193.388194,192.184727 192.951,191.747229 192.951,191.207547 C192.951,190.667865 193.388194,190.230367 193.9275,190.230367 C194.186851,190.229163 194.435927,190.331729 194.619318,190.515247 C194.802709,190.698766 194.905204,190.948015 194.904,191.207547 Z" stroke="none" fill="#FCDD7C" fill-rule="nonzero"></path>
                        <path d="M184.95,193.949955 L147.8205,231.105309 C146.67731,230.559555 145.574949,229.931991 144.522,229.227502 L182.772,190.950868 C183.603223,191.869635 184.333412,192.875099 184.95,193.949955 Z" stroke="none" fill="#5775B5" fill-rule="nonzero"></path>
                        <path d="M102.3795,190.932856 L64.1295,229.20949 C59.8314473,226.325831 56.4267643,222.294774 54.3015,217.573393 L88.5015,183.349579 C93.7125,184.515891 98.469,186.807986 102.0015,190.554593 C102.15,190.676177 102.267,190.811271 102.3795,190.932856 Z" stroke="none" fill="#7FCDEE" fill-rule="nonzero"></path>
                        <path d="M104.553,193.949955 L67.4235,231.105309 C66.2797764,230.55375 65.1774023,229.920158 64.125,229.20949 L102.375,190.932856 C103.207278,191.857277 103.937501,192.868826 104.553,193.949955 L104.553,193.949955 Z" stroke="none" fill="#5775B5" fill-rule="nonzero"></path>
                    </g>
                </g>
            </g>
        </g>
    </g>
</svg>