<?xml version="1.0" encoding="UTF-8"?>
<svg width="540px" height="981px" viewBox="0 0 540 981" version="1.1" xmlns="http://www.w3.org/2000/svg" xmlns:xlink="http://www.w3.org/1999/xlink">
    <!-- Generator: Sketch 46.1 (44463) - http://www.bohemiancoding.com/sketch -->
    <title>self Portrair-06</title>
    <desc>Created with Sketch.</desc>
    <defs></defs>
    <g id="Page-1" stroke="none" stroke-width="1" fill="none" fill-rule="evenodd">
        <g id="Desktop-HD-Copy-6" transform="translate(-450.000000, -43.000000)">
            <g id="self-Portrair-06" transform="translate(450.000000, 43.000000)">
                <path d="M446.43,506.53 C444.36,508.73 442.1,522.16 434.85,522.16 C430.78,522.16 427.51,520.09 428.6,514.01 C428.6,513.75 428.72,513.47 428.78,513.19 C433.21,494.83 432.78,476.12 434.3,463.41 C436.86,465.41 444.63,468.86 444.63,472.97 C444.646195,473.01182 444.646195,473.05818 444.63,473.1 C444.640763,473.226438 444.640763,473.353562 444.63,473.48 C443.63,479.34 440.18,479.57 436.63,484.26 C433.08,488.95 434.77,500.15 436.63,501.09 C438.49,502.03 441.06,500.56 445.11,496.51 C480.52,463.7 481.11,418.92 465.77,413.57 C453.58,409.3 442.37,433 438.26,444.84 C438.166004,444.404059 438.028655,443.97861 437.85,443.57 C438.85,441 439.92,430.17 442.5,423.99 C445.08,417.81 449.71,410.59 452.79,403.38 C453.35,402.06 453.95,400.8 454.59,399.62 C459.86,396.25 465.03,394.06 468.43,394.75 C482,397.4 498.52,461.22 446.43,506.53 Z" id="Shape" fill="#88583B" fill-rule="nonzero"></path>
                <path d="M445.12,496.49 C441.07,500.54 438.52,502.01 436.64,501.07 C434.76,500.13 433.15,488.92 436.64,484.24 C440.13,479.56 443.64,479.32 444.64,473.46 C444.650763,473.333562 444.650763,473.206438 444.64,473.08 C444.656195,473.03818 444.656195,472.99182 444.64,472.95 C444.92,468.95 440.46,467.17 437.91,465.21 C437.055692,464.714427 436.430673,463.90262 436.17,462.95 C435.69,459.68 436.64,450.95 436.64,450.95 C436.953354,448.854521 437.503542,446.801379 438.28,444.83 C442.38,432.99 453.59,409.3 465.79,413.56 C481.11,418.89 480.53,463.67 445.12,496.49 Z" id="Shape" fill="#66422C" fill-rule="nonzero"></path>
                <path d="M90.4,506.53 C92.47,508.73 94.73,522.16 101.98,522.16 C106.05,522.16 109.32,520.09 108.23,514.01 C108.23,513.75 108.11,513.47 108.05,513.19 C103.62,494.83 104.05,476.12 102.53,463.41 C99.97,465.41 92.2,468.86 92.2,472.97 C92.1838055,473.01182 92.1838055,473.05818 92.2,473.1 C92.1892366,473.226438 92.1892366,473.353562 92.2,473.48 C93.2,479.34 96.65,479.57 100.2,484.26 C103.75,488.95 102.06,500.15 100.2,501.09 C98.34,502.03 95.77,500.56 91.72,496.51 C56.31,463.7 55.72,418.92 71.06,413.57 C83.25,409.3 94.46,433 98.57,444.84 C98.6639956,444.404059 98.8013455,443.97861 98.98,443.57 C97.98,441 96.91,430.17 94.33,423.99 C91.75,417.81 87.12,410.59 84.04,403.38 C83.48,402.06 82.88,400.8 82.24,399.62 C76.97,396.25 71.8,394.06 68.4,394.75 C54.82,397.4 38.31,461.22 90.4,506.53 Z" id="Shape" fill="#88583B" fill-rule="nonzero"></path>
                <path d="M91.71,496.49 C95.76,500.54 98.31,502.01 100.19,501.07 C102.07,500.13 103.68,488.92 100.19,484.24 C96.7,479.56 93.19,479.32 92.19,473.46 C92.1792366,473.333562 92.1792366,473.206438 92.19,473.08 C92.1738055,473.03818 92.1738055,472.99182 92.19,472.95 C91.91,468.95 96.37,467.17 98.92,465.21 C99.7743077,464.714427 100.399327,463.90262 100.66,462.95 C101.14,459.68 100.19,450.95 100.19,450.95 C99.8766464,448.854521 99.3264582,446.801379 98.55,444.83 C94.45,432.99 83.24,409.3 71.04,413.56 C55.73,418.89 56.3,463.67 91.71,496.49 Z" id="Shape" fill="#66422C" fill-rule="nonzero"></path>
                <path d="M242.63,934.66 C244.7,934.66 291.27,935.06 292.33,934.66 L242.63,934.66 Z M242.63,934.66 C244.7,934.66 291.27,935.06 292.33,934.66 L242.63,934.66 Z M242.63,934.66 C244.7,934.66 291.27,935.06 292.33,934.66 L242.63,934.66 Z M242.63,934.66 C244.7,934.66 291.27,935.06 292.33,934.66 L242.63,934.66 Z M396.57,779.06 L396.57,779.06 C396.31,774.67 373.2,704.06 373.2,655.98 L157.55,655.98 C166.55,690.39 136.94,767.81 134.74,777.78 L134.74,777.78 C133.65,782.69 132.52,786.88 131.58,790.08 C131.193573,791.343613 130.965167,792.650229 130.9,793.97 C130.809032,794.962243 130.921319,795.962615 131.23,796.91 L129.43,803.25 L134.1,992.05 C134.1,992.05 214.98,900.45 225.68,890.94 C239.91,878.28 256.68,875.05 262.07,874.32 L262.07,874.32 C263.67,874.2 265.07,874.13 266.18,874.13 C267.29,874.13 268.89,874.23 270.68,874.39 C276.53,875.25 292.77,878.64 306.58,890.93 C306.87,891.18 307.19,891.49 307.58,891.86 C321.5,905.21 398.18,992 398.18,992 C397.53,983.26 396.8,783.42 396.57,779.06 Z M242.63,934.66 C244.7,934.66 291.27,935.06 292.33,934.66 L242.63,934.66 Z" id="Shape" fill="#66422C" fill-rule="nonzero"></path>
                <path d="M394.44,1014.45 L311.74,921.12 C308.372048,917.512306 304.713044,914.187764 300.8,911.18 C303.69,902.7 306.46,894.55 307.6,891.86 C321.5,905.21 398.18,992 398.18,992 C398.34,994.25 396.82,1002.79 394.44,1014.45 Z" id="Shape" fill="#57784C" fill-rule="nonzero"></path>
                <path d="M232.59,911.84 C231.216667,913.04 229.853333,914.33 228.5,915.71 L138.85,1011.81 C136,1000 134.11,992 134.11,992 C134.11,992 214.99,900.4 225.69,890.89 C225.47,891.8 228.8,901.69 232.59,911.84 Z" id="Shape" fill="#57784C" fill-rule="nonzero"></path>
                <path d="M263.82,874.12 C263.82,874.12 263.2,874.12 262.1,874.32 L262.1,874.32 C256.75,875.05 239.93,878.32 225.71,890.94 C215,900.45 134.11,992 134.11,992 C129.81,953.77 118.01,881.22 129.44,803.2 C129.9,800.113333 130.386667,797.02 130.9,793.92 C131.12,792.62 131.35,791.33 131.58,790.03 C132.346667,785.776667 133.19,781.51 134.11,777.23 C134.11,777.04 134.35,777.23 134.74,777.71 L134.74,777.71 C137.6,781.29 150.44,801.4 185.81,826.57 C221.77,852.25 262.83,872 263.82,874.12 Z" id="Shape" fill="#FFFFFF" fill-rule="nonzero"></path>
                <path d="M398.18,992 C398.18,992 321.5,905.21 307.6,891.86 C307.22,891.49 306.89,891.18 306.6,890.93 C292.8,878.64 276.6,875.24 270.7,874.39 C269.26,874.18 268.46,874.12 268.46,874.12 C269.46,872.01 310.46,852.25 346.46,826.64 C378.76,803.64 392.26,784.88 396.53,779.07 L396.53,779.07 C397.6,777.63 398.08,777 398.14,777.3 C417,864.85 402.95,949.61 398.18,992 Z" id="Shape" fill="#FFFFFF" fill-rule="nonzero"></path>
                <path d="M242.63,934.67 L292.33,934.67 C291.27,935.06 244.7,934.67 242.63,934.67 Z" id="Shape" stroke="#000000" stroke-width="0.5"></path>
                <path d="M242.63,934.67 L292.33,934.67 C291.27,935.06 244.7,934.67 242.63,934.67 Z" id="Shape" stroke="#000000" stroke-width="0.5"></path>
                <path d="M292.33,934.67 C291.26,935.07 244.7,934.67 242.63,934.67 L292.33,934.67 Z" id="Shape" stroke="#000000" stroke-width="0.5"></path>
                <path d="M307.6,891.86 C306.46,894.55 303.68,902.7 300.8,911.18 C278.92,894.43 253.9,893.18 232.6,911.84 C228.81,901.69 225.47,891.84 225.7,890.94 C239.93,878.28 256.7,875.05 262.09,874.32 L262.09,874.32 C263.69,874.2 265.09,874.13 266.2,874.13 C267.31,874.13 268.91,874.23 270.7,874.39 C276.55,875.25 292.79,878.64 306.6,890.93 C306.89,891.18 307.21,891.49 307.6,891.86 Z" id="Shape" stroke="#000000" stroke-width="0.5" fill="#000000" fill-rule="nonzero"></path>
                <path d="M242.63,934.66 L242.63,1014 C210.13,1015.49 162.63,1019.14 141,1020.86 C140.24,1017.64 139.53,1014.59 138.86,1011.78 L138.86,1011.78 L228.51,915.68 C229.843333,914.306667 231.206667,913.016667 232.6,911.81 C236.79,923.09 241.55,934.66 242.63,934.66 Z" id="Shape" fill="#FFFFFF" fill-rule="nonzero"></path>
                <path d="M394.44,1014.45 C394.006667,1016.59667 393.54,1018.84 393.04,1021.18 C374.35,1019.68 326.57,1015.95 292.33,1014.24 L292.33,934.66 C292.89,934.45 296.94,922.52 300.79,911.18 C304.703044,914.187764 308.362048,917.512306 311.73,921.12 L394.44,1014.45 Z" id="Shape" fill="#FFFFFF" fill-rule="nonzero"></path>
                <path d="M292.33,934.67 L292.33,1014.25 C281.49,1013.7 272.02,1013.37 265.24,1013.37 C259.42,1013.37 251.58,1013.62 242.63,1014.04 L242.63,934.67 C244.7,934.67 291.27,935.06 292.33,934.67 Z" id="Shape" fill="#B52D3A" fill-rule="nonzero"></path>
                <path d="M300.79,911.18 C296.94,922.52 292.88,934.45 292.33,934.66 L242.63,934.66 C241.55,934.66 236.79,923.09 232.63,911.83 C253.89,893.18 278.91,894.43 300.79,911.18 Z" id="Shape" fill="#B52D3A" fill-rule="nonzero"></path>
                <path d="M262.88,717.06 C312.05,717.06 302.15,708.56 343.37,681.57 C392.37,649.47 434.9,566.85 434.9,470.1 C434.9,424.52 453.85,352.56 445.39,301.73 C432.49,224.18 377.86,174.41 268.07,174.41 C172.68,174.41 117.07,241.41 99.39,316.68 C83.39,384.83 100.87,461.48 101.25,470.11 C103.48,521.04 109.39,626.11 186.25,681.58 C242.49,722.09 226.94,717.06 262.88,717.06 Z" id="Shape" fill="#88583B" fill-rule="nonzero"></path>
                <path d="M328.51,592.62 C328.482594,592.845044 328.396365,593.058891 328.26,593.24 C323.64,599.24 304.18,621.24 267.69,621.24 C231.2,621.24 215.54,599 211.86,592.87 C211.762758,592.709683 211.707713,592.527345 211.7,592.34 C215.93,592.34 223.3,594.83 238.01,594.83 C241.28,594.83 248.69,593.33 255.58,593.33 C259.449745,593.451146 263.270781,594.228879 266.88,595.63 C267.413747,595.798081 267.986253,595.798081 268.52,595.63 C270.59,595.01 275.29,593.44 279.91,593.44 C285.28,593.44 293.81,595.89 298.98,595.89 C308.907081,595.776446 318.798581,594.681112 328.51,592.62 Z" id="Shape" fill="#60372D" fill-rule="nonzero"></path>
                <path d="M328.51,592.62 C318.796316,594.691852 308.901423,595.797239 298.97,595.92 C293.8,595.92 285.27,593.47 279.9,593.47 C275.28,593.47 270.58,595.04 268.51,595.66 C267.976253,595.828081 267.403747,595.828081 266.87,595.66 C263.260781,594.258879 259.439745,593.481146 255.57,593.36 C248.68,593.36 241.27,594.86 238,594.86 C223.29,594.86 215.92,592.37 211.69,592.37 C211.636427,591.791496 212.008418,591.258872 212.57,591.11 C220.48,589.04 227.8,572.39 253.31,572.39 C260,572.39 265.38,575.56 268.23,575.56 C270.71,575.56 275.23,572.39 284.57,572.39 C309.7,572.39 320.98,588.85 327.69,591.45 C328.183125,591.627517 328.511392,592.095898 328.51,592.62 L328.51,592.62 Z" id="Shape" fill="#4F3328" fill-rule="nonzero"></path>
                <path d="M282.18,543.69 C281.18,543.3 284.49,537.34 289,536.69 C296.73,535.58 303,536.78 303.74,540.06 C304.62,544.17 288.32,540.54 286.14,541.92 C283.96,543.3 283.19,544.07 282.18,543.69 Z" id="Shape" fill="#000000" fill-rule="nonzero"></path>
                <path d="M258,543.69 C259,543.3 255.69,537.34 251.18,536.69 C243.45,535.58 237.18,536.78 236.44,540.06 C235.56,544.17 251.86,540.54 254.04,541.92 C256.22,543.3 257,544.07 258,543.69 Z" id="Shape" fill="#000000" fill-rule="nonzero"></path>
                <path d="M413.83,404.07 L411.34,405.63 C410.69417,406.03478 409.867298,406.007086 409.25,405.56 C405.25,402.65 389.84,392.19 376.07,392.19 C357.66,392.19 323.43,407.78 323.43,407.78 C323.43,407.78 309.43,409.19 306.85,400.37 C306.85,400.37 329.29,385.75 370.85,385.75 C391.51,385.75 413.83,404.07 413.83,404.07 Z" id="Shape" fill="#000000" fill-rule="nonzero"></path>
                <path d="M120,404.07 L122.49,405.63 C123.13583,406.03478 123.962702,406.007086 124.58,405.56 C128.58,402.65 143.99,392.19 157.76,392.19 C176.17,392.19 210.4,407.78 210.4,407.78 C210.4,407.78 224.4,409.19 226.98,400.37 C226.98,400.37 204.54,385.75 162.98,385.75 C142.36,385.75 120,404.07 120,404.07 Z" id="Shape" fill="#000000" fill-rule="nonzero"></path>
                <path d="M101.25,470.1 C101.25,449.52 85.79,433.1 76.74,416.65 C67.69,400.2 45.26,383.58 36.86,363 C28.46,342.42 -4.07,249 1.18,229.11 C6.43,209.22 10.63,165.46 11.67,151.63 C12.71,137.8 3.27,121.77 12.67,111.42 C22.07,101.07 34.12,79.42 50.88,54.04 C67.64,28.66 84.22,20.19 99.35,17.61 C114.48,15.03 237.09,-0.49 252.94,2 C268.79,4.49 285.03,5.73 292.13,2.5 C299.23,-0.73 354.85,1.39 372.69,4 C390.53,6.61 426.53,12.84 438.96,17.6 C451.39,22.36 496.43,45.89 507.77,61.19 C522.3,80.79 534.05,148.46 537.2,164.58 C540.35,180.7 540.87,223.65 537.6,244.64 C534.33,265.63 513.45,291.41 513.45,315.28 C513.45,332.06 482.09,362.57 482.09,377.4 C482.09,396.76 450.43,403.4 444.85,422.4 C439.27,441.4 434.85,470.06 434.85,470.06 C434.85,470.06 441.7,276.7 430.85,270.6 C420,264.5 313.95,272.92 298.06,265.84 C282.17,258.76 275.57,283 275.57,283 C265.08,268 169,266.62 153.15,261.83 C132.15,255.5 122,258.58 114.3,278.07 C106.6,297.56 109.39,313.81 100.7,337.32 C92.01,360.83 111.39,387.32 106.7,396.8 C102.01,406.28 101.25,470.1 101.25,470.1 Z" id="Shape" fill="#100803" fill-rule="nonzero"></path>
                <path d="M113.54,475.12 C113.01,473.29 112.54,471.44 112.21,469.55 C112.7,471.7 113.15,473.61 113.54,475.12 Z" id="Shape"></path>
                <path d="M234.14,422.09 C233.92,421.84 233.76,421.6 233.6,421.38 C233.8,421.62 234,421.85 234.14,422.09 Z" id="Shape"></path>
                <path d="M413.36,412.13 C406.36,409.26 378.75,399.65 360.27,400.73 L360.27,400.73 C358.57,400.64 356.87,400.6 355.15,400.6 C334.65,400.6 312.15,406.1 300.05,419.77 C299.62,420.24 299.22,420.77 298.83,421.23 L298.72,421.38 C298.564157,421.616947 298.393833,421.844046 298.21,422.06 C297.57,422.76 296.49,423.53 293.99,423.59 L293.46,423.59 C293.10064,423.587567 292.742339,423.550732 292.39,423.48 C292.320463,423.491382 292.249537,423.491382 292.18,423.48 C287.18,422.66 281.45,418.9 266.59,418.64 L265.76,418.64 C250.94,418.9 245.15,422.64 240.21,423.47 L239.91,423.53 C239.580111,423.591666 239.245568,423.62512 238.91,423.63 L238.38,423.63 C235.97,423.57 234.87,422.85 234.22,422.17 C234.22,422.17 234.22,422.17 234.22,422.17 C234,421.92 233.84,421.68 233.68,421.46 L233.57,421.31 C233.18,420.82 232.78,420.31 232.35,419.85 C220.24,406.18 197.76,400.68 177.26,400.68 C175.55,400.68 173.83,400.68 172.13,400.81 L172.13,400.81 C153.66,399.73 126.13,409.33 119.05,412.21 C111.97,415.09 93.44,418.78 93.44,418.78 L93.44,430.14 C97.6485124,432.493037 101.181552,435.888336 103.7,440 C106.98,445.75 110.02,460 112.2,469.5 C112.206141,469.519529 112.206141,469.540471 112.2,469.56 C112.69,471.71 113.14,473.62 113.53,475.13 C113.59,475.35 113.646667,475.556667 113.7,475.75 C113.7,475.89 113.78,476.03 113.82,476.15 L114.13,477.15 C114.19,477.36 114.26,477.54 114.31,477.7 C122.84,504.03 146.51,523.58 177.17,523.58 C202.682536,523.782207 225.974829,509.102945 236.8,486 L237.03,485.51 C239.1,481.23 249.79,460.88 248.67,441.57 C248.46,439.11 244.84,439.73 244.98,436.66 C245.12,433.59 249.73,432.39 249.73,432.39 C251.64,431.67 258.6,430.78 266.04,430.64 L266.14,430.64 C273.63,430.77 280.64,431.64 282.56,432.39 C282.56,432.39 287.17,433.59 287.31,436.66 C287.45,439.73 283.81,439.11 283.62,441.57 C282.49,460.88 293.18,481.23 295.25,485.51 L295.48,486 C306.289144,509.12966 329.590005,523.835301 355.12,523.64 C385.78,523.64 409.44,504.09 417.98,477.76 C418.018807,477.66973 418.048943,477.575975 418.07,477.48 C418.28,476.82 418.47,476.17 418.66,475.48 C418.72,475.3 418.76,475.11 418.81,474.93 C419.18,473.5 419.59,471.74 420.05,469.78 L420.05,469.78 C422.23,460.27 425.31,445.85 428.61,440.05 C431.140845,435.8667 434.72298,432.419024 439,430.05 L439,418.69 C439,418.69 420.4,415 413.36,412.13 Z M101.57,426.79 C100.371542,426.79 99.4,425.818458 99.4,424.62 C99.4,423.421542 100.371542,422.45 101.57,422.45 C102.768458,422.45 103.74,423.421542 103.74,424.62 C103.74,425.19552 103.511376,425.747468 103.104422,426.154422 C102.697468,426.561376 102.14552,426.79 101.57,426.79 Z M108.86,426.79 C107.661542,426.79 106.69,425.818458 106.69,424.62 C106.69,423.421542 107.661542,422.45 108.86,422.45 C110.058458,422.45 111.03,423.421542 111.03,424.62 C111.032674,425.196336 110.804909,425.749839 110.397374,426.157374 C109.989839,426.564909 109.436336,426.792674 108.86,426.79 Z M238.43,462.1 C235.92,493.17 211,519.16 177.16,519.16 C143.32,519.16 118.66,493.49 115.89,462.1 C114.48,446.1 117.5,433.1 126.89,423.1 C139.17,410.1 158.09,404.99 177.12,404.99 C196.15,404.99 216.12,411.13 227.38,423.81 C236.17,433.72 239.55,448.36 238.43,462.1 Z M416.43,462.1 C413.66,493.49 388.99,519.16 355.16,519.16 C321.33,519.16 296.4,493.16 293.88,462.1 C292.78,448.36 296.16,433.72 304.88,423.85 C316.09,411.17 336.07,405 355.12,405 C374.17,405 393.07,410.14 405.35,423.11 C414.76,433.1 417.79,446.08 416.38,462.1 L416.43,462.1 Z M423.7,426.79 C422.501542,426.79 421.53,425.818458 421.53,424.62 C421.53,423.421542 422.501542,422.45 423.7,422.45 C424.898458,422.45 425.87,423.421542 425.87,424.62 C425.870155,425.204289 425.63468,425.763951 425.216847,426.172374 C424.799014,426.580796 424.234133,426.803463 423.65,426.79 L423.7,426.79 Z M430.99,426.79 C429.791542,426.79 428.82,425.818458 428.82,424.62 C428.82,423.421542 429.791542,422.45 430.99,422.45 C432.188458,422.45 433.16,423.421542 433.16,424.62 C433.162935,425.205149 432.928338,425.766451 432.509884,426.175481 C432.09143,426.58451 431.524931,426.806262 430.94,426.79 L430.99,426.79 Z" id="Shape" fill="#983328" fill-rule="nonzero"></path>
                <path d="M238.43,462.1 C235.92,493.17 211,519.16 177.16,519.16 C143.32,519.16 118.66,493.49 115.89,462.1 C114.48,446.1 117.5,433.1 126.89,423.1 C139.17,410.1 158.09,404.99 177.12,404.99 C196.15,404.99 216.12,411.13 227.38,423.81 C236.17,433.72 239.55,448.36 238.43,462.1 Z" id="Shape" fill="#0D153C" fill-rule="nonzero"></path>
                <path d="M114.14,477.15 C114.04,476.85 113.93,476.52 113.83,476.15" id="Shape"></path>
                <path d="M266.13,430.59 C273.44,430.48 281.13,431.07 285,433.27" id="Shape"></path>
                <path d="M240.17,423.42 C244.38,422.57 248.85,418.58 264.9,418.58 L265.72,418.58" id="Shape"></path>
                <path d="M293.41,423.58 C293.05,423.58 292.7,423.52 292.34,423.47" id="Shape"></path>
                <path d="M298.67,421.38 C298.514157,421.616947 298.343833,421.844046 298.16,422.06 C298.31,421.83 298.48,421.61 298.67,421.38 Z" id="Shape"></path>
                <path d="M406.14,424 L321.14,509 C311.588772,502.596327 304.02281,493.644658 299.3,483.16 L375.3,407.16 C386.88,409.75 397.45,414.84 405.3,423.16 C405.62,423.43 405.89,423.73 406.14,424 Z" id="Shape" fill="#7FCDEE" fill-rule="nonzero"></path>
                <path d="M375.33,407.16 L299.33,483.16 C296.302792,476.495586 294.45537,469.356283 293.87,462.06 C292.77,448.32 296.15,433.68 304.87,423.82 C316.08,411.17 336.07,405 355.11,405 C361.908729,404.978024 368.689331,405.702361 375.33,407.16 L375.33,407.16 Z" id="Shape" fill="#0D153C" fill-rule="nonzero"></path>
                <path d="M416.38,462.1 C413.61,493.5 388.94,519.16 355.11,519.16 C345.892446,519.204228 336.783438,517.17051 328.46,513.21 L411,430.7 C415.94,439.4 417.45,449.86 416.38,462.1 Z" id="Shape" fill="#0D153C" fill-rule="nonzero"></path>
                <path d="M420,469.75 C419.65,471.5 419.24,473.21 418.76,474.9 C419.16,473.47 419.57,471.71 420,469.75 Z" id="Shape"></path>
                <path d="M418.64,475.45 C418.43,476.24 418.24,476.91 418.05,477.45" id="Shape"></path>
                <path d="M247.26,433.27 C251.08,431.09 258.76,430.48 266.03,430.59" id="Shape"></path>
                <path d="M239.87,423.47 C239.536667,423.516667 239.203333,423.55 238.87,423.57" id="Shape"></path>
                <path d="M266.55,418.59 L267.37,418.59 C283.46,418.59 287.93,422.59 292.14,423.44" id="Shape"></path>
                <path d="M103.74,424.61 C103.74,425.808458 102.768458,426.78 101.57,426.78 C100.371542,426.78 99.4,425.808458 99.4,424.61 C99.4,423.411542 100.371542,422.44 101.57,422.44 C102.768458,422.44 103.74,423.411542 103.74,424.61 L103.74,424.61 Z" id="Shape" fill="#FCDD7C" fill-rule="nonzero"></path>
                <path d="M111,424.61 C111,425.808458 110.028458,426.78 108.83,426.78 C107.631542,426.78 106.66,425.808458 106.66,424.61 C106.66,423.411542 107.631542,422.44 108.83,422.44 C109.406336,422.437326 109.959839,422.665091 110.367374,423.072626 C110.774909,423.480161 111.002674,424.033664 111,424.61 Z" id="Shape" fill="#FCDD7C" fill-rule="nonzero"></path>
                <path d="M425.83,424.61 C425.83,425.808458 424.858458,426.78 423.66,426.78 C422.461542,426.78 421.49,425.808458 421.49,424.61 C421.49,423.411542 422.461542,422.44 423.66,422.44 C424.858458,422.44 425.83,423.411542 425.83,424.61 L425.83,424.61 Z" id="Shape" fill="#FCDD7C" fill-rule="nonzero"></path>
                <path d="M433.12,424.61 C433.12,425.808458 432.148458,426.78 430.95,426.78 C429.751542,426.78 428.78,425.808458 428.78,424.61 C428.78,423.411542 429.751542,422.44 430.95,422.44 C431.526336,422.437326 432.079839,422.665091 432.487374,423.072626 C432.894909,423.480161 433.122674,424.033664 433.12,424.61 Z" id="Shape" fill="#FCDD7C" fill-rule="nonzero"></path>
                <path d="M411,430.7 L328.49,513.21 C325.949578,511.998058 323.499887,510.604441 321.16,509.04 L406.16,424.04 C408.007162,426.080283 409.629805,428.313092 411,430.7 Z" id="Shape" fill="#5775B5" fill-rule="nonzero"></path>
                <path d="M227.51,424 L142.51,509 C132.958772,502.596327 125.39281,493.644658 120.67,483.16 L196.67,407.16 C208.25,409.75 218.82,414.84 226.67,423.16 C227,423.43 227.26,423.73 227.51,424 Z" id="Shape" fill="#7FCDEE" fill-rule="nonzero"></path>
                <path d="M232.34,430.7 L149.83,513.21 C147.288392,511.985166 144.838672,510.578165 142.5,509 L227.5,424 C229.349507,426.052841 230.972223,428.299163 232.34,430.7 L232.34,430.7 Z" id="Shape" fill="#5775B5" fill-rule="nonzero"></path>
            </g>
        </g>
    </g>
</svg>